<?xml version="1.0" encoding="UTF-8" standalone="no"?>
<!-- Created with Inkscape (http://www.inkscape.org/) -->

<svg
   version="1.1"
   id="svg1366"
   width="1400"
   height="1400"
   viewBox="0 0 1400 1400"
   sodipodi:docname="carTwoSteeringWheel.svg"
   inkscape:version="1.2.1 (9c6d41e4, 2022-07-14)"
   xmlns:inkscape="http://www.inkscape.org/namespaces/inkscape"
   xmlns:sodipodi="http://sodipodi.sourceforge.net/DTD/sodipodi-0.dtd"
   xmlns="http://www.w3.org/2000/svg"
   xmlns:svg="http://www.w3.org/2000/svg">
  <defs
     id="defs1370" />
  <sodipodi:namedview
     id="namedview1368"
     pagecolor="#ffffff"
     bordercolor="#000000"
     borderopacity="0.25"
     inkscape:showpageshadow="2"
     inkscape:pageopacity="0.0"
     inkscape:pagecheckerboard="0"
     inkscape:deskcolor="#d1d1d1"
     showgrid="false"
     inkscape:zoom="0.25185185"
     inkscape:cx="-101.25"
     inkscape:cy="714.70588"
     inkscape:window-width="1440"
     inkscape:window-height="764"
     inkscape:window-x="0"
     inkscape:window-y="205"
     inkscape:window-maximized="1"
     inkscape:current-layer="g1372" />
  <g
     inkscape:groupmode="layer"
     inkscape:label="Image"
     id="g1372">
    <g
       id="g6401"
       transform="matrix(1.4177516,0.032293,-0.03231694,1.4148037,-368.24275,-124.10092)">
      <path
         style="fill:#626262;fill-opacity:1;fill-rule:evenodd;stroke:#131313;stroke-width:4.329;stroke-linecap:round;stroke-linejoin:round;stroke-opacity:1"
         id="path3044-3"
         sodipodi:type="arc"
         sodipodi:cx="536.25671"
         sodipodi:cy="537.70111"
         sodipodi:rx="15.386029"
         sodipodi:ry="40.698528"
         sodipodi:start="1.2350639"
         sodipodi:end="1.2328884"
         sodipodi:arc-type="arc"
         d="m 541.32581,576.12741 a 15.386029,40.698528 0 0 1 -19.59335,-24.99683 15.386029,40.698528 0 0 1 9.43936,-51.84116 15.386029,40.698528 0 0 1 19.60362,24.94044 15.386029,40.698528 0 0 1 -9.41804,51.86829"
         sodipodi:open="true"
         transform="rotate(5.3858654)" />
      <path
         style="fill:none;fill-rule:evenodd;stroke:#000000;stroke-width:4.329;stroke-linecap:round;stroke-linejoin:round"
         d="m 755.40441,72.463235 h 24.31986 l 26.30514,0.992647 30.27574,2.481618 35.23897,6.452206 28.78676,7.444853 30.27574,9.430147 25.80882,10.422794 32.75736,14.88971 29.7794,16.875 29.2831,18.86029 27.2978,20.84559 27.7941,23.82353 27.7941,28.29044 14.3934,17.86765 16.3787,21.83823 18.364,25.3125 15.386,27.2978 16.3787,32.26103 10.4228,22.83088 5.9558,15.88235 8.4375,26.30515 7.9412,30.27573 6.9485,30.77206 2.978,25.80883 2.4816,27.79411 0.4963,29.77941 -0.9926,27.79412 -1.9853,24.31986 -3.9706,27.29779 -3.9706,18.36397 -8.4375,33.25368 -8.9338,28.78676 -10.4228,27.79412 -10.4228,22.83088 -13.8971,26.80147 -16.875,27.2978 -17.8676,25.80882 -19.853,25.3125 -26.8014,28.29044 -26.3052,26.30515 -25.3125,19.35662 -26.8014,19.85294 -25.3125,15.38603 -26.30519,13.89706 -27.29779,11.9118 -35.7353,12.408 -43.18014,13.4008 -33.25368,5.4595 -30.77206,4.467 -33.25367,2.9779 -15.38603,-2.9779 -6.94853,2.4816 -31.76471,-2.978 -52.61029,-5.9559 -34.24633,-7.9411 -27.29779,-9.4302 -35.7353,-13.4007 -34.74264,-14.8897 -30.27574,-17.37134 -27.29779,-17.37132 -21.34191,-15.38603 -27.2978,-23.82353 L 405.99265,899.33824 375.22059,862.6103 349.41177,826.875 337.5,804.54044 l -16.875,-33.75 -12.90441,-29.77941 -11.41544,-35.23897 -6.45221,-24.81618 -6.94853,-27.79411 -5.45956,-42.1875 -2.48161,-32.75736 v -32.75735 l 2.48161,-29.77941 4.46692,-36.72794 6.94852,-30.27574 6.45221,-23.3272 9.43015,-29.28309 11.41544,-29.28309 10.42279,-23.32721 10.4228,-20.34926 15.88235,-25.80883 15.88235,-22.83088 20.34927,-25.80882 16.875,-19.35662 24.81617,-26.30515 29.77942,-25.3125 21.83823,-15.88235 25.80882,-17.37132 25.80883,-14.88971 26.80147,-12.90441 29.28309,-12.40809 29.28309,-9.926469 33.75,-9.430147 20.84558,-3.970589 22.83089,-3.474264 22.83088,-2.977942 16.37867,-1.985294 h 11.41545 z"
         id="path2088" />
      <path
         style="fill:none;fill-rule:evenodd;stroke:#000000;stroke-width:4.329;stroke-linecap:round;stroke-linejoin:round"
         d="m 748.45588,388.62132 16.875,-0.49632 25.80883,1.98529 31.7647,4.96324 25.80883,6.94853 26.80147,8.93382 25.3125,11.41544 24.31985,12.40809 21.83824,12.90441 21.34191,11.41545 5.45956,4.96323 3.97058,12.90441 4.96324,35.7353 4.96323,51.61764 1.48898,25.80883 2.48161,33.25367 2.48162,38.21692 1.48897,21.83823 1.9853,23.82353 v 17.37132 l -0.99265,18.8603 -1.9853,8.93382 -7.94117,3.47427 h -15.88236 -19.85294 l -21.34191,2.48161 -18.36397,5.45956 -23.3272,10.91912 -20.34927,7.44485 -22.83088,6.45221 -25.3125,6.4522 -23.32721,2.97795 -32.26103,1.48897 -32.26103,0.99264 -36.72794,-2.97794 -29.28309,-5.95588 -16.875,-3.97059 -15.38603,-4.46691 -22.33455,-7.94118 -13.40074,-2.48161 -10.91912,-1.9853 -10.91912,-0.49632 -20.34926,-0.99265 h -19.35662 -8.93382 l -1.9853,-2.97794 -2.97794,-7.44485 -5.95588,-7.94118 -3.47426,-7.44485 -0.49633,-14.39338 -0.49632,-83.38236 2.48162,-72.95956 2.48161,-43.67647 3.97059,-21.83823 5.45956,-15.88236 3.97059,-5.95588 10.91912,-8.4375 19.85294,-16.37867 22.33456,-15.88236 21.34191,-14.8897 22.33456,-11.41544 26.30515,-10.91912 25.3125,-8.4375 28.78676,-6.94853 22.33456,-2.97794 z"
         id="path2090" />
      <path
         style="fill:none;fill-rule:evenodd;stroke:#000000;stroke-width:4.329;stroke-linecap:round;stroke-linejoin:round"
         d="m 979.16092,478.70089 65.62838,22.11009 2.4566,6.31717 2.8077,15.44196 3.8605,32.98965 4.9133,34.04251 2.8076,24.21581 1.0529,10.17766 1.9261,24.69911 2.4816,23.32721 2.2334,28.78676 1.7372,18.36398 0.2481,13.40073 -0.9926,13.15257 -2.9779,8.18934 -3.2262,2.48162 -66.5073,-11.16728 1.73713,-16.13051 -0.24816,-29.28309 -6.94853,-92.8125 -7.44486,-87.84927 -4.96323,-32.26103 z"
         id="path2092" />
      <path
         style="fill:none;fill-rule:evenodd;stroke:#000000;stroke-width:4.329;stroke-linecap:round;stroke-linejoin:round"
         d="m 520.64338,502.77574 -2.48161,20.34926 -4.46692,59.0625 -1.98529,57.07721 v 83.87867 l -0.49632,19.35662 6.94853,12.40809 4.46691,5.95588 -56.58089,10.91912 -6.4522,-0.49632 -4.96324,-8.93383 -2.97794,-10.91912 -1.98529,-27.79411 0.99265,-77.9228 8.4375,-101.25 2.97794,-10.91912 2.97794,-4.96323 4.96323,-3.47427 z"
         id="path2094" />
      <path
         style="fill:none;fill-rule:evenodd;stroke:#000000;stroke-width:4.329;stroke-linecap:round;stroke-linejoin:round"
         d="m 466.76847,527.48346 -2.45668,-5.61526 -7.37003,-2.45667 -7.72098,1.40381 -17.54769,6.66812 -17.54768,2.80763 -16.84578,0.70191 -15.09101,-2.80763 -7.01908,-5.96621 -6.66812,-9.47575 -1.75477,-8.77385 1.75477,-12.28338 4.5624,-20.70627 8.77384,-32.6387 11.93243,-31.58583 14.74006,-33.69156 9.12479,-16.14387 13.6872,-20.35532 14.3891,-19.65341 20.00436,-24.21581 29.12916,-29.48011 20.35532,-16.49483 19.30246,-14.03814 25.84673,-16.28527 27.79411,-14.39338 28.78677,-11.91177 35.23897,-13.40073 36.72794,-8.4375 47.15073,-4.46692 33.25368,-1.48897 28.29044,1.9853 49.63236,6.94853 51.61764,14.39338 40.69853,17.86765 32.75736,18.86029 29.7794,20.34927 19.8529,15.88235 24.8162,22.33456 18.8603,19.85294 17.8677,23.32721 17.3713,26.30514 12.9044,21.83824 9.9265,21.83823 9.4301,24.31986 9.4302,22.33455 3.4742,13.40074 3.4743,13.40074 -0.9927,10.42279 -4.4669,5.45956 -7.4448,6.4522 -11.9118,4.96324 -16.875,1.48897 -13.4007,-0.49632 -13.8971,-2.48162 -16.3787,-2.48162 -8.4375,-0.99265 -7.4448,-1.98529 -4.9632,2.97794 -1.9853,6.45221 3.9706,3.97059 4.4669,10.42279 5.4595,39.70588 14.5232,133.64625 2.4567,33.3406 0.3509,20.35532 -2.4567,12.28338 -4.9133,5.96621 2.1057,6.66812 6.3172,9.1248 4.2114,9.1248 0.7019,8.42289 0.351,9.8267 -2.4567,11.23052 -8.4229,11.23052 -7.37,8.42289 -8.7739,10.17766 -17.5476,17.54769 -16.8458,14.03815 -19.30248,16.49482 -22.46104,13.6872 -27.37439,15.44196 -16.14387,7.72098 -16.84578,8.07194 -21.05723,8.07194 -17.89864,6.31716 -25.26867,6.66812 -20.35531,3.86049 -24.56676,3.8605 -23.16295,1.75476 -20.35532,0.70191 -20.35531,-0.70191 -26.32153,-2.45667 -23.5139,-2.80763 -23.86486,-5.26431 -25.26867,-6.31717 -18.60054,-6.66812 -18.60055,-7.72098 -20.70627,-8.42289 -20.00436,-10.17766 -20.35532,-12.28338 -15.79292,-11.58147 -16.84578,-12.28338 -11.58147,-9.1248 -16.14387,-14.3891 -12.98529,-11.58147 -11.23052,-11.93243 -5.26431,-7.37003 -3.50953,-8.77384 -2.10573,-7.72098 1.05286,-10.17766 4.91336,-8.77385 6.66812,-8.77384 2.45667,-7.37003 -3.50953,-2.10572 -5.26431,-6.31717 -3.86049,-15.09101 -2.80763,-22.81199 1.40381,-66.33026 -0.35095,-21.75913 3.86049,-33.3406 2.80763,-38.25396 1.75477,-22.46104 2.80763,-9.47575 z"
         id="path2096" />
      <path
         style="fill:#626262;fill-opacity:1;fill-rule:evenodd;stroke:#131313;stroke-width:4.09595;stroke-linecap:round;stroke-linejoin:round;stroke-opacity:1"
         id="path2990"
         sodipodi:type="arc"
         sodipodi:cx="744.48535"
         sodipodi:cy="593.60291"
         sodipodi:rx="146.03731"
         sodipodi:ry="145.04514"
         sodipodi:start="1.2350639"
         sodipodi:end="1.2328884"
         sodipodi:open="true"
         sodipodi:arc-type="arc"
         d="M 792.59892,730.55006 A 146.03731,145.04514 0 0 1 606.6276,641.46407 146.03731,145.04514 0 0 1 696.22183,456.70781 146.03731,145.04514 0 0 1 882.2906,545.59284 146.03731,145.04514 0 0 1 792.89877,730.44578" />
      <path
         style="fill:#121212;fill-opacity:1;fill-rule:evenodd;stroke:#131313;stroke-width:5.05135;stroke-linecap:round;stroke-linejoin:round;stroke-opacity:1"
         id="path2936"
         sodipodi:type="arc"
         sodipodi:cx="742.00366"
         sodipodi:cy="592.61035"
         sodipodi:rx="113.29293"
         sodipodi:ry="110.81216"
         sodipodi:start="1.2350639"
         sodipodi:end="1.2328884"
         sodipodi:open="true"
         sodipodi:arc-type="arc"
         d="M 779.32924,697.23578 A 113.29293,110.81216 0 0 1 635.05628,629.17551 113.29293,110.81216 0 0 1 704.56175,488.02469 113.29293,110.81216 0 0 1 848.91032,555.93143 113.29293,110.81216 0 0 1 779.56186,697.15611" />
      <path
         style="fill:#626262;fill-opacity:1;fill-rule:evenodd;stroke:#131313;stroke-width:4.329;stroke-linecap:round;stroke-linejoin:round;stroke-opacity:1"
         id="path3044"
         sodipodi:type="arc"
         sodipodi:cx="914.06329"
         sodipodi:cy="724.84985"
         sodipodi:rx="15.386029"
         sodipodi:ry="40.698528"
         sodipodi:start="1.2350639"
         sodipodi:end="1.2328884"
         sodipodi:arc-type="arc"
         d="m 919.13239,763.27615 a 15.386029,40.698528 0 0 1 -19.59335,-24.99683 15.386029,40.698528 0 0 1 9.43936,-51.84116 15.386029,40.698528 0 0 1 19.60362,24.94044 15.386029,40.698528 0 0 1 -9.41804,51.86829"
         sodipodi:open="true"
         transform="rotate(-9.6793593)" />
      <path
         style="fill:#1d1d1d;fill-opacity:1;fill-rule:evenodd;stroke:#131313;stroke-width:8.59434;stroke-linecap:round;stroke-linejoin:round;stroke-opacity:1"
         d="m 746.47059,1051.9312 c -2.18383,-0.2671 -18.7114,-1.9829 -36.72794,-3.8129 -42.29614,-4.2962 -66.56181,-10.0663 -108.63679,-25.8326 -42.94633,-16.0928 -57.84025,-22.91167 -83.81179,-38.37163 C 457.07276,948.06639 409.29632,903.62649 364.13388,841.45004 348.33642,819.70122 318.92519,761.95388 308.68212,732.57353 275.58968,637.654 269.73731,539.83046 291.87592,451.65441 c 23.41303,-93.25196 57.38638,-155.60822 124.0432,-227.67459 35.89373,-38.8067 82.5896,-72.9408 134.00735,-97.95769 50.30479,-24.47539 93.31194,-37.577696 149.88971,-45.664505 27.44047,-3.922138 36.25306,-4.287806 81.39706,-3.377467 57.0289,1.15 73.75784,3.536542 121.26867,17.300122 77.59766,22.47955 153.39399,67.6445 209.93549,125.09472 10.209,10.37316 29.5735,33.45912 43.0321,51.30213 20.5726,27.2744 27.6319,38.65846 44.3195,71.47058 21.8687,42.99965 30.5924,66.74817 42.0487,114.46994 9.9402,41.40624 12.729,71.58039 11.3319,122.61089 -1.2004,43.84325 -3.8105,62.86213 -14.1459,103.07349 -22.4705,87.42445 -60.1048,154.65648 -124.6608,222.70061 -38.5829,40.6676 -84.2252,74.17815 -132.61496,97.36576 -63.41768,30.3888 -138.48433,48.798 -202.5,49.6605 -15.83272,0.2134 -30.57353,0.1694 -32.75735,-0.098 z m 86.18559,-89.9236 c 27.96606,-5.26768 43.12783,-9.44847 68.66735,-18.93476 20.68752,-7.68409 61.46862,-28.09128 85.36765,-42.71871 23.80592,-14.57041 69.60032,-56.66131 87.12992,-80.08341 6.7675,-9.04228 7.1715,-10.43155 7.1715,-24.65564 0,-13.15147 -0.776,-16.44856 -6.0865,-25.85816 -6.0362,-10.69566 -6.0585,-10.8436 -2.7031,-17.9147 4.7598,-10.03062 3.0434,-47.63483 -5.9089,-129.45251 -9.5969,-87.70897 -12.9304,-110.81195 -17.3152,-120.00317 -2.0555,-4.30871 -3.0538,-8.51757 -2.2183,-9.35298 0.8354,-0.83543 12.6762,0.30883 26.313,2.5428 27.7065,4.53888 51.07,4.1668 61.0065,-0.97154 11.159,-5.77053 18.3831,-14.71478 18.3831,-22.76019 0,-13.42954 -15.6324,-57.92127 -34.0883,-97.01943 -8.2885,-17.55888 -38.6541,-62.58068 -53.6358,-79.5236 C 1028.504,254.32304 970.75268,212.93602 919.19118,190.99578 874.78231,172.09911 813.84825,159.81074 764.60353,159.8206 c -29.11172,0.006 -75.3387,4.75981 -97.52807,10.02977 -32.88562,7.81032 -90.34311,32.35666 -122.00758,52.12272 -45.68908,28.52069 -87.95729,70.2227 -121.38205,119.75604 -20.78253,30.79839 -40.86286,78.29274 -52.22667,123.52746 -9.18828,36.57486 -9.28054,44.85002 -0.62652,56.1962 5.3707,7.04146 8.28089,8.94718 16.37868,10.72547 13.04441,2.86456 40.79372,0.3264 54.19897,-4.95746 10.81578,-4.26318 20.17059,-5.35446 20.17059,-2.35295 0,0.95856 -1.26737,4.77608 -2.81637,8.48338 -6.33251,15.15581 -14.85921,172.04235 -11.27322,207.42115 1.12209,11.07037 3.36378,20.0357 6.69053,26.75785 l 5.00304,10.1093 -5.92697,9.53451 c -7.46411,12.00724 -8.00474,23.49979 -1.71653,36.48949 9.6586,19.95199 77.19831,75.42466 117.21146,96.26975 43.98198,22.91268 94.98834,39.21591 140.96366,45.05641 31.28959,3.97489 94.09274,2.4515 122.9397,-2.98209 z"
         id="path3137" />
      <path
         style="fill:#1d1d1d;fill-opacity:1;fill-rule:evenodd;stroke:#131313;stroke-width:8.59434;stroke-linecap:round;stroke-linejoin:round;stroke-opacity:1"
         d="m 702.79412,795.02258 c -20.02105,-2.20979 -50.5566,-9.22397 -73.45588,-16.87317 -25.19479,-8.416 -36.75117,-10.31591 -72.95956,-11.99477 -19.37202,-0.89823 -29.29532,-2.10733 -29.31922,-3.57238 -0.0199,-1.21803 -2.79752,-6.23483 -6.17255,-11.14844 l -6.13643,-8.93382 1.11653,-85.36765 c 1.1711,-89.5396 4.47673,-139.56467 10.33635,-156.42278 2.69894,-7.76487 6.27356,-12.00024 19.47038,-23.06944 43.14921,-36.19258 79.58633,-57.32561 123.43701,-71.59177 32.80318,-10.67203 53.34175,-13.95277 87.34908,-13.95277 63.08308,0 113.24974,15.19762 185.2775,56.12844 19.21727,10.9205 29.07002,17.69063 30.24564,20.78274 10.09593,26.55433 26.80536,274.00164 19.0261,281.75446 -0.9009,0.89783 -15.64171,2.20314 -32.75735,2.90069 -33.46664,1.36394 -32.25702,1.0635 -73.80319,18.33169 -27.69799,11.51236 -66.66659,20.7524 -97.27941,23.06642 -30.0733,2.27324 -63.5747,2.25837 -84.375,-0.0375 z m 72.05061,-56.65247 c 29.83911,-6.11756 54.87168,-19.84879 76.49094,-41.95794 28.07166,-28.70773 41.41341,-61.82879 41.41341,-102.80923 0,-72.22403 -48.09647,-130.65185 -119.39584,-145.04266 -19.59887,-3.95576 -49.32076,-3.03401 -68.57383,2.12664 -49.84291,13.36007 -91.10563,55.07648 -104.4702,105.61886 -5.61964,21.25244 -5.61964,53.34187 0,74.59433 20.19595,76.3774 96.63054,123.44189 174.53552,107.47 z"
         id="path3760" />
      <path
         style="fill:#b0b0b0;fill-opacity:1;fill-rule:evenodd;stroke:none;stroke-width:8.59434;stroke-linecap:round;stroke-linejoin:round;stroke-opacity:1"
         d="m 1030.864,747.80153 -29.2831,-5.05799 v -27.11001 c 0,-35.71239 -9.98554,-165.17328 -17.10253,-221.73164 l -1.30399,-10.36282 29.93622,10.00186 29.9362,10.00186 1.9693,10.28743 c 7.4104,38.70916 22.0315,178.15695 22.428,213.90517 0.1731,15.61217 -2.2576,26.11771 -5.8779,25.40394 -0.7805,-0.1539 -14.5965,-2.55591 -30.7022,-5.3378 z m 5.0394,-146.7858 c 4.6915,-5.18411 7.8226,-21.77797 6.4558,-34.21426 -3.7206,-33.85207 -20.2805,-57.93481 -31.869,-46.34634 -5.116,5.116 -6.924,11.7832 -6.924,25.53228 0,36.96501 19.1669,69.58136 32.3372,55.02832 z"
         id="path3762" />
      <path
         style="fill:#b0b0b0;fill-opacity:1;fill-rule:evenodd;stroke:none;stroke-width:8.59434;stroke-linecap:round;stroke-linejoin:round;stroke-opacity:1"
         d="m 460.93341,764.99025 c -1.61058,-2.54243 -3.91054,-9.35683 -5.11102,-15.14311 -3.59058,-17.30653 -2.63369,-97.61877 1.79278,-150.46951 4.92826,-58.84199 5.34824,-61.5035 10.6118,-67.25022 4.00633,-4.37409 46.16319,-24.36681 47.82645,-22.6815 0.4205,0.42607 -0.003,5.24159 -0.94169,10.70115 -3.15064,18.32964 -5.81798,86.79737 -6.08807,156.2741 -0.25438,65.43574 -0.0687,69.2588 3.67127,75.59761 l 3.9392,6.67647 -24.05236,4.60052 c -13.22879,2.53027 -25.10258,4.98674 -26.38619,5.4588 -1.28361,0.47207 -3.65159,-1.22187 -5.26217,-3.76431 z m 33.40483,-149.54907 c 5.66804,-11.3361 5.95588,-13.1153 5.95588,-36.81526 0,-20.68988 -0.60808,-25.83153 -3.59388,-30.38844 -3.01853,-4.60686 -4.76661,-5.38746 -10.91912,-4.87593 -6.77575,0.56335 -7.772,1.50257 -13.28112,12.5208 -5.66805,11.3361 -5.95588,13.1153 -5.95588,36.81526 0,20.68988 0.60807,25.83152 3.59388,30.38844 3.01853,4.60686 4.7666,5.38746 10.91912,4.87593 6.77575,-0.56335 7.772,-1.50257 13.28112,-12.5208 z"
         id="path6317" />
    </g>
  </g>
</svg>
