<?xml version="1.0" encoding="UTF-8" standalone="no"?>
<!-- Created with Inkscape (http://www.inkscape.org/) -->

<svg
   version="1.1"
   id="svg1805"
   width="307"
   height="177"
   viewBox="0 0 307 177"
   sodipodi:docname="carOneRight.svg"
   inkscape:version="1.2.1 (9c6d41e4, 2022-07-14)"
   xmlns:inkscape="http://www.inkscape.org/namespaces/inkscape"
   xmlns:sodipodi="http://sodipodi.sourceforge.net/DTD/sodipodi-0.dtd"
   xmlns="http://www.w3.org/2000/svg"
   xmlns:svg="http://www.w3.org/2000/svg">
  <defs
     id="defs1809" />
  <sodipodi:namedview
     id="namedview1807"
     pagecolor="#ffffff"
     bordercolor="#000000"
     borderopacity="0.25"
     inkscape:showpageshadow="2"
     inkscape:pageopacity="0.0"
     inkscape:pagecheckerboard="0"
     inkscape:deskcolor="#d1d1d1"
     showgrid="false"
     inkscape:zoom="2.1459759"
     inkscape:cx="148.88331"
     inkscape:cy="79.218038"
     inkscape:window-width="1440"
     inkscape:window-height="764"
     inkscape:window-x="0"
     inkscape:window-y="25"
     inkscape:window-maximized="0"
     inkscape:current-layer="g1811" />
  <g
     inkscape:groupmode="layer"
     inkscape:label="Image"
     id="g1811">
    <path
       style="fill:#f5f906;fill-opacity:1;stroke:#000000;stroke-width:0.369102;stroke-linecap:round;stroke-linejoin:round;stroke-dasharray:none;stroke-opacity:1"
       d=""
       id="path40248" />
    <path
       style="fill:#f5f906;fill-opacity:1;stroke:#000000;stroke-width:0.369102;stroke-linecap:round;stroke-linejoin:round;stroke-dasharray:none;stroke-opacity:1"
       d=""
       id="path40250" />
    <path
       style="fill:#f5f906;fill-opacity:1;stroke:#000000;stroke-width:0.369102;stroke-linecap:round;stroke-linejoin:round;stroke-dasharray:none;stroke-opacity:1"
       d=""
       id="path40252" />
    <path
       style="fill:#f5f906;fill-opacity:1;stroke:#000000;stroke-width:0.122116;stroke-linecap:round;stroke-linejoin:round;stroke-dasharray:none;stroke-opacity:1"
       d=""
       id="path53776" />
    <g
       id="g533"
       transform="matrix(1.0000045,0,0,0.99155388,-56.566224,-66.84266)">
      <g
         id="g56696"
         transform="matrix(-1,0,0,1,458.34163,-13.047677)">
        <ellipse
           style="fill:none;fill-opacity:1;stroke:#000000;stroke-width:1.08814;stroke-linecap:round;stroke-linejoin:round;stroke-dasharray:none;stroke-opacity:1"
           id="path17133-4"
           cx="354.97107"
           cy="151.92926"
           rx="3.8484111"
           ry="4.7636809"
           transform="matrix(0.95366136,0.30088204,-0.45741046,0.88925568,0,0)" />
        <path
           style="fill:none;stroke:#000000;stroke-width:1.01914;stroke-linecap:round;stroke-linejoin:round;stroke-dasharray:none;stroke-opacity:1"
           d="m 242.44897,232.90923 -41.6491,0.93071 -23.73301,-8.37636 -7.67833,-23.26765 -4.8862,-16.98539 0.69803,-1.62874 c 0,0 -2.32434,-6.45578 -5.6314,-8.47066 -1.3972,-0.85127 -3.48465,-1.30945 -4.88621,-0.46536 -3.30669,1.99145 -4.00088,6.86598 -4.42085,10.70313 -0.48832,4.46173 1.67589,11.96081 1.67589,11.96081 l -0.46535,6.74762 -0.23268,8.60903 -23.50033,-17.21806 c 0,0 -2.55734,6.23857 -5.28057,8.21467 -2.28152,1.65558 -4.70175,2.1738 -7.51664,2.0231 -2.55461,-0.13677 -5.32279,-0.43376 -7.44565,-1.86142 -3.26964,-2.19889 -5.71643,-5.76733 -7.553441,-9.25317 -2.069929,-3.92782 -3.71631,-8.18092 -4.420852,-12.56453 -0.627801,-3.90613 0.11962,-8.25677 0.805817,-12.15307 0.582811,-3.30926 1.687135,-6.56907 3.257472,-9.53974 0.906154,-1.7142 2.948034,-2.79189 3.490144,-4.65353 0.84819,-2.91275 -0.69803,-9.07439 -0.69803,-9.07439 l 1.86142,-2.09409 0.23267,-8.60903 3.0248,-7.911 3.72282,-2.32677 -0.9307,-1.39606 c 0,0 -0.23977,-6.4055 0,-8.60903 0.13888,-1.2763 2.20667,-1.65865 3.49015,-1.62874 3.77355,0.0879 16.28736,-0.23267 16.28736,-0.23267 l 1.62873,0.9307 10.23777,-13.02988 c 0,0 10.2945,-10.188946 15.12398,-14.595755 2.57496,-2.349602 6.36495,-2.987806 9.77241,-3.722825 5.31692,-1.146905 16.28736,-0.993579 16.28736,-0.993579 l 42.81249,-1.396059 33.27274,0.232676 11.86651,0.465353 c 0,0 28.72537,1.474108 40.25304,5.118885 2.49577,0.789105 23.03498,14.891304 23.03498,14.891304 l 33.97078,22.8023 16.75271,2.32676 2.09409,3.9555 -1.39606,6.51495 c 0,0 2.53712,-0.009 3.49015,0.69803 0.58379,0.43282 4.42085,9.53974 4.42085,9.53974 l 4.18818,18.14877 -2.55944,12.56453 -2.09409,7.91101 c 0,0 6.38282,1.85911 7.87356,3.06987 0.6154,0.49982 -0.61283,2.29811 -0.61283,2.29811 l -0.45962,8.42641 -1.68528,3.21736 -7.20075,11.03093 0.30642,0.91924 -1.9917,3.37056 0.76604,5.97509 -112.14781,7.04754 -1.22566,-6.58791 -34.31846,1.68528 z"
           id="path2336"
           sodipodi:nodetypes="ccccccsssccccssssssssccccccsscccssccccscccccsccccsccccccccccc" />
        <path
           style="fill:none;stroke:#000000;stroke-width:1.01914;stroke-linecap:round;stroke-linejoin:round;stroke-dasharray:none;stroke-opacity:1"
           d="m 193.50093,231.03674 c 0,0 0.26606,5.344 -0.15321,7.96678 -0.85169,5.32783 -0.50598,12.14164 -4.74943,15.47395 -6.87995,5.40271 -18.02229,4.64225 -26.19846,1.53207 -2.43013,-0.92441 -4.14855,-3.30376 -5.51546,-5.51546 -1.95276,-3.15964 -2.71873,-6.94522 -3.52377,-10.57131 -1.34823,-6.07272 -2.14491,-18.53809 -2.14491,-18.53809 l -0.30641,-8.88603"
           id="path2824"
           sodipodi:nodetypes="cssssscc" />
        <path
           style="fill:none;stroke:#000000;stroke-width:1.01914;stroke-linecap:round;stroke-linejoin:round;stroke-dasharray:none;stroke-opacity:1"
           d="m 151.82852,196.56508 c 0,0 1.53681,-5.79152 2.91094,-8.42641 0.96359,-1.84768 2.10273,-3.6905 3.67698,-5.05584 0.74211,-0.64363 2.60452,-1.37887 2.60452,-1.37887 l 2.91094,-0.15321"
           id="path2826"
           sodipodi:nodetypes="csscc" />
        <ellipse
           style="fill:none;stroke:#000000;stroke-width:1.08265;stroke-linecap:round;stroke-linejoin:round;stroke-dasharray:none;stroke-opacity:1"
           id="path2880"
           cx="158.79945"
           cy="219.00995"
           rx="4.9466496"
           ry="26.08927" />
        <path
           style="fill:none;stroke:#000000;stroke-width:1.01914;stroke-linecap:round;stroke-linejoin:round;stroke-dasharray:none;stroke-opacity:1"
           d="m 165.5391,183.76359 31.89285,10.63095 196.13021,-8.24441"
           id="path2936" />
        <path
           style="fill:none;stroke:#000000;stroke-width:1.01914;stroke-linecap:round;stroke-linejoin:round;stroke-dasharray:none;stroke-opacity:1"
           d="m 400.50482,189.83842 -2.82046,1.5187 -196.56412,8.67833 -8.02745,-2.60349 v 12.80053 l 2.16958,1.73566 1.51871,9.3292 8.46137,2.82046 185.93317,-9.3292"
           id="path2938"
           sodipodi:nodetypes="ccccccccc" />
        <path
           style="fill:none;stroke:#000000;stroke-width:1.01914;stroke-linecap:round;stroke-linejoin:round;stroke-dasharray:none;stroke-opacity:1"
           d="m 209.58161,202.85591 17.35666,-0.65088 -0.21696,5.85787 -18.00753,0.86784 z"
           id="path2940" />
        <path
           style="fill:none;stroke:#000000;stroke-width:1.01914;stroke-linecap:round;stroke-linejoin:round;stroke-dasharray:none;stroke-opacity:1"
           d="m 381.19554,195.69629 15.40403,-0.65088 -0.43391,4.77308 -15.83795,1.08479 z"
           id="path2942" />
        <path
           style="fill:none;stroke:#000000;stroke-width:1.01914;stroke-linecap:round;stroke-linejoin:round;stroke-dasharray:none;stroke-opacity:1"
           d="m 398.11828,203.28982 -195.69629,9.32921 -9.54616,-2.82046 -23.43148,-7.37658"
           id="path2944"
           sodipodi:nodetypes="cccc" />
        <path
           style="fill:none;stroke:#000000;stroke-width:1.01914;stroke-linecap:round;stroke-linejoin:round;stroke-dasharray:none;stroke-opacity:1"
           d="m 193.09279,197.43195 -27.98761,-9.76312"
           id="path3042"
           sodipodi:nodetypes="cc" />
        <path
           style="fill:none;stroke:#000000;stroke-width:1.02005;stroke-linecap:round;stroke-linejoin:round;stroke-dasharray:none;stroke-opacity:1"
           d="m 194.6115,170.09522 6.07483,-18.00753 18.00753,0.43392 1.5187,19.09232 0.65088,14.97011 -22.78061,-0.21695 -3.90525,-1.51871 z"
           id="path3044" />
        <path
           style="fill:none;stroke:#000000;stroke-width:1.01914;stroke-linecap:round;stroke-linejoin:round;stroke-dasharray:none;stroke-opacity:1"
           d="m 219.99561,172.2648 -21.26191,-0.21695 -4.33916,-1.95263"
           id="path3046"
           sodipodi:nodetypes="ccc" />
        <path
           style="fill:none;stroke:#000000;stroke-width:0.651799;stroke-linecap:round;stroke-linejoin:round;stroke-dasharray:none;stroke-opacity:1"
           d="m 205.24245,164.45431 11.28182,-0.21696 0.43392,7.59354 -12.36662,-0.43392 z"
           id="path3048" />
        <path
           style="fill:none;stroke:#000000;stroke-width:0.651799;stroke-linecap:round;stroke-linejoin:round;stroke-dasharray:none;stroke-opacity:1"
           d="m 205.02549,152.52161 -3.68829,11.06487 -1.73566,8.46137"
           id="path3374"
           sodipodi:nodetypes="ccc" />
        <path
           style="fill:#bfc658;fill-opacity:1;stroke:#000000;stroke-width:1.02005;stroke-linecap:round;stroke-linejoin:round;stroke-dasharray:none;stroke-opacity:1"
           d="M 199.38458,171.83089 198.7337,186.801"
           id="path3376" />
        <path
           style="fill:none;fill-opacity:1;stroke:#000000;stroke-width:1.02005;stroke-linecap:round;stroke-linejoin:round;stroke-dasharray:none;stroke-opacity:1"
           d="m 219.99561,173.78351 46.646,-1.08479 0.43392,-20.82798 -48.38167,0.65087"
           id="path3393"
           sodipodi:nodetypes="cccc" />
        <path
           style="fill:none;fill-opacity:1;stroke:#0b0b04;stroke-width:1.02005;stroke-linecap:round;stroke-linejoin:round;stroke-dasharray:none;stroke-opacity:1"
           d="m 341.27523,150.35203 41.22206,-1.08479 -2.6035,19.96015 -39.48639,0.65087 z"
           id="path8210" />
        <path
           style="fill:none;fill-opacity:1;stroke:#000000;stroke-width:1.02005;stroke-linecap:round;stroke-linejoin:round;stroke-dasharray:none;stroke-opacity:1"
           d="m 340.19044,169.66131 -3.68828,-1.30176 0.86783,-17.13969 4.55612,-1.08479"
           id="path8212"
           sodipodi:nodetypes="cccc" />
        <path
           style="fill:none;fill-opacity:1;stroke:#000000;stroke-width:1.02005;stroke-linecap:round;stroke-linejoin:round;stroke-dasharray:none;stroke-opacity:1"
           d="m 220.94117,185.78582 156.13217,-5.92748 2.38654,-10.41399 -158.8134,4.26955 z"
           id="path8214"
           sodipodi:nodetypes="ccccc" />
        <path
           style="fill:#ffffff;fill-opacity:1;stroke:#000000;stroke-width:0.651799;stroke-linecap:round;stroke-linejoin:round;stroke-dasharray:none;stroke-opacity:1"
           d="m 268.16032,169.01043 c 0,-1.51871 0.65088,-14.75316 0.65088,-14.75316 l 67.04008,-1.30175 -0.86783,14.97012 z"
           id="path8216" />
        <path
           style="fill:#bfc658;fill-opacity:1;stroke:#000000;stroke-width:1.02005;stroke-linecap:round;stroke-linejoin:round;stroke-dasharray:none;stroke-opacity:1"
           d="m 266.64162,151.87073 76.15233,-1.73566"
           id="path13210"
           sodipodi:nodetypes="cc" />
        <path
           style="fill:#bfc658;fill-opacity:1;stroke:#000000;stroke-width:1.02005;stroke-linecap:round;stroke-linejoin:round;stroke-dasharray:none;stroke-opacity:1"
           d="m 377.07334,179.85834 17.35665,-0.43392"
           id="path14640" />
        <path
           style="fill:#bfc658;fill-opacity:1;stroke:#000000;stroke-width:1.02005;stroke-linecap:round;stroke-linejoin:round;stroke-dasharray:none;stroke-opacity:1"
           d="m 382.06337,149.05028 11.71575,-0.65088"
           id="path14642" />
        <path
           style="fill:#bfc658;fill-opacity:1;stroke:#0a0903;stroke-width:1.02005;stroke-linecap:round;stroke-linejoin:round;stroke-dasharray:none;stroke-opacity:1"
           d="m 380.32771,166.40693 17.57361,-0.65087"
           id="path14644" />
        <path
           style="fill:none;fill-opacity:1;stroke:#000000;stroke-width:0.651798;stroke-linecap:round;stroke-linejoin:round;stroke-dasharray:none;stroke-opacity:1"
           d="m 384.23296,159.46427 9.3292,-0.21696 -0.21696,5.85787 -9.54616,0.21696 z"
           id="path14646" />
        <path
           style="fill:none;fill-opacity:1;stroke:#000000;stroke-width:1.02005;stroke-linecap:round;stroke-linejoin:round;stroke-dasharray:none;stroke-opacity:1"
           d="m 382.06337,148.83332 0.86784,-10.63095 3.03741,-0.65088"
           id="path14972" />
        <path
           style="fill:none;fill-opacity:1;stroke:#000000;stroke-width:1.02005;stroke-linecap:round;stroke-linejoin:round;stroke-dasharray:none;stroke-opacity:1"
           d="m 218.69386,152.30465 -1.08479,-10.19704 165.75605,-3.25437"
           id="path15754"
           sodipodi:nodetypes="ccc" />
        <path
           style="fill:none;fill-opacity:1;stroke:#000000;stroke-width:1.02005;stroke-linecap:round;stroke-linejoin:round;stroke-dasharray:none;stroke-opacity:1"
           d="m 220.64648,142.10761 3.90525,-8.24441 158.37948,-2.60349 -0.86784,7.37657"
           id="path15756" />
        <path
           style="fill:none;fill-opacity:1;stroke:#000000;stroke-width:1.02005;stroke-linecap:round;stroke-linejoin:round;stroke-dasharray:none;stroke-opacity:1"
           d="m 217.17515,142.32457 -3.25437,-1.08479 7.37657,-13.23445 160.54907,-1.73566"
           id="path15758" />
        <path
           style="fill:none;fill-opacity:1;stroke:#000000;stroke-width:1.02005;stroke-linecap:round;stroke-linejoin:round;stroke-dasharray:none;stroke-opacity:1"
           d="m 213.92078,141.23978 -2.82046,-13.66836 12.14966,0.21695"
           id="path15760" />
        <path
           style="fill:none;fill-opacity:1;stroke:#000000;stroke-width:1.02005;stroke-linecap:round;stroke-linejoin:round;stroke-dasharray:none;stroke-opacity:1"
           d="m 217.39211,142.10761 -11.49879,-0.21695 -5.20699,10.41399"
           id="path15762" />
        <path
           style="fill:none;fill-opacity:1;stroke:#000000;stroke-width:1.02005;stroke-linecap:round;stroke-linejoin:round;stroke-dasharray:none;stroke-opacity:1"
           d="m 210.23249,123.88313 c -2.6712,-0.22188 -6.29179,-33.411564 -6.29179,-33.411564 2.64602,-1.759181 61.39766,-1.737176 60.74829,-2.386541 0.074,0 42.29618,-1.053886 45.34426,1.30175 11.93868,9.226533 45.99514,32.760685 45.99514,32.760685 0,0 -133.1486,2.78618 -145.7959,1.73567 z"
           id="path17069"
           sodipodi:nodetypes="sscscs" />
        <path
           style="fill:none;fill-opacity:1;stroke:#000000;stroke-width:1.02005;stroke-linecap:round;stroke-linejoin:round;stroke-dasharray:none;stroke-opacity:1"
           d="m 205.89332,142.10761 c -2.5449,-18.29223 -6.88828,-35.98497 -6.29178,-55.324334 l 105.22472,-0.867833"
           id="path17071"
           sodipodi:nodetypes="ccc" />
        <path
           style="fill:none;fill-opacity:1;stroke:#000000;stroke-width:1.02005;stroke-linecap:round;stroke-linejoin:round;stroke-dasharray:none;stroke-opacity:1"
           d="M 199.81849,86.783276 168.57652,83.094987"
           id="path17073"
           sodipodi:nodetypes="cc" />
        <path
           style="fill:none;fill-opacity:1;stroke:#000000;stroke-width:1.02005;stroke-linecap:round;stroke-linejoin:round;stroke-dasharray:none;stroke-opacity:1"
           d="m 200.90328,148.83332 2.16959,-6.29179 -22.3467,-6.7257 -3.03741,5.85787 z"
           id="path17075"
           sodipodi:nodetypes="ccccc" />
        <path
           style="fill:none;fill-opacity:1;stroke:#000000;stroke-width:1.02005;stroke-linecap:round;stroke-linejoin:round;stroke-dasharray:none;stroke-opacity:1"
           d="m 369.4798,225.63652 c 0,0 -0.99862,7.41611 -2.82046,10.41398 -2.3993,3.94811 -3.37586,6.2674 -5.85787,7.37658 -3.18709,1.42428 -6.3058,2.7716 -9.76312,3.25438 -4.51745,0.63082 -10.27119,0.96625 -14.53619,-0.65088 -3.68213,-1.39612 -8.67833,-8.89528 -8.67833,-8.89528 v -8.67833"
           id="path17077"
           sodipodi:nodetypes="csssscc" />
        <path
           style="fill:none;fill-opacity:1;stroke:#000000;stroke-width:1.02005;stroke-linecap:round;stroke-linejoin:round;stroke-dasharray:none;stroke-opacity:1"
           d="m 327.60687,236.91834 c 0,0 -2.22493,2.25248 -3.68829,2.6035 -3.4101,0.81799 -38.61934,3.82017 -47.51384,4.55613 -1.55903,0.129 -5.04512,-8.23902 -2.82046,-11.49879 1.23381,-1.8079 5.207,-1.30175 5.207,-1.30175"
           id="path17079"
           sodipodi:nodetypes="csssc" />
        <ellipse
           style="fill:none;fill-opacity:1;stroke:#000000;stroke-width:1.08814;stroke-linecap:round;stroke-linejoin:round;stroke-dasharray:none;stroke-opacity:1"
           id="path17133"
           cx="346.32529"
           cy="156.19647"
           rx="3.8484111"
           ry="4.7636809"
           transform="matrix(0.95366136,0.30088204,-0.45741046,0.88925568,0,0)" />
        <path
           style="fill:none;fill-opacity:1;stroke:#000000;stroke-width:1.02005;stroke-linecap:round;stroke-linejoin:round;stroke-dasharray:none;stroke-opacity:1"
           d="m 255.14283,246.68146 -13.88532,-13.4514"
           id="path17157" />
        <path
           style="fill:none;fill-opacity:1;stroke:#000000;stroke-width:1.02005;stroke-linecap:round;stroke-linejoin:round;stroke-dasharray:none;stroke-opacity:1"
           d="M 261.21766,238.87097 246.24755,226.50435"
           id="path17159" />
        <path
           style="fill:none;fill-opacity:1;stroke:#090904;stroke-width:1.02005;stroke-linecap:round;stroke-linejoin:round;stroke-dasharray:none;stroke-opacity:1"
           d="M 272.28253,238.22009 255.79371,225.85348"
           id="path17161" />
        <path
           style="fill:none;fill-opacity:1;stroke:#000000;stroke-width:1.02005;stroke-linecap:round;stroke-linejoin:round;stroke-dasharray:none;stroke-opacity:1"
           d="m 194.39454,170.52914 -55.5413,-21.04495 c 0,0 2.36361,3.98723 4.12221,5.42396 5.16009,4.21566 11.78172,6.30397 18.00753,8.67833 7.10054,2.70795 14.42047,5.02052 21.91277,6.29178 3.78497,0.64222 11.49879,0.65088 11.49879,0.65088 z"
           id="path17163"
           sodipodi:nodetypes="ccsssc" />
        <path
           style="fill:none;fill-opacity:1;stroke:#000000;stroke-width:1.02005;stroke-linecap:round;stroke-linejoin:round;stroke-dasharray:none;stroke-opacity:1"
           d="m 179.20747,135.16495 4.55612,-21.47886 3.68829,-13.66836 4.33916,-10.197039 c 0,0 -30.29666,-4.124323 -32.54373,-2.38654 -5.8122,4.494884 -28.20456,28.638479 -28.20456,28.638479 l -3.90525,10.414 49.46647,13.88532 z"
           id="path17165"
           sodipodi:nodetypes="ccccscccc" />
        <path
           style="fill:none;fill-opacity:1;stroke:#000000;stroke-width:1.02005;stroke-linecap:round;stroke-linejoin:round;stroke-dasharray:none;stroke-opacity:1"
           d="m 149.91811,132.99537 4.33916,-10.63095 c 0,0 3.05201,-6.9468 4.99004,-10.19704 2.23027,-3.74035 5.04026,-7.10319 7.59354,-10.63095 2.36615,-3.269223 7.15962,-9.763115 7.15962,-9.763115 l 15.83795,3.037414"
           id="path17167"
           sodipodi:nodetypes="ccsscc" />
        <path
           style="fill:none;fill-opacity:1;stroke:#000000;stroke-width:1.02005;stroke-linecap:round;stroke-linejoin:round;stroke-dasharray:none;stroke-opacity:1"
           d="m 146.44678,132.12754 c 0,0 5.55767,-11.83391 8.67833,-17.57362 1.88985,-3.47593 3.86649,-6.91421 6.07483,-10.19703 2.27664,-3.38435 7.37657,-9.763119 7.37657,-9.763119 l 3.03742,-3.688289 -14.75316,-0.650875"
           id="path17169"
           sodipodi:nodetypes="cssccc" />
        <path
           style="fill:none;fill-opacity:1;stroke:#000000;stroke-width:1.02005;stroke-linecap:round;stroke-linejoin:round;stroke-dasharray:none;stroke-opacity:1"
           d="m 127.35446,126.48663 -16.48882,-0.86784"
           id="path17171" />
        <path
           style="fill:none;fill-opacity:1;stroke:#000000;stroke-width:1.02005;stroke-linecap:round;stroke-linejoin:round;stroke-dasharray:none;stroke-opacity:1"
           d="m 147.09765,132.3445 c 0,0 -2.73414,2.3901 -3.68829,3.90524 -1.61031,2.55708 -3.25437,8.46137 -3.25437,8.46137 l -1.30175,5.42396 -0.21696,18.6584 -1.08479,1.95263 1.30175,13.88532 4.12221,13.01749 -21.69582,-17.57361 -2.16958,-4.55612 -2.38654,-11.06487 -0.65088,-7.37658 v -16.48882 l 1.51871,-6.50875 c 0,0 1.34804,-4.14044 2.82046,-5.64091 1.2008,-1.22367 4.55612,-2.38654 4.55612,-2.38654"
           id="path17173"
           sodipodi:nodetypes="csccccccccccccsc" />
        <path
           style="fill:none;fill-opacity:1;stroke:#000000;stroke-width:1.02005;stroke-linecap:round;stroke-linejoin:round;stroke-dasharray:none;stroke-opacity:1"
           d="m 151.21986,180.0753 -12.80053,-10.63095 -22.3467,-13.23445 -5.85787,-1.51871"
           id="path17175" />
        <path
           style="fill:none;fill-opacity:1;stroke:#000000;stroke-width:1.02005;stroke-linecap:round;stroke-linejoin:round;stroke-dasharray:none;stroke-opacity:1"
           d="m 116.07263,140.58891 -11.71574,-5.207 c 0,0 1.04452,2.2257 1.95262,3.25438 1.22023,1.38225 3.16049,2.15785 4.99004,2.38654 1.82955,0.22869 4.77308,-0.43392 4.77308,-0.43392 z"
           id="path17177"
           sodipodi:nodetypes="ccssc" />
        <path
           style="fill:none;fill-opacity:1;stroke:#000000;stroke-width:1.02005;stroke-linecap:round;stroke-linejoin:round;stroke-dasharray:none;stroke-opacity:1"
           d="m 104.35689,144.49416 1.95262,0.21695 1.95263,3.90525"
           id="path17179"
           sodipodi:nodetypes="ccc" />
        <path
           style="fill:none;fill-opacity:1;stroke:#000000;stroke-width:1.02005;stroke-linecap:round;stroke-linejoin:round;stroke-dasharray:none;stroke-opacity:1"
           d="m 128.09699,195.72761 c 0,0 -9.73942,-6.10742 -11.17625,-11.17624 -2.63476,-9.29483 -6.59112,-30.0899 -6.59112,-30.0899"
           id="path17181"
           sodipodi:nodetypes="csc" />
        <path
           style="fill:none;fill-opacity:1;stroke:#000000;stroke-width:1.02005;stroke-linecap:round;stroke-linejoin:round;stroke-dasharray:none;stroke-opacity:1"
           d="m 122.07901,191.42906 c 0,0 -0.0311,3.79492 -1.14628,5.15826 -1.78701,2.18461 -4.91835,3.57614 -7.7374,3.43885 -3.28993,-0.16022 -6.37844,-2.4372 -8.59712,-4.8717 -2.82232,-3.09685 -4.17941,-7.38878 -5.158266,-11.46282 -0.916047,-3.81261 -1.299575,-7.89614 -0.573141,-11.74938 0.562416,-2.98323 1.736367,-6.01715 3.725417,-8.31055 1.40647,-1.62167 3.32853,-3.07935 5.44484,-3.43884 1.25644,-0.21342 3.72541,0.85971 3.72541,0.85971"
           id="path17183"
           sodipodi:nodetypes="csssssssc" />
        <path
           style="fill:none;fill-opacity:1;stroke:#000000;stroke-width:1.02005;stroke-linecap:round;stroke-linejoin:round;stroke-dasharray:none;stroke-opacity:1"
           d="m 118.64016,205.75758 c 0,0 6.66284,0.31645 9.45683,-1.14628 2.42041,-1.26715 4.8717,-5.73141 4.8717,-5.73141"
           id="path17185"
           sodipodi:nodetypes="csc" />
        <path
           style="fill:none;fill-opacity:1;stroke:#000000;stroke-width:1.02005;stroke-linecap:round;stroke-linejoin:round;stroke-dasharray:none;stroke-opacity:1"
           d="m 265.0186,242.91432 -2.32677,-0.46535"
           id="path17913" />
        <path
           style="fill:none;fill-opacity:1;stroke:#000000;stroke-width:1.02005;stroke-linecap:round;stroke-linejoin:round;stroke-dasharray:none;stroke-opacity:1"
           d="m 110.52136,154.96259 -2.55944,-6.9803"
           id="path17915" />
        <path
           style="fill:#fed217;fill-opacity:1;stroke:#000000;stroke-width:0.359624;stroke-linecap:round;stroke-linejoin:round;stroke-dasharray:none;stroke-opacity:1"
           d="m 220.877,171.94325 c 0,-0.5423 -0.31981,-4.92913 -0.71068,-9.74852 -0.39087,-4.81939 -0.6685,-8.80449 -0.61697,-8.85576 0.0515,-0.0513 7.3123,-0.18725 16.13504,-0.30216 8.82275,-0.1149 19.34922,-0.29925 23.39218,-0.40966 l 7.35084,-0.20074 -0.25459,9.63444 c -0.14001,5.29894 -0.27488,9.65806 -0.29969,9.68694 -0.0635,0.0739 -40.49987,1.1888 -42.96893,1.18476 -1.98387,-0.003 -2.0272,-0.0244 -2.0272,-0.9893 z"
           id="path23232" />
        <path
           style="fill:#595959;fill-opacity:1;stroke:#000000;stroke-width:0.359624;stroke-linecap:round;stroke-linejoin:round;stroke-dasharray:none;stroke-opacity:1"
           d="m 221.22956,171.82929 c 0,-0.95971 -0.93285,-13.20501 -1.23502,-16.21183 l -0.19854,-1.97554 15.78859,-0.23206 c 8.68373,-0.12763 19.09839,-0.33305 23.1437,-0.45648 l 7.3551,-0.22443 -0.25713,9.30689 c -0.14142,5.11879 -0.2782,9.32758 -0.30396,9.35286 -0.0258,0.0253 -6.47219,0.22349 -14.32539,0.44046 -7.85321,0.21698 -17.80854,0.49614 -22.12296,0.62038 l -7.84439,0.22587 z"
           id="path27725" />
        <path
           style="fill:#595959;fill-opacity:1;stroke:#000000;stroke-width:0.359624;stroke-linecap:round;stroke-linejoin:round;stroke-dasharray:none;stroke-opacity:1"
           d="m 341.22433,166.53599 c 0.11874,-1.42833 0.31904,-5.47663 0.4451,-8.99622 l 0.22921,-6.39926 5.32921,-0.21132 c 9.96669,-0.3952 34.12358,-0.97271 34.27684,-0.81945 0.17375,0.17375 -2.1385,18.16879 -2.36092,18.37375 -0.0797,0.0735 -8.69277,0.24964 -19.14013,0.39151 l -18.9952,0.25795 z"
           id="path28141" />
        <path
           style="fill:#f5f906;fill-opacity:1;stroke:#000000;stroke-width:0.0897019;stroke-linecap:round;stroke-linejoin:round;stroke-dasharray:none;stroke-opacity:1"
           d="m 221.6503,141.39355 c 0,-0.031 0.73564,-1.60897 1.63475,-3.5066 l 1.63475,-3.45023 3.048,-0.0571 c 3.4866,-0.0653 9.89345,-0.17248 21.55917,-0.36074 4.47389,-0.0722 10.5186,-0.17095 13.43268,-0.21945 22.33124,-0.37166 30.01672,-0.49733 58.89716,-0.96306 14.80014,-0.23867 27.84919,-0.45804 28.99789,-0.48748 l 31.96399,-0.51312 v 3.30215 l -0.15321,2.99573 -0.40791,0.30642 c -0.24676,0.18536 -33.3004,0.51852 -36.80064,0.59056 -3.50024,0.072 -9.43095,0.19081 -13.17935,0.26399 -8.03251,0.15682 -25.17658,0.49334 -73.94639,1.45148 -39.37337,0.77354 -36.68089,0.72601 -36.68089,0.64746 z"
           id="path32232"
           sodipodi:nodetypes="sscssssscccssssss" />
        <path
           style="fill:#000000;fill-opacity:1;stroke:#000000;stroke-width:0.0897019;stroke-linecap:round;stroke-linejoin:round;stroke-dasharray:none;stroke-opacity:1"
           d="m 215.67044,141.23774 c -0.45948,-0.15747 -0.83542,-0.32257 -0.83542,-0.36689 0,-0.0443 1.53385,-2.83436 3.40855,-6.20007 l 3.40854,-6.11947 6.4846,-0.0599 c 3.56652,-0.0329 13.64723,-0.13801 22.40156,-0.23348 48.34826,-0.52723 70.94391,-0.76996 85.52069,-0.91868 7.08569,-0.0723 13.78334,-0.14684 14.88368,-0.16565 l 2.00061,-0.0342 v 2.00197 2.00198 l -1.07725,0.0504 c -0.59249,0.0277 -2.66016,0.072 -4.59481,0.0983 -1.93466,0.0263 -7.03952,0.10621 -11.34414,0.17751 -4.30461,0.0713 -11.46725,0.18916 -15.91696,0.26191 -22.72355,0.37149 -30.37005,0.49733 -37.24217,0.61287 -4.13534,0.0695 -18.95526,0.31151 -32.93317,0.53773 -19.7161,0.31909 -25.45381,0.43617 -25.59025,0.5222 -0.10567,0.0666 -0.8922,1.63327 -1.9702,3.92436 -0.98688,2.09741 -1.8485,3.90251 -1.9147,4.01134 -0.11898,0.19556 -0.14204,0.19778 -1.98706,0.19096 l -1.86668,-0.007 z"
           id="path32648" />
        <path
           style="fill:#000000;fill-opacity:1;stroke:#000000;stroke-width:0.0897019;stroke-linecap:round;stroke-linejoin:round;stroke-dasharray:none;stroke-opacity:1"
           d="m 214.13906,139.42238 c -0.0837,-0.2417 -2.32324,-11.20733 -2.29471,-11.23586 0.0158,-0.0158 1.95347,1.2e-4 4.30602,0.0353 3.8663,0.0578 4.27227,0.0774 4.22437,0.20448 -0.0512,0.13574 -5.72,10.33919 -6.03592,10.86419 -0.11051,0.18365 -0.16856,0.22198 -0.19976,0.13191 z"
           id="path32650" />
        <path
           style="fill:#000000;fill-opacity:1;stroke:#000000;stroke-width:0.237149;stroke-linecap:round;stroke-linejoin:round;stroke-dasharray:none;stroke-opacity:1"
           d="m 382.87168,137.12461 c 0.29768,-1.05131 0.69017,-6.13724 0.48785,-6.3217 -0.12013,-0.10952 -4.54843,-0.11543 -9.86624,-0.0131 -5.30656,0.10205 -12.0807,0.19278 -15.05365,0.20162 l -5.40537,0.0161 v -1.82672 -1.82672 l 4.01044,-0.14669 c 5.91543,-0.21637 24.47448,-0.24419 26.14406,-0.0392 l 1.44213,0.17708 0.92405,1.77615 0.92406,1.77615 -0.63015,2.9817 c -0.39263,1.85781 -0.75873,3.05032 -0.97125,3.16375 -0.18761,0.10013 -0.74252,0.25423 -1.23315,0.34244 -0.78864,0.14179 -0.87822,0.11156 -0.77278,-0.2608 z"
           id="path32652" />
        <path
           style="fill:#f5f906;fill-opacity:1;stroke:#000000;stroke-width:0.359624;stroke-linecap:round;stroke-linejoin:round;stroke-dasharray:none;stroke-opacity:1"
           d="m 219.32465,151.0222 c -0.17243,-0.81856 -0.91555,-7.31476 -0.91555,-8.00357 0,-0.21299 1.6352,-0.36032 4.14254,-0.37323 2.2784,-0.0117 17.07258,-0.27667 32.87595,-0.58877 15.80337,-0.31209 50.70652,-1.00089 77.56255,-1.53065 26.85604,-0.52977 48.89163,-0.91596 48.968,-0.85822 0.18144,0.13722 -0.49238,8.52471 -0.70167,8.73399 -0.20108,0.20108 -21.80362,0.83851 -36.9845,1.0913 -6.30196,0.10495 -21.61175,0.42142 -34.02176,0.70329 -34.19829,0.77674 -54.6491,1.17365 -73.57962,1.42803 l -17.17049,0.23073 z"
           id="path36687" />
        <path
           style="fill:#f5f906;fill-opacity:1;stroke:#000000;stroke-width:0.360883;stroke-linecap:round;stroke-linejoin:round;stroke-dasharray:none;stroke-opacity:1"
           d="m 382.81964,147.65969 c 0.10077,-0.35387 0.29374,-2.30784 0.42881,-4.34215 0.27377,-4.12329 0.57998,-4.67515 2.82805,-5.09689 1.86917,-0.35065 2.54348,0.0351 3.55718,2.03499 1.15544,2.27951 3.34066,7.36311 3.21127,7.47053 -0.053,0.044 -2.37162,0.19182 -5.15247,0.32846 -4.78974,0.23536 -5.04642,0.21456 -4.87284,-0.39494 z"
           id="path36689" />
        <path
           style="fill:#f5f906;fill-opacity:1;stroke:#000000;stroke-width:0.359624;stroke-linecap:round;stroke-linejoin:round;stroke-dasharray:none;stroke-opacity:1"
           d="m 205.80518,151.51285 c -1.98754,-0.0628 -3.61371,-0.19047 -3.61371,-0.28363 0,-0.0932 0.95313,-2.07073 2.11806,-4.39463 l 2.11806,-4.22526 4.84495,0.005 c 2.66471,0.003 5.04329,0.13134 5.28572,0.28528 0.26566,0.16868 0.62576,1.98752 0.90634,4.57784 l 0.46555,4.29796 -4.25563,-0.0744 c -2.34059,-0.0409 -5.8818,-0.12577 -7.86934,-0.18861 z"
           id="path36691" />
        <path
           style="fill:#f5f906;fill-opacity:1;stroke:#000000;stroke-width:0.359624;stroke-linecap:round;stroke-linejoin:round;stroke-dasharray:none;stroke-opacity:1"
           d="m 206.28296,139.87701 c -0.11064,-0.72715 -1.07238,-6.71621 -2.13718,-13.30903 -1.06481,-6.59281 -2.26695,-14.67746 -2.67143,-17.96587 -0.74096,-6.02404 -1.38818,-17.396948 -1.12052,-19.68965 l 0.14439,-1.236816 3.9315,-0.203626 c 2.16233,-0.111995 21.30375,-0.303291 42.5365,-0.425103 21.23275,-0.121811 43.36452,-0.329388 49.18171,-0.461281 12.4389,-0.282026 13.61492,-0.110232 18.0722,2.64001 2.48197,1.531433 29.88863,19.824906 47.06,31.411756 5.7977,3.91215 7.17666,4.69663 8.25571,4.69663 0.71249,0 1.21772,0.0777 1.12275,0.17269 -0.19607,0.19607 -120.12102,1.57705 -141.14394,1.62532 -7.56235,0.0174 -14.87918,-0.0812 -16.25962,-0.21911 -1.53429,-0.15324 -2.59252,-0.11698 -2.72246,0.0933 -0.11692,0.18917 0.41759,3.38503 1.1878,7.10189 0.7702,3.71686 1.40037,6.83287 1.40037,6.92447 0,0.0916 -1.49323,0.16653 -3.3183,0.16653 h -3.3183 z m 102.02819,-16.09954 c 48.50921,-0.92764 48.30032,-0.92081 48.30032,-1.5782 0,-0.34757 -2.21052,-2.10939 -5.55278,-4.42565 -11.03444,-7.64713 -27.1979,-19.111481 -33.75734,-23.943269 -3.68422,-2.713857 -7.30255,-5.146557 -8.04073,-5.406001 -3.5938,-1.263086 -25.43996,-1.437402 -64.58602,-0.515347 -30.64602,0.721843 -40.26199,1.217393 -41.16605,2.121454 -0.65185,0.651848 2.7727,24.540183 4.36279,30.433113 1.2975,4.80861 -3.36084,4.30695 37.65025,4.05461 19.50651,-0.12002 47.76181,-0.45334 62.78956,-0.74071 z"
           id="path36693" />
        <path
           style="fill:#f5f906;fill-opacity:1;stroke:#000000;stroke-width:0.359624;stroke-linecap:round;stroke-linejoin:round;stroke-dasharray:none;stroke-opacity:1"
           d="m 181.65058,188.39837 -15.78138,-5.3067 -1.27569,-2.61616 c -1.48529,-3.04598 -3.48184,-5.45548 -5.19359,-6.26775 -0.6646,-0.31538 -2.02148,-0.57341 -3.01528,-0.57341 -1.66781,0 -1.92742,0.1205 -3.37208,1.56515 -0.86083,0.86084 -1.66884,1.9783 -1.79558,2.48326 -0.12673,0.50496 -0.3651,0.87153 -0.52969,0.81461 -0.1646,-0.0569 -2.7634,-2.14801 -5.77512,-4.64687 l -5.47585,-4.54337 v -8.67146 -8.67147 l 1.62554,1.85825 c 3.17322,3.62746 7.16874,5.77879 18.66304,10.04883 14.25791,5.2967 22.87121,7.29517 31.44174,7.29517 h 2.65018 l -0.13149,7.1175 -0.1315,7.1175 2.08029,0.80641 c 1.98361,0.76893 2.62667,0.81362 13.83697,0.9616 9.22058,0.12172 11.81392,0.0593 12.02199,-0.28959 0.19567,-0.32803 3.13418,-0.55211 11.19458,-0.85364 6.0111,-0.22487 40.27964,-1.52471 76.15232,-2.88853 58.65295,-2.22989 84.77021,-3.13695 85.06982,-2.95449 0.057,0.0347 -0.18994,1.23278 -0.54868,2.66243 -0.61639,2.45644 -0.70932,2.60381 -1.69008,2.68002 -0.5708,0.0444 -6.82857,0.32106 -13.90615,0.61488 -42.03962,1.74528 -173.20453,7.23498 -176.45481,7.38525 l -3.87813,0.17929 z"
           id="path36695" />
        <path
           style="fill:#f5f906;fill-opacity:1;stroke:#000000;stroke-width:0.359624;stroke-linecap:round;stroke-linejoin:round;stroke-dasharray:none;stroke-opacity:1"
           d="m 184.48222,169.3614 c -10.30891,-1.32771 -32.46946,-9.05697 -39.15478,-13.6566 -1.47417,-1.01425 -4.62648,-4.25347 -4.37961,-4.50035 0.0917,-0.0917 44.02519,16.44566 47.84648,18.01022 l 1.23395,0.50522 -1.58651,-0.0264 c -0.87258,-0.0145 -2.65436,-0.16396 -3.95953,-0.33206 z"
           id="path36697" />
        <path
           style="fill:#f5f906;fill-opacity:1;stroke:#000000;stroke-width:0.359624;stroke-linecap:round;stroke-linejoin:round;stroke-dasharray:none;stroke-opacity:1"
           d="m 167.28832,159.5166 c -14.25211,-5.41203 -26.25724,-9.99316 -26.67805,-10.18027 -0.7483,-0.33274 -0.75372,-0.38517 -0.24688,-2.38779 1.69608,-6.7015 3.25256,-10.18391 5.55047,-12.41848 l 1.6011,-1.55697 14.20551,3.99287 c 7.81303,2.19609 14.48314,4.00161 14.82248,4.01228 0.34279,0.0108 0.61697,0.29093 0.61697,0.63039 0,0.47853 1.12746,0.96347 5.20022,2.23672 2.86012,0.89415 6.15212,1.92391 7.31556,2.28836 1.16344,0.36444 4.21724,1.31381 6.78623,2.1097 l 4.67089,1.44708 -0.65573,1.30708 c -0.36065,0.71889 -1.65143,4.32144 -2.8684,8.00566 -2.99939,9.08031 -3.50873,10.40428 -3.99206,10.37694 -0.22845,-0.0129 -12.07619,-4.45153 -26.32831,-9.86357 z"
           id="path36699" />
        <path
           style="fill:#f5f906;fill-opacity:1;stroke:#000000;stroke-width:0.359624;stroke-linecap:round;stroke-linejoin:round;stroke-dasharray:none;stroke-opacity:1"
           d="m 203.07403,145.07723 c 0.1114,-0.48477 0.294,-1.38183 0.40577,-1.99347 l 0.20321,-1.11207 -2.94925,-0.89202 c -13.20968,-3.99531 -19.65803,-5.87404 -20.1615,-5.87404 -0.32554,0 -0.59188,-0.0529 -0.59188,-0.11762 0,-0.97409 5.03276,-23.296 6.35592,-28.19055 1.62532,-6.01228 2.19304,-7.702619 3.6949,-11.001245 1.26893,-2.787043 2.28868,-5.507981 2.28868,-6.106777 0,-0.596349 -0.64416,-0.739426 -6.43417,-1.42913 -11.31682,-1.348054 -17.24587,-1.866075 -22.04059,-1.925682 -4.62118,-0.05745 -4.66126,-0.06486 -3.34929,-0.619181 2.05622,-0.868777 6.44468,-1.858994 8.20272,-1.850875 0.87258,0.004 8.02949,0.776186 15.90425,1.715901 l 14.31773,1.708573 0.20692,7.955087 c 0.23662,9.096889 0.88752,14.606049 3.97584,33.651019 l 2.04186,12.59176 -1.13684,2.18586 c -0.62526,1.20222 -1.04569,1.78923 -0.93428,1.30446 z"
           id="path36701" />
        <path
           style="fill:#f5f906;fill-opacity:1;stroke:#000000;stroke-width:0.359624;stroke-linecap:round;stroke-linejoin:round;stroke-dasharray:none;stroke-opacity:1"
           d="m 197.60823,231.97547 c -1.84211,-0.68195 -5.41175,-1.95663 -7.93253,-2.83262 -2.52078,-0.87599 -6.24908,-2.18192 -8.28509,-2.90208 l -3.70185,-1.30937 -3.46502,-10.51974 c -1.90576,-5.78586 -3.40985,-10.57491 -3.34243,-10.64234 0.0674,-0.0674 4.85084,1.37621 10.62982,3.20808 8.07949,2.56111 10.81247,3.57597 11.82833,4.39234 1.29958,1.04438 1.33128,1.12907 1.94459,5.19633 0.34291,2.27406 0.69688,4.40396 0.7866,4.73312 0.11209,0.41125 1.56376,1.058 4.64034,2.06738 l 4.47722,1.4689 92.32598,-4.638 c 50.77928,-2.55091 92.39187,-4.57211 92.47241,-4.49157 0.0805,0.0805 -0.17988,0.69951 -0.57872,1.37549 -0.66017,1.11891 -0.6925,1.45938 -0.3607,3.79886 0.20045,1.41339 0.28108,2.65318 0.17917,2.75509 -0.10191,0.10191 -24.96195,1.74711 -55.24454,3.656 -40.46249,2.55059 -55.12492,3.36445 -55.30696,3.06991 -0.13624,-0.22044 -0.44242,-1.61166 -0.68041,-3.0916 -0.23799,-1.47994 -0.56112,-2.7715 -0.71806,-2.87013 -0.57404,-0.36076 -35.06234,1.49396 -35.3287,1.89991 -0.14246,0.21712 -0.26145,1.60661 -0.26442,3.08775 l -0.005,2.693 -4.4951,0.21145 c -2.4723,0.11629 -9.41327,0.2943 -15.42437,0.39556 -6.0111,0.10126 -13.15038,0.26153 -15.86507,0.35615 l -4.9358,0.17204 z"
           id="path36703" />
        <path
           style="fill:#f5f906;fill-opacity:1;stroke:#000000;stroke-width:0.359624;stroke-linecap:round;stroke-linejoin:round;stroke-dasharray:none;stroke-opacity:1"
           d="m 198.31335,210.65645 -4.40697,-1.3178 -0.097,-5.4923 -0.097,-5.49231 3.5629,1.19987 3.56291,1.19987 27.20655,-1.20794 c 14.9636,-0.66437 41.96105,-1.85655 59.99435,-2.64929 100.66863,-4.4254 110.26676,-4.88089 110.63629,-5.25042 0.90122,-0.90122 1.04615,-0.26199 0.85943,3.79059 -0.15022,3.26057 -0.35267,4.4888 -0.92467,5.61003 l -0.73234,1.43551 -2.56463,0.21237 c -1.41055,0.1168 -44.44841,2.18688 -95.6397,4.60016 -51.19128,2.41329 -93.94764,4.45342 -95.01413,4.53363 -1.51401,0.11386 -2.9051,-0.14304 -6.34602,-1.17197 z m 23.09248,-1.63402 c 2.9086,-0.12488 5.48667,-0.38382 5.72906,-0.57544 0.29706,-0.23484 0.44069,-1.43768 0.44069,-3.69062 v -3.34224 l -4.84766,0.21881 c -2.66621,0.12034 -6.85366,0.31201 -9.30544,0.42592 l -4.45779,0.20711 -0.38987,2.62133 c -0.21443,1.44173 -0.38988,3.11409 -0.38988,3.71634 v 1.09501 l 3.96627,-0.22458 c 2.18145,-0.12353 6.34603,-0.32676 9.25462,-0.45164 z m 168.28748,-8.04827 c 3.74898,-0.26795 6.89649,-0.56734 6.99447,-0.66531 0.098,-0.098 0.26596,-1.45962 0.37332,-3.02588 l 0.19519,-2.84775 -2.60642,0.0276 c -4.57396,0.0484 -13.68219,0.53023 -13.88654,0.73457 -0.29019,0.2902 -1.19406,5.71476 -1.00384,6.02456 0.22294,0.36309 2.01118,0.31848 9.93382,-0.24778 z"
           id="path36705" />
        <path
           style="fill:#f5f906;fill-opacity:1;stroke:#000000;stroke-width:0.359624;stroke-linecap:round;stroke-linejoin:round;stroke-dasharray:none;stroke-opacity:1"
           d="m 201.10144,222.02255 -3.73422,-1.26116 -0.61565,-4.08474 c -0.3386,-2.24661 -0.6867,-4.34666 -0.77355,-4.66679 -0.13686,-0.50445 0.27857,-0.45522 3.11591,0.36921 l 3.27382,0.95125 97.12947,-4.6386 c 53.42121,-2.55124 97.16515,-4.61196 97.20875,-4.57938 0.0584,0.0436 -6.06043,9.59265 -6.37422,9.94758 -0.11111,0.12568 -182.82056,9.29661 -184.372,9.25438 -0.61825,-0.0168 -2.8045,-0.59812 -4.85831,-1.29175 z"
           id="path36707" />
        <path
           style="fill:#f5f906;fill-opacity:1;stroke:#000000;stroke-width:0.359624;stroke-linecap:round;stroke-linejoin:round;stroke-dasharray:none;stroke-opacity:1"
           d="m 181.30643,205.39954 c -5.96044,-1.87642 -10.97535,-3.56417 -11.14424,-3.75057 -0.46462,-0.51275 -3.72617,-12.11988 -3.47595,-12.3701 0.21299,-0.21299 24.83775,8.20345 25.37873,8.67414 0.15066,0.13108 0.22999,2.62781 0.17628,5.54827 l -0.0977,5.30993 z"
           id="path36709" />
        <path
           style="fill:#ffffff;fill-opacity:1;stroke:#000000;stroke-width:0.359624;stroke-linecap:round;stroke-linejoin:round;stroke-dasharray:none;stroke-opacity:1"
           d="m 191.43848,196.07533 c -27.41676,-9.49629 -25.50812,-8.76677 -25.90922,-9.90295 -0.20104,-0.56948 -0.23802,-1.16293 -0.0822,-1.31878 0.15586,-0.15585 7.39771,2.0894 16.09302,4.98945 l 15.80965,5.27281 16.08245,-0.69163 c 54.08723,-2.32606 176.19303,-7.39271 178.16339,-7.39271 1.75143,0 3.13184,0.28288 5.4191,1.11051 l 3.06905,1.11051 -1.37597,0.71074 c -1.42617,0.73666 -14.98389,1.38764 -166.02012,7.97143 -13.57345,0.59168 -26.2655,1.15721 -28.20457,1.25675 l -3.52557,0.18096 z"
           id="path36711" />
        <path
           style="fill:#edad45;fill-opacity:1;stroke:#000000;stroke-width:0.359624;stroke-linecap:round;stroke-linejoin:round;stroke-dasharray:none;stroke-opacity:1"
           d="m 200.42869,171.02789 c 0,-1.50262 1.35077,-6.7757 3.10663,-12.12753 l 2.00013,-6.09634 6.17241,0.23838 c 3.39482,0.13111 6.20679,0.26467 6.24882,0.29681 0.0758,0.0579 1.50832,16.89291 1.50948,17.7391 3.5e-4,0.25476 -0.44564,0.4407 -1.05706,0.4407 -1.02991,0 -1.05767,-0.0449 -1.05767,-1.71107 0,-0.94109 -0.10193,-2.68624 -0.2265,-3.87813 l -0.22651,-2.16706 h -5.01778 c -2.75978,0 -5.50076,0.0966 -6.09107,0.21466 -1.07327,0.21466 -1.0733,0.21473 -1.30565,3.26116 -0.33376,4.37609 -0.28201,4.28044 -2.3162,4.28044 -1.25142,0 -1.73903,-0.13771 -1.73903,-0.49112 z"
           id="path39100" />
        <path
           style="fill:#edad45;fill-opacity:1;stroke:#000000;stroke-width:0.359624;stroke-linecap:round;stroke-linejoin:round;stroke-dasharray:none;stroke-opacity:1"
           d="m 382.10452,157.68115 c 0.56334,-4.31442 1.06264,-7.88655 1.10954,-7.93807 0.0469,-0.0515 2.35903,-0.13084 5.13805,-0.17628 l 5.05277,-0.0826 1.81727,7.8444 1.81728,7.84439 h -1.52846 -1.52846 v -3.17301 -3.17301 h -5.06296 -5.06297 l -0.22233,1.85092 c -0.12227,1.01801 -0.2237,2.52519 -0.22538,3.34929 -0.003,1.45929 -0.0334,1.49837 -1.16584,1.49837 h -1.16278 z"
           id="path39171" />
        <path
           style="fill:#f5f906;fill-opacity:1;stroke:#000000;stroke-width:0.359624;stroke-linecap:round;stroke-linejoin:round;stroke-dasharray:none;stroke-opacity:1"
           d="m 197.01029,170.47935 -1.47934,-0.67161 2.83167,-8.48713 2.83168,-8.48712 h 1.55626 c 0.85594,0 1.55626,0.0456 1.55626,0.10135 0,0.0557 -0.78971,2.45864 -1.75491,5.33976 -0.9652,2.88112 -2.098,6.96043 -2.51734,9.06513 -0.42374,2.12681 -0.93624,3.82328 -1.15369,3.81898 -0.21519,-0.004 -1.05696,-0.30997 -1.87059,-0.67936 z"
           id="path39173" />
        <path
           style="fill:#f5f906;fill-opacity:1;stroke:#000000;stroke-width:0.359624;stroke-linecap:round;stroke-linejoin:round;stroke-dasharray:none;stroke-opacity:1"
           d="m 267.56028,162.28503 c 0.13943,-5.28867 0.28266,-9.64345 0.3183,-9.6773 0.0808,-0.0767 63.41284,-1.54534 66.43365,-1.54054 2.12798,0.003 2.20348,0.0344 2.20348,0.90571 0,0.50951 -0.15289,0.8077 -0.35128,0.68509 -0.43443,-0.26849 -60.73123,0.80609 -64.87177,1.15611 l -2.99674,0.25334 -0.30694,7.50807 c -0.16882,4.12944 -0.21094,7.60407 -0.0936,7.72141 0.22223,0.22223 49.90303,-0.43772 61.11006,-0.81178 l 6.41573,-0.21414 0.13312,-1.46087 c 0.12682,-1.39176 0.13603,-1.37572 0.19471,0.33905 0.0583,1.7045 0.12235,1.81835 1.20741,2.14749 1.05357,0.31958 0.93296,0.36558 -1.49837,0.57148 -1.4543,0.12316 -15.73286,0.54287 -31.73013,0.93269 -15.99728,0.38982 -30.73638,0.79678 -32.75355,0.90435 l -3.66759,0.1956 z"
           id="path40246" />
        <path
           style="fill:#f5f906;fill-opacity:1;stroke:#000000;stroke-width:0.156278;stroke-linecap:round;stroke-linejoin:round;stroke-dasharray:none;stroke-opacity:1"
           d="m 335.93295,166.18964 c -0.0142,-0.19074 -0.10515,-0.47393 -0.20219,-0.62932 -0.1347,-0.21569 -0.0939,-1.72839 0.17229,-6.39433 0.31417,-5.50607 0.43898,-6.57069 0.73554,-6.27413 0.0476,0.0477 -0.52504,11.94316 -0.63108,13.10834 -0.0268,0.29493 -0.0604,0.38017 -0.0746,0.18944 z"
           id="path40254" />
        <path
           style="fill:#1d1d01;fill-opacity:1;stroke:#000000;stroke-width:0.359624;stroke-linecap:round;stroke-linejoin:round;stroke-dasharray:none;stroke-opacity:1"
           d="m 338.15128,168.22669 -1.0086,-0.39685 0.21046,-3.00308 c 0.11576,-1.65169 0.31361,-5.25099 0.43967,-7.99845 0.2152,-4.69032 0.27471,-5.00759 0.97442,-5.1954 1.78514,-0.47915 1.74044,-0.6657 1.49174,6.22451 -0.26409,7.31675 -0.55115,10.85813 -0.87573,10.80363 -0.12284,-0.0206 -0.67722,-0.21609 -1.23196,-0.43436 z"
           id="path40256" />
        <path
           style="fill:#ff1a00;fill-opacity:1;stroke:#000000;stroke-width:0.359624;stroke-linecap:round;stroke-linejoin:round;stroke-dasharray:none;stroke-opacity:1"
           d="m 205.134,185.71023 -5.69513,-0.10608 0.14046,-2.72375 c 0.0772,-1.49806 0.2331,-4.38957 0.34632,-6.42559 l 0.20586,-3.70185 9.64361,0.099 9.64361,0.099 0.18544,1.84011 c 0.10199,1.01207 0.27207,3.94224 0.37796,6.5115 l 0.19253,4.67138 -4.67277,-0.0788 c -2.57002,-0.0433 -7.23558,-0.12651 -10.36789,-0.18485 z"
           id="path41779" />
        <path
           style="fill:#ff1a00;fill-opacity:1;stroke:#000000;stroke-width:0.359624;stroke-linecap:round;stroke-linejoin:round;stroke-dasharray:none;stroke-opacity:1"
           d="m 378.11734,178.8091 c 2.2e-4,-0.62231 1.79882,-8.21144 2.10372,-8.8766 0.17777,-0.38781 0.4197,-1.19936 0.53762,-1.80344 l 0.21439,-1.09834 7.76436,-0.25683 c 4.2704,-0.14125 7.85306,-0.16813 7.96146,-0.0597 0.10841,0.10841 -0.33944,2.82715 -0.99522,6.04165 -1.02877,5.04284 -1.28904,5.86511 -1.89743,5.99445 -1.36891,0.29102 -15.689,0.34471 -15.6889,0.0588 z"
           id="path41988" />
        <path
           style="fill:#ff1a00;fill-opacity:1;stroke:#000000;stroke-width:0.359624;stroke-linecap:round;stroke-linejoin:round;stroke-dasharray:none;stroke-opacity:1"
           d="m 196.23776,184.85992 -1.54676,-0.66104 0.2216,-1.84483 c 0.12188,-1.01466 0.22298,-3.93685 0.22467,-6.49375 l 0.003,-4.64891 1.7496,0.77079 1.74959,0.77078 -0.21496,5.81719 c -0.11823,3.19946 -0.31061,6.07226 -0.42751,6.38401 -0.19236,0.513 -0.35939,0.50405 -1.75929,-0.0942 z"
           id="path41990" />
        <path
           style="fill:#dedede;fill-opacity:1;stroke:#000000;stroke-width:0.359624;stroke-linecap:round;stroke-linejoin:round;stroke-dasharray:none;stroke-opacity:1"
           d="m 185.79757,193.73649 c -19.69219,-6.8671 -19.91947,-6.95796 -19.91947,-7.96309 0,-0.60219 0.20109,-0.54355 17.63403,5.14263 l 13.93218,4.54432 37.18859,-1.56354 c 20.45373,-0.85995 46.62831,-1.96354 58.16574,-2.45243 16.90843,-0.71647 59.0885,-2.45222 94.83785,-3.90267 5.27352,-0.21396 5.5687,-0.18849 8.44037,0.72827 2.15566,0.68818 2.82581,1.03389 2.4317,1.25444 -1.03433,0.57884 -10.98023,1.17396 -46.65661,2.79171 -21.11455,0.95744 -38.81801,1.74013 -99.77365,4.41112 -33.92926,1.48673 -43.56981,1.91559 -47.41893,2.10943 l -3.70185,0.18642 z"
           id="path43444" />
        <path
           style="fill:#ff1a00;fill-opacity:1;stroke:#000000;stroke-width:0.359624;stroke-linecap:round;stroke-linejoin:round;stroke-dasharray:none;stroke-opacity:1"
           d="m 209.78415,206.20538 c 0.1384,-1.14116 0.3122,-2.18039 0.38623,-2.3094 0.16842,-0.29348 3.6813,-0.56429 10.61848,-0.8186 l 5.37649,-0.19709 v 2.25219 2.2522 l -4.84766,0.2294 c -2.66621,0.12617 -6.40859,0.32767 -8.31641,0.44777 l -3.46875,0.21837 z"
           id="path44895" />
        <path
           style="fill:#ff1a00;fill-opacity:1;stroke:#000000;stroke-width:0.359624;stroke-linecap:round;stroke-linejoin:round;stroke-dasharray:none;stroke-opacity:1"
           d="m 381.46608,198.27928 c 0.14117,-1.04775 0.27839,-1.92431 0.30494,-1.9479 0.0265,-0.0236 3.18163,-0.15502 7.01128,-0.29205 l 6.963,-0.24913 v 1.39468 c 0,0.76708 -0.19831,1.552 -0.4407,1.74427 -0.24238,0.19227 -2.26518,0.45499 -4.4951,0.58383 -2.22992,0.12884 -5.30218,0.33258 -6.82724,0.45277 l -2.77284,0.21852 z"
           id="path44897" />
        <path
           style="fill:#ff1a00;fill-opacity:1;stroke:#000000;stroke-width:0.359624;stroke-linecap:round;stroke-linejoin:round;stroke-dasharray:none;stroke-opacity:1"
           d="m 221.50884,179.71596 c -0.0834,-2.86012 -0.14074,-5.22045 -0.12735,-5.24519 0.0134,-0.0247 10.01934,-0.29517 22.23544,-0.60097 12.2161,-0.3058 47.51588,-1.26283 78.44394,-2.12674 30.92807,-0.8639 56.27843,-1.52624 56.33413,-1.47185 0.16056,0.15676 -1.73351,8.44988 -1.98777,8.70337 -0.12587,0.12548 -4.82972,0.40453 -10.453,0.6201 -74.06096,2.83926 -140.34172,5.3215 -142.09475,5.3215 h -2.19896 z"
           id="path46351" />
        <path
           style="fill:#ff5100;fill-opacity:1;stroke:#000000;stroke-width:0.359624;stroke-linecap:round;stroke-linejoin:round;stroke-dasharray:none;stroke-opacity:1"
           d="m 221.93467,180.72956 c 0,-2.10873 -0.095,-4.30922 -0.21118,-4.88997 l -0.21119,-1.05591 8.7607,-0.23502 c 4.81838,-0.12926 35.33468,-0.94532 67.81399,-1.81348 32.47932,-0.86816 63.73351,-1.71568 69.45375,-1.8834 5.72023,-0.16771 10.42762,-0.28375 10.46086,-0.25787 0.0333,0.0259 -0.3506,1.82897 -0.85297,4.00687 -0.89989,3.90126 -0.92946,3.96241 -1.99949,4.13437 -0.59736,0.096 -5.13169,0.33888 -10.0763,0.53973 -23.10917,0.9387 -139.75014,5.28874 -141.811,5.28874 h -1.32717 z"
           id="path46353" />
        <path
           style="fill:#000000;fill-opacity:0;stroke:#000000;stroke-width:0.359624;stroke-linecap:round;stroke-linejoin:round;stroke-dasharray:none;stroke-opacity:1"
           d="m 222.22242,179.71596 c -0.0673,-2.47231 -0.11988,-4.51614 -0.1169,-4.54184 0.007,-0.0566 12.29289,-0.39088 88.49725,-2.40804 32.38237,-0.85717 60.718,-1.64449 62.96807,-1.7496 l 4.09105,-0.19109 -0.80629,3.41915 c -0.89042,3.77591 -1.3174,4.32561 -3.35998,4.32561 -0.72273,0 -4.85699,0.15945 -9.18724,0.35433 -4.33025,0.19488 -18.34414,0.74787 -31.14196,1.22887 -12.79782,0.481 -33.81903,1.27187 -46.71381,1.75747 -29.32765,1.10447 -62.23434,2.30024 -63.3005,2.30024 -0.79285,0 -0.80958,-0.0809 -0.92969,-4.4951 z"
           id="path46424" />
        <path
           style="fill:#000000;fill-opacity:1;stroke:#000000;stroke-width:0.359624;stroke-linecap:round;stroke-linejoin:round;stroke-dasharray:none;stroke-opacity:1"
           d="m 189.6757,144.65773 c -5.62329,-1.74367 -10.36025,-3.29988 -10.52658,-3.45824 -0.40442,-0.38504 1.84893,-4.57217 2.36551,-4.39555 0.83163,0.28433 20.39486,6.15795 20.51026,6.15795 0.27428,0 -1.49833,4.724 -1.79812,4.792 -0.1798,0.0408 -4.92779,-1.35249 -10.55107,-3.09616 z"
           id="path47323" />
        <path
           style="fill:#000000;fill-opacity:1;stroke:#000000;stroke-width:0.359624;stroke-linecap:round;stroke-linejoin:round;stroke-dasharray:none;stroke-opacity:1"
           d="m 266.35686,244.85088 c -1.34419,-1.3442 -0.53805,-4.45755 1.49996,-5.79291 2.40464,-1.57558 4.49567,-0.72512 4.49119,1.82664 -0.006,3.27312 -4.02408,5.93334 -5.99115,3.96627 z"
           id="path47325" />
        <path
           style="fill:#000000;fill-opacity:1;stroke:#000000;stroke-width:0.359624;stroke-linecap:round;stroke-linejoin:round;stroke-dasharray:none;stroke-opacity:1"
           d="m 255.97642,245.8301 c -1.65297,-2.35994 0.81738,-6.26758 3.96226,-6.26758 2.79967,0 2.93692,4.16828 0.20793,6.3149 -1.29873,1.02158 -3.43852,0.9973 -4.17019,-0.0473 z"
           id="path47327" />
        <path
           style="fill:#f5f906;fill-opacity:1;stroke:#000000;stroke-width:0.168167;stroke-linecap:round;stroke-linejoin:round;stroke-dasharray:none;stroke-opacity:1"
           d="m 152.57478,121.50649 c 5.68402,-11.23668 9.52762,-17.41036 15.56619,-25.002821 2.22297,-2.794998 4.04177,-5.332359 4.04177,-5.63858 0,-0.573769 -5.73575,-1.16231 -11.32754,-1.16231 h -2.79656 l 0.8877,-0.991918 c 0.84436,-0.94349 1.18347,-0.979185 6.94555,-0.731101 5.45587,0.2349 23.99274,2.096045 24.39434,2.449248 0.0896,0.07882 -0.0896,0.90851 -0.39826,1.843762 -0.46174,1.399099 -0.73837,1.657352 -1.56091,1.457231 -2.85126,-0.693711 -14.75675,-2.768888 -14.89625,-2.596482 -2.4967,3.085587 -13.79782,18.958371 -15.13245,21.254011 -1.77379,3.051 -6.04976,12.41542 -7.78114,17.04077 -0.6727,1.79711 -1.03928,2.21344 -1.94893,2.21344 -1.06037,0 -0.8458,-0.5428 4.00649,-10.13525 z"
           id="path53758" />
        <path
           style="fill:#f5f906;fill-opacity:1;stroke:#000000;stroke-width:0.168167;stroke-linecap:round;stroke-linejoin:round;stroke-dasharray:none;stroke-opacity:1"
           d="m 187.79335,84.594805 c -7.74854,-0.987823 -9.51216,-1.322775 -7.22282,-1.371779 1.66591,-0.03566 11.62641,-0.370677 22.13445,-0.744485 38.35891,-1.364562 74.99623,-0.550303 92.26572,2.050594 4.54207,0.684065 -7.61197,0.952865 -52.6567,1.164562 l -44.2689,0.208052 z"
           id="path53760" />
        <path
           style="fill:#f5f906;fill-opacity:1;stroke:#000000;stroke-width:0.168167;stroke-linecap:round;stroke-linejoin:round;stroke-dasharray:none;stroke-opacity:1"
           d="m 127.09835,161.80491 -10.36824,-6.15148 v -7.38482 c 0,-8.09258 0.83247,-12.75836 3.06101,-17.15617 1.1193,-2.20884 3.70267,-4.13058 5.55267,-4.13058 0.60338,0 17.72038,4.65911 19.7268,5.36948 0.41865,0.14822 0.0867,0.77449 -1.04291,1.96736 -1.08936,1.15042 -2.1486,3.1049 -3.09182,5.70497 -2.31045,6.36899 -2.75254,8.97787 -2.80422,16.54845 -0.0262,3.84441 -0.18661,7.97858 -0.35638,9.18705 l -0.30866,2.19721 z"
           id="path53762" />
        <path
           style="fill:#f5f906;fill-opacity:1;stroke:#000000;stroke-width:0.168167;stroke-linecap:round;stroke-linejoin:round;stroke-dasharray:none;stroke-opacity:1"
           d="m 131.19375,187.09104 c -10.64117,-8.69374 -10.84112,-8.98288 -12.7267,-18.40322 -1.05895,-5.29052 -1.82728,-10.95073 -1.48649,-10.95073 0.53829,0 20.19568,12.01773 19.99145,12.22197 -0.14774,0.14773 0.0631,3.61072 0.46845,7.69553 0.52992,5.33975 1.12593,8.65917 2.12082,11.81176 1.50382,4.76527 1.57255,5.09617 1.05074,5.05882 -0.19222,-0.0138 -4.43044,-3.35912 -9.41827,-7.43413 z"
           id="path53764" />
        <path
           style="fill:#f5f906;fill-opacity:1;stroke:#000000;stroke-width:0.168167;stroke-linecap:round;stroke-linejoin:round;stroke-dasharray:none;stroke-opacity:1"
           d="m 137.2336,201.42767 c -13.54112,-9.87467 -17.5891,-13.2494 -18.87471,-15.73547 -1.20207,-2.32455 -7.24461,-29.01845 -6.69349,-29.56957 0.12333,-0.12332 0.97793,-0.0161 1.89911,0.23823 l 1.67487,0.46245 0.30045,3.36932 c 0.48591,5.44905 2.52642,14.80673 3.86135,17.70792 1.15324,2.50633 1.96376,3.27782 11.93804,11.36301 9.95219,8.06729 12.41822,9.79251 12.41822,8.68775 0,-0.23951 -0.92811,-3.37543 -2.06246,-6.96869 -1.63145,-5.16789 -2.17104,-7.74193 -2.582,-12.31706 -0.28574,-3.18111 -0.62495,-6.27618 -0.75379,-6.87792 -0.13259,-0.61924 -0.0325,-1.02373 0.23067,-0.93198 0.25572,0.0892 2.98708,2.246 6.0697,4.79299 l 5.60475,4.63088 -0.34101,1.89295 c -0.54344,3.01669 -0.331,8.60723 0.46149,12.14471 0.57366,2.56064 0.66613,4.71668 0.43013,10.02856 l -0.30065,6.76665 z"
           id="path53766" />
        <path
           style="fill:#f5f906;fill-opacity:1;stroke:#000000;stroke-width:0.168167;stroke-linecap:round;stroke-linejoin:round;stroke-dasharray:none;stroke-opacity:1"
           d="m 110.61433,137.31138 -4.92647,-2.18872 1.19541,-3.34248 c 1.00759,-2.81732 1.46403,-3.49344 2.90514,-4.30339 1.77213,-0.99599 5.31752,-1.25759 8.93701,-0.65942 1.57551,0.26038 1.6924,0.37098 1.10277,1.04335 -1.25681,1.43316 -2.65853,4.73642 -3.47104,8.17978 l -0.81634,3.45961 z"
           id="path53768" />
        <path
           style="fill:#f5f906;fill-opacity:1;stroke:#000000;stroke-width:0.168167;stroke-linecap:round;stroke-linejoin:round;stroke-dasharray:none;stroke-opacity:1"
           d="m 110.12836,139.94421 c -1.59892,-0.42572 -3.90559,-2.24462 -2.84655,-2.24462 0.59966,0 5.72039,2.32485 5.72039,2.5971 0,0.28283 -0.90426,0.17193 -2.87384,-0.35248 z"
           id="path53770" />
        <path
           style="fill:#f5f906;fill-opacity:1;stroke:#000000;stroke-width:0.168167;stroke-linecap:round;stroke-linejoin:round;stroke-dasharray:none;stroke-opacity:1"
           d="m 112.76921,154.60397 c -1.50257,-0.36934 -1.99928,-0.99014 -2.83483,-3.54307 -1.23104,-3.76133 -2.97229,-6.92008 -3.95654,-7.17747 -0.74801,-0.19561 -0.89744,-0.65929 -0.89744,-2.7847 v -2.55001 l 1.41915,1.19414 c 1.7487,1.47143 4.74384,2.32174 7.07621,2.0089 l 1.75638,-0.23558 v 6.71249 c 0,7.27032 0.097,7.02911 -2.56293,6.3753 z"
           id="path53772" />
        <path
           style="fill:#f5f906;fill-opacity:1;stroke:#000000;stroke-width:0.0731991;stroke-linecap:round;stroke-linejoin:round;stroke-dasharray:none;stroke-opacity:1"
           d="m 139.85353,105.48904 c 0,-0.51718 3.61587,-4.45777 7.9245,-8.636159 9.42899,-9.14397 11.33408,-10.844628 11.70374,-10.447826 0.0814,0.08738 0.0314,0.200438 -0.11102,0.251245 -0.8089,0.288487 -3.24765,2.591673 -10.94751,10.339003 -4.71334,4.742387 -8.56971,8.564577 -8.56971,8.493737 z"
           id="path53778" />
        <path
           style="fill:#dedede;fill-opacity:1;stroke:#000000;stroke-width:0.0318914;stroke-linecap:round;stroke-linejoin:round;stroke-dasharray:none;stroke-opacity:1"
           d="m 275.17395,241.45334 c -1.07578,-2.22227 -1.75241,-5.50435 -1.45524,-7.05888 0.33866,-1.77158 1.67461,-2.39472 5.13406,-2.39472 1.70012,0 12.37735,-0.58816 23.72718,-1.30704 11.34983,-0.71887 21.48251,-1.30704 22.51707,-1.30704 h 1.88102 v 3.64403 3.64403 l -1.6498,1.14331 c -1.53462,1.06349 -2.40913,1.21951 -12.52581,2.2346 -9.75497,0.97881 -35.20177,3.2758 -36.29029,3.2758 -0.23703,0 -0.83921,-0.84334 -1.33819,-1.87409 z"
           id="path55232" />
        <path
           style="fill:#dedede;fill-opacity:1;stroke:#000000;stroke-width:0.0318914;stroke-linecap:round;stroke-linejoin:round;stroke-dasharray:none;stroke-opacity:1"
           d="m 263.67837,240.86814 c -0.19396,-0.95255 -1.98759,-2.66943 -7.65585,-7.32828 -4.0714,-3.34636 -7.30743,-6.23819 -7.19118,-6.42629 0.11625,-0.18809 1.69894,-0.34199 3.51709,-0.34199 h 3.30572 l 6.47137,4.84023 c 5.90722,4.41828 7.20166,5.6161 6.06911,5.6161 -0.76829,0 -3.2017,2.36023 -3.73082,3.61863 l -0.53214,1.26558 z"
           id="path55303" />
        <path
           style="fill:#dedede;fill-opacity:1;stroke:#000000;stroke-width:0.0318914;stroke-linecap:round;stroke-linejoin:round;stroke-dasharray:none;stroke-opacity:1"
           d="m 248.33152,238.86201 -5.22193,-5.33739 0.12801,-3.15868 0.128,-3.15868 h 1.26183 c 0.97282,0 2.75883,1.23761 7.79797,5.40358 l 6.53615,5.40358 -1.23882,0.51313 c -1.67377,0.6933 -2.93724,2.11315 -3.61025,4.05709 l -0.55904,1.61475 z"
           id="path55305" />
        <path
           style="fill:#dedede;fill-opacity:1;stroke:#000000;stroke-width:0.0318914;stroke-linecap:round;stroke-linejoin:round;stroke-dasharray:none;stroke-opacity:1"
           d="m 212.07729,123.19683 -1.84172,-0.16629 -0.82877,-2.69843 c -0.98523,-3.20787 -2.33968,-11.14311 -3.70577,-21.710903 l -0.9934,-7.684779 1.9154,-0.262535 c 2.35229,-0.322417 21.42873,-0.931529 50.86401,-1.624092 22.1529,-0.52122 46.76473,-0.327924 50.13803,0.393774 1.15867,0.247893 3.28221,1.515281 6.09952,3.640371 4.68168,3.53138 19.28896,13.951394 31.69849,22.611934 l 7.77086,5.42323 -2.5427,0.28709 c -2.45225,0.27686 -32.72835,0.83829 -90.76796,1.68316 -27.2291,0.39636 -44.18426,0.43448 -47.80599,0.10747 z"
           id="path55307" />
        <path
           style="fill:#dedede;fill-opacity:1;stroke:#000000;stroke-width:0.0318914;stroke-linecap:round;stroke-linejoin:round;stroke-dasharray:none;stroke-opacity:1"
           d="m 163.59794,135.9782 c -6.82929,-1.91492 -12.46427,-3.50756 -12.52218,-3.53921 -0.15662,-0.0856 4.35872,-10.82274 6.13455,-14.58748 2.28321,-4.84038 3.85705,-7.27123 10.74367,-16.59388 3.43623,-4.651754 6.27967,-8.506538 6.31875,-8.566188 0.0827,-0.126145 13.87711,2.513277 14.05266,2.688827 0.0647,0.06472 -0.35351,1.373142 -0.92939,2.90761 -1.58428,4.221391 -4.03412,13.790491 -6.57017,25.663161 -1.6622,7.78166 -2.62297,11.32922 -3.54552,13.09149 l -1.26548,2.41733 z"
           id="path55309" />
        <path
           style="fill:#dedede;fill-opacity:1;stroke:#000000;stroke-width:0.0318914;stroke-linecap:round;stroke-linejoin:round;stroke-dasharray:none;stroke-opacity:1"
           d="m 136.81801,128.45872 c -4.54494,-1.3052 -8.33583,-2.44539 -8.4242,-2.53376 -0.0884,-0.0884 0.58704,-2.18612 1.5009,-4.66166 1.90197,-5.15223 1.18043,-4.27211 16.7715,-20.45762 l 9.49509,-9.857112 6.00564,0.223728 c 3.3031,0.123051 6.33992,0.34461 6.74849,0.492353 0.61422,0.222113 0.21143,0.947131 -2.32637,4.187378 -6.96116,8.887993 -11.05787,15.625893 -17.01824,27.990093 -1.87712,3.89389 -3.65512,7.05953 -3.95112,7.03475 -0.29599,-0.0248 -4.25676,-1.11294 -8.80169,-2.41815 z"
           id="path55311" />
        <path
           style="fill:#dedede;fill-opacity:1;stroke:#000000;stroke-width:0.0318914;stroke-linecap:round;stroke-linejoin:round;stroke-dasharray:none;stroke-opacity:1"
           d="m 116.83077,125.25865 c -3.70658,-0.21402 -5.26913,-0.47077 -5.54825,-0.91169 -0.61626,-0.97347 -0.49708,-8.49124 0.14271,-9.00151 0.80469,-0.6418 18.646,-0.9996 18.87922,-0.37862 0.1009,0.26864 -0.66735,2.72972 -1.70722,5.46905 l -1.89067,4.98061 -2.35804,0.07 c -1.29692,0.0385 -4.67991,-0.064 -7.51775,-0.22788 z"
           id="path55313" />
        <path
           style="fill:#dedede;fill-opacity:1;stroke:#000000;stroke-width:0.0318914;stroke-linecap:round;stroke-linejoin:round;stroke-dasharray:none;stroke-opacity:1"
           d="m 151.54614,192.57068 c -0.67045,-1.60018 -0.39905,-9.83784 0.41167,-12.49572 0.89208,-2.92456 2.87816,-5.1501 4.59384,-5.1477 1.76343,0.002 3.86495,1.50408 5.33163,3.80965 l 1.31709,2.0704 -0.99934,0.12197 c -2.22829,0.27197 -3.01252,0.60438 -4.49344,1.90464 -1.86033,1.6334 -3.50314,4.34019 -4.82209,7.94517 -0.81253,2.22085 -1.03489,2.51829 -1.33936,1.79159 z"
           id="path55315" />
        <path
           style="fill:#dedede;fill-opacity:1;stroke:#000000;stroke-width:0.0318914;stroke-linecap:round;stroke-linejoin:round;stroke-dasharray:none;stroke-opacity:1"
           d="m 111.09847,198.78903 c -6.07549,-2.16563 -10.1434,-8.91089 -11.583894,-19.20801 -0.916255,-6.54967 1.093954,-13.33688 4.920044,-16.61187 2.73937,-2.3448 6.18646,-2.62443 6.66021,-0.54029 0.11893,0.52318 1.10955,5.03076 2.20139,10.01684 2.78845,12.73402 3.22393,13.98893 5.89413,16.98482 2.08174,2.33566 2.21805,2.62568 1.94265,4.13308 -0.44201,2.41933 -1.36085,3.53882 -3.85937,4.70213 -2.41542,1.12462 -4.09008,1.26654 -6.17516,0.5233 z"
           id="path55317" />
        <path
           style="fill:#dedede;fill-opacity:1;stroke:#000000;stroke-width:0.0318914;stroke-linecap:round;stroke-linejoin:round;stroke-dasharray:none;stroke-opacity:1"
           d="m 157.50689,242.34715 c -2.80896,-6.39048 -3.72134,-27.19046 -1.74789,-39.84751 0.67103,-4.30373 2.23429,-8.83976 3.04646,-8.83976 0.65955,0 1.84685,3.21903 2.66568,7.2273 2.34401,11.47412 1.58337,34.80162 -1.35109,41.43545 -0.45645,1.03189 -1.04802,1.87616 -1.31459,1.87616 -0.26657,0 -0.85093,-0.83324 -1.29857,-1.85164 z"
           id="path55319" />
        <path
           style="fill:#000000;fill-opacity:1;stroke:#000000;stroke-width:0.0318914;stroke-linecap:round;stroke-linejoin:round;stroke-dasharray:none;stroke-opacity:1"
           d="m 169.9849,257.24845 c -1.15984,-0.19467 -3.51251,-0.77835 -5.22816,-1.29707 -2.50323,-0.75685 -3.46798,-1.31579 -4.88438,-2.82988 -4.24901,-4.54209 -6.40534,-12.63202 -7.67401,-28.79062 -0.39393,-5.01744 -0.39843,-9.15523 -0.0189,-17.42721 0.43563,-9.49592 0.62766,-11.2286 1.54112,-13.90567 2.45844,-7.20488 5.36199,-10.66581 8.94811,-10.66581 1.41745,0 1.84697,0.62068 1.35674,1.96056 -0.3951,1.07984 4.22586,17.18993 9.05372,31.56405 l 3.43116,10.21571 8.1352,2.85469 8.1352,2.8547 0.004,3.07747 c 0.004,3.34836 -1.0111,11.6588 -1.73291,14.18315 -1.8381,6.42832 -10.81787,9.92612 -21.06678,8.20593 z m -9.49517,-12.42079 c 4.7964,-6.09763 5.3483,-40.95795 0.79628,-50.29642 -0.86188,-1.76815 -1.10532,-1.96056 -2.48055,-1.96056 -1.37523,0 -1.61867,0.19241 -2.48055,1.96056 -2.21865,4.55156 -3.41087,15.55254 -3.04545,28.10138 0.42486,14.59003 2.4919,23.30889 5.526,23.30889 0.44446,0 1.20239,-0.50123 1.68427,-1.11385 z"
           id="path56218" />
        <path
           style="fill:#000000;fill-opacity:1;stroke:#000000;stroke-width:0.0318914;stroke-linecap:round;stroke-linejoin:round;stroke-dasharray:none;stroke-opacity:1"
           d="m 338.1647,245.75346 c -2.23832,-0.60166 -4.63075,-2.60629 -7.75171,-6.4952 l -1.69223,-2.1086 v -4.03513 -4.03512 l 3.59437,-0.24713 c 17.30721,-1.18992 35.64097,-2.18182 35.88151,-1.94127 0.57611,0.5761 -0.88903,5.8143 -2.5621,9.16007 -2.37173,4.74296 -4.12328,6.42071 -8.41914,8.06444 -1.94033,0.74243 -4.78315,1.55354 -6.31737,1.80248 -3.76174,0.61036 -10.15804,0.52771 -12.73333,-0.16454 z"
           id="path56220" />
        <path
           style="fill:#000000;fill-opacity:1;stroke:#000000;stroke-width:0.0318914;stroke-linecap:round;stroke-linejoin:round;stroke-dasharray:none;stroke-opacity:1"
           d="m 123.67962,203.48722 c 0.82519,-0.82519 2.16832,-2.68565 2.98473,-4.13435 l 1.48438,-2.634 1.82413,1.34149 1.82413,1.34148 -0.8334,1.15906 c -2.06068,2.8659 -4.79147,4.41691 -7.78952,4.42424 -0.9376,0.002 -0.90853,-0.0838 0.50555,-1.49792 z"
           id="path56222" />
        <path
           style="fill:none;fill-opacity:1;stroke:#000000;stroke-width:0.0731991;stroke-linecap:round;stroke-linejoin:round;stroke-dasharray:none;stroke-opacity:1"
           d="m 102.77717,155.31411 c 4.34198,-2.66395 5.50323,-3.78161 7.75135,-1.72253"
           id="path56226"
           sodipodi:nodetypes="cc" />
        <path
           style="fill:#000000;fill-opacity:1;stroke:#000000;stroke-width:0.0210145;stroke-linecap:round;stroke-linejoin:round;stroke-dasharray:none;stroke-opacity:1"
           d="m 112.55316,204.81311 c -2.89175,-0.39642 -4.772,-1.36993 -7.01614,-3.63263 -2.2966,-2.3156 -3.88354,-4.66508 -5.771687,-8.54505 -3.488245,-7.16803 -4.360649,-12.36186 -3.288847,-19.58007 0.99487,-6.70011 2.798799,-11.66624 5.151284,-14.18123 1.15793,-1.23793 1.83298,-2.35904 2.25825,-3.75049 0.0803,-0.26266 1.1286,-0.9632 2.3296,-1.55677 1.94506,-0.9613 2.2309,-1.03197 2.61608,-0.64679 0.37271,0.37271 1.04791,2.72186 1.68604,5.86607 l 0.18028,0.88826 -1.80727,-0.027 c -5.48373,-0.0819 -10.194868,6.24572 -10.990755,14.76193 -0.428415,4.58416 1.143798,12.11744 3.566135,17.08722 1.20088,2.46377 1.72956,3.19039 3.65542,5.02402 1.28454,1.22303 2.99074,2.51356 3.97278,3.00494 1.56844,0.78478 1.97619,0.86126 4.59215,0.86126 2.72189,0 2.96451,-0.0508 4.67528,-0.97842 2.76189,-1.49761 3.54741,-2.58691 4.2198,-5.85169 l 0.16502,-0.80127 1.21169,0.87336 c 0.66643,0.48035 1.58556,1.17302 2.04251,1.53927 l 0.83081,0.66591 -1.25103,2.41996 c -1.57996,3.05625 -3.84467,5.41812 -5.86525,6.11688 -1.80543,0.62435 -4.58299,0.79589 -7.16215,0.44233 z"
           id="path56297" />
        <path
           style="fill:#dedede;fill-opacity:1;stroke:#000000;stroke-width:0.0210145;stroke-linecap:round;stroke-linejoin:round;stroke-dasharray:none;stroke-opacity:1"
           d="m 103.93445,152.20854 c -0.10395,-1.1341 -0.32544,-2.79803 -0.4922,-3.69761 -0.28288,-1.52603 -0.25761,-1.69327 0.37713,-2.49613 1.08436,-1.37159 1.81884,-1.1784 2.78789,0.73329 0.6348,1.25228 2.05519,4.88954 2.05519,5.26281 0,0.11936 -0.40647,0.29832 -0.90327,0.39768 -0.4968,0.0994 -1.51808,0.55894 -2.26951,1.0213 l -1.36624,0.84065 z"
           id="path56575" />
      </g>
      <path
         style="fill:#edad45;fill-opacity:1;stroke:#000000;stroke-width:0.0341099;stroke-linecap:round;stroke-linejoin:round;stroke-dasharray:none;stroke-opacity:1"
         d="m 260.87901,157.14198 c 0.57666,-0.2636 1.04848,-0.70918 1.04848,-0.99018 0,-0.28099 -1.17074,-4.02345 -2.60164,-8.31658 -2.38671,-7.16084 -2.69261,-7.80569 -3.70281,-7.80569 h -1.10117 l 0.92947,2.67944 c 0.51122,1.47368 1.64511,5.37986 2.51977,8.68038 0.87466,3.30052 1.65085,6.05291 1.72486,6.11643 0.074,0.0635 0.60638,-0.10019 1.18304,-0.3638 z"
         id="path62374" />
    </g>
  </g>
</svg>
