<?xml version="1.0" encoding="UTF-8" standalone="no"?>
<!-- Created with Inkscape (http://www.inkscape.org/) -->

<svg
   version="1.1"
   id="svg565"
   width="1790"
   height="1550"
   viewBox="0 0 1790 1550"
   sodipodi:docname="carTwo.svg"
   inkscape:version="1.2.1 (9c6d41e4, 2022-07-14)"
   xmlns:inkscape="http://www.inkscape.org/namespaces/inkscape"
   xmlns:sodipodi="http://sodipodi.sourceforge.net/DTD/sodipodi-0.dtd"
   xmlns="http://www.w3.org/2000/svg"
   xmlns:svg="http://www.w3.org/2000/svg">
  <defs
     id="defs569" />
  <sodipodi:namedview
     id="namedview567"
     pagecolor="#ffffff"
     bordercolor="#000000"
     borderopacity="0.25"
     inkscape:showpageshadow="2"
     inkscape:pageopacity="0.0"
     inkscape:pagecheckerboard="0"
     inkscape:deskcolor="#d1d1d1"
     showgrid="false"
     inkscape:zoom="0.30607653"
     inkscape:cx="1190.8786"
     inkscape:cy="846.19359"
     inkscape:window-width="1440"
     inkscape:window-height="764"
     inkscape:window-x="0"
     inkscape:window-y="205"
     inkscape:window-maximized="1"
     inkscape:current-layer="g571" />
  <g
     inkscape:groupmode="layer"
     inkscape:label="Image"
     id="g571">
    <path
       style="fill:#212121;fill-opacity:1;fill-rule:evenodd;stroke:none;stroke-width:12.7779;stroke-linecap:round;stroke-linejoin:round;stroke-dasharray:none;stroke-opacity:1"
       d=""
       id="path21573" />
    <g
       id="g30392"
       transform="matrix(0.99885373,0,0,0.99759385,-499.76691,-113.57876)">
      <ellipse
         style="fill:none;fill-rule:evenodd;stroke:#6f6f6f;stroke-width:6.77266;stroke-linecap:round;stroke-linejoin:round;stroke-dasharray:none;stroke-opacity:1"
         id="path2391-8"
         cx="1472.7709"
         cy="1453.1338"
         rx="39.817184"
         ry="40.394737" />
      <path
         style="fill:none;fill-rule:evenodd;stroke:#000000;stroke-width:1.00659;stroke-linecap:round;stroke-linejoin:round;stroke-dasharray:none;stroke-opacity:1"
         d="m 1394.8175,1375.9393 c -23.8469,1.1017 -38.187,-0.1356 -61.8156,3.2672 -13.5064,1.9451 -28.1051,3.7111 -39.2738,11.5512 -11.724,8.2299 -18.3727,22.1784 -25.4126,34.6534 -9.8401,17.4371 -10.012,40.2954 -23.1022,55.4455 -8.8071,10.193 -21.819,16.7006 -34.6535,20.792 -28.6988,9.1486 -90.0989,6.9307 -90.0989,6.9307 l -87.7887,-6.9307 -95.67629,-1.3532 -116.86473,-3.2672 c 0,0 -58.66777,-1.3553 -87.78869,-4.6205 -22.52058,-2.5251 -66.99663,-11.5511 -66.99663,-11.5511 0,0 -20.91944,-4.1239 -30.70067,-8.1857 -12.50668,-5.1936 -25.45012,-10.941 -35.12193,-20.4197 -15.70719,-15.3937 -24.80001,-36.5259 -34.30515,-56.3585 -11.76236,-24.5423 -20.40656,-50.5781 -27.77083,-76.7782 -4.06,-14.4444 -6.41297,-29.3245 -8.98468,-44.1066 -3.92044,-22.5346 -7.14387,-45.197 -9.81626,-67.9134 -3.97512,-33.7901 -7.51648,-67.6707 -9.24092,-101.6501 -1.81504,-35.7646 -1.53997,-71.6171 -1.15511,-107.42562 0.12835,-11.9417 0.0169,-23.92051 1.15511,-35.80854 1.85816,-19.40802 3.66508,-39.07326 9.24092,-57.75572 3.49955,-11.72561 10.38617,-22.17148 15.01648,-33.49831 8.38991,-20.52367 13.78786,-42.25522 23.10229,-62.37618 8.9081,-19.24321 20.91281,-36.89625 31.18809,-55.44548 11.689,-21.10132 21.09175,-43.58188 34.65343,-63.53129 6.76268,-9.94799 23.10228,-27.72275 23.10228,-27.72275 0,0 -18.6922,-1.1898 -27.72274,-3.46534 -12.41129,-3.12744 -25.50609,-6.26661 -35.80855,-13.86137 -9.48701,-6.99363 -17.15072,-16.95667 -21.94717,-27.72275 -3.73525,-8.38412 -4.27579,-17.97312 -4.62045,-27.14518 -0.23235,-6.18326 0.14164,-12.50226 1.73267,-18.48183 1.19628,-4.496 3.04966,-8.93604 5.77557,-12.70626 3.99123,-5.5203 9.66319,-9.64879 15.01648,-13.86137 4.90945,-3.86332 10.04584,-7.52456 15.59405,-10.39603 7.14432,-3.69754 14.68547,-6.85809 22.52473,-8.66336 6.59038,-1.51767 13.45781,-1.44363 20.2145,-1.73267 5.77029,-0.24685 11.56104,-0.33799 17.32671,0 6.5795,0.3857 13.22286,0.7943 19.63695,2.31023 9.36412,2.21315 19.10909,4.5264 27.14518,9.81847 3.52632,2.32221 5.94871,6.007 8.66336,9.24092 3.71333,4.42362 10.39603,13.86137 10.39603,13.86137 0,0 7.56574,-21.22718 11.55114,-31.76565 4.09728,-10.83432 8.45361,-21.56892 12.70626,-32.3432 4.41009,-11.17317 13.28382,-33.49831 13.28382,-33.49831 l 15.59404,-36.96366 21.94717,-46.78213 17.90427,-35.80855 12.70626,-20.79205 -4.62045,-3.46535 0.57755,-6.35313 -2.31023,-3.46534 7.50825,-12.70626 8.66335,-0.57755 c 0,0 13.53562,-15.03649 21.36962,-21.36962 6.06302,-4.90144 12.61,-9.32894 19.63694,-12.70626 14.26652,-6.85684 29.70579,-11.12782 45.04946,-15.01648 19.32926,-4.89876 39.1641,-7.62392 58.91083,-10.39603 16.4854,-2.31428 33.08019,-3.8175 49.66989,-5.19802 18.6456,-1.55161 37.396,-1.70575 56.0231,-3.46534 10.6266,-1.00384 21.1377,-3.05281 31.7656,-4.0429 25.9234,-2.41501 51.9932,-2.87326 77.9702,-4.62046 17.9145,-1.20492 35.7869,-3.02388 53.7129,-4.0429 15.0033,-0.85288 30.0256,-2.06849 45.0494,-1.73267 4.6353,0.10361 13.8614,1.15511 13.8614,1.15511 l 20.2145,2.31023 24.8349,2.31023 9.8185,-16.1716 9.8185,-3.46534 6.3531,-1.73267 2.3102,-10.39603 3.4654,-4.0429 2.3102,-67.57419 13.8614,0.57756 -0.5776,66.41907 2.8878,2.88779 2.3102,6.35313 1.7327,6.35312 6.3531,2.88779 7.5083,1.73267 5.198,5.19802 4.0429,10.39602 29.4554,-0.57755 c 0,0 13.4878,-1.44554 20.2145,-2.31023 6.751,-0.86782 13.425,-2.40528 20.2145,-2.88779 11.5221,-0.81885 23.1057,-0.2781 34.6535,0 15.993,0.38515 31.9733,1.27278 47.9372,2.31023 21.2031,1.37793 42.416,2.82816 63.5313,5.19802 18.9395,2.12566 37.7534,5.25637 56.6006,8.0858 20.8148,3.12481 41.5614,6.69366 62.3762,9.81847 20.1934,3.03153 40.5918,4.80423 60.6435,8.66336 20.8169,4.0064 41.4811,8.96726 61.7986,15.01648 9.3957,2.79743 19.0901,5.17266 27.7227,9.81847 9.5615,5.14568 25.9901,19.63695 25.9901,19.63695 l 5.198,5.77557 6.9307,3.46534 4.0429,10.39603 -1.7327,3.46534 1.1551,5.77558 -4.0429,5.77557 h -3.4653 l 23.1023,38.69633 27.1452,50.82503 38.6963,86.63357 12.1287,33.49832 9.2409,-4.62046 c 0,0 11.5295,-1.44353 17.3267,-1.73267 4.807,-0.23975 9.6433,-0.40808 14.439,0 6.8118,0.57964 13.5681,1.86466 20.2145,3.46534 6.275,1.51122 12.6892,2.92865 18.4818,5.77558 8.4362,4.14618 16.3317,9.65095 23.1023,16.1716 5.7409,5.52895 11.2712,11.74551 14.4389,19.05938 3.1824,7.34794 4.1348,15.67288 4.0429,23.67985 -0.081,7.06002 -1.6816,14.13811 -4.0429,20.79205 -2.1891,6.16875 -5.2354,12.14969 -9.2409,17.32672 -4.002,5.17255 -9.2014,9.36723 -14.4389,13.28381 -5.3941,4.03364 -17.3268,10.39603 -17.3268,10.39603 l 10.3961,6.93069 16.1716,14.43893 16.7491,19.63694 15.5941,23.10229 15.594,27.72274 5.7756,13.28382 11.5511,27.14519 6.9307,15.01648 10.3961,19.05939 12.1287,20.2145 6.9306,25.99007 c 0,0 4.1844,17.98613 7.5083,26.56763 2.1768,5.61996 6.1433,10.46643 8.0858,16.1716 2.5921,7.61295 3.2812,15.75 4.6204,23.67985 1.8135,10.73847 3.2926,21.53394 4.6205,32.3432 1.6047,13.06227 2.658,26.18647 4.0429,39.27387 0.9374,8.8586 2.1909,17.6869 2.8878,26.5676 0.9349,11.9135 1.661,23.8586 1.7327,35.8086 0.064,10.5953 -0.6453,21.1823 -1.1552,31.7656 -0.464,9.6321 -1.0562,19.2584 -1.7326,28.8779 -0.8399,11.9454 -1.7067,23.892 -2.8878,35.8085 -0.9751,9.838 -2.3959,19.6273 -3.4654,29.4555 -1.8837,17.3109 -2.9816,34.7086 -5.198,51.9801 -1.265,9.8577 -2.829,19.6796 -4.6204,29.4554 -2.872,15.6728 -5.8966,31.3385 -9.8185,46.7821 -4.7975,18.8914 -10.1079,37.6984 -16.7492,56.0231 -2.4979,6.8922 -5.4394,13.6305 -8.6633,20.2145 -6.2908,12.8473 -12.4782,25.9004 -20.7921,37.5412 -4.674,6.5444 -9.9605,12.7957 -16.1716,17.9043 -8.6698,7.1309 -18.4279,13.2259 -28.8778,17.3267 -20.8782,8.1931 -43.6565,10.5677 -65.8416,13.8614 -15.2927,2.2704 -30.7666,3.2109 -46.2045,4.0429 -28.2652,1.5233 -56.5981,1.2941 -84.9009,1.7326 -36.3838,0.5637 -72.7815,0.2448 -109.1583,1.1551 -29.2765,0.7326 -58.5217,2.4195 -87.7887,3.4654 -24.0619,0.8599 -48.1276,1.6126 -72.1947,2.3102 -14.8227,0.4297 -29.6431,1.2181 -44.4719,1.1551 -11.1726,-0.047 -22.4006,0.1373 -33.4983,-1.1551 -7.8006,-0.9084 -15.7312,-1.911 -23.1023,-4.6204 -11.1624,-4.1031 -22.1777,-9.5648 -31.1881,-17.3268 -11.9615,-10.3041 -19.8452,-24.5927 -28.8778,-37.5412 -5.9895,-8.5862 -10.324,-18.3024 -16.7492,-26.5676 -6.352,-8.171 -13.2029,-16.1672 -21.3696,-22.5247 -7.1416,-5.5595 -14.9866,-10.7661 -23.6798,-13.2838 -14.0734,-4.0759 -29.2456,-2.6014 -43.8944,-2.3103 -10.4384,0.2075 -30.5602,-0.8612 -40.9896,-0.3794 z"
         id="path1287"
         sodipodi:nodetypes="ssssssccccscsssssssssssssscsssssssssssssscssccccccccccsssssssssscccccccccccccccccccsssssssssscccccccccccccssssssssssccccccccccccsssssssssssssssssssssssssssssssssss" />
      <ellipse
         style="fill:none;fill-rule:evenodd;stroke:#6f6f6f;stroke-width:6.77266;stroke-linecap:round;stroke-linejoin:round;stroke-dasharray:none;stroke-opacity:1"
         id="path2391"
         cx="1355.5266"
         cy="1451.9788"
         rx="39.817184"
         ry="40.394737" />
      <path
         style="fill:none;fill-rule:evenodd;stroke:#000000;stroke-width:1.45481;stroke-linecap:round;stroke-linejoin:round;stroke-dasharray:none;stroke-opacity:1"
         d="m 701.1544,1487.2097 c 0,0 -8.68781,-18.1299 -11.55114,-27.7227 -1.79276,-6.0061 -2.35078,-12.3138 -3.46534,-18.4819 -2.39756,-13.2683 -5.3653,-26.4594 -6.93069,-39.8514 -0.73895,-6.3217 -1.01071,-12.6962 -1.15512,-19.0594 -0.28833,-12.7045 -0.50223,-25.457 0.57756,-38.1188 0.52983,-6.2128 0.74779,-12.6252 2.88779,-18.4818 2.16434,-5.9232 5.31579,-11.7563 9.81847,-16.1716 4.92745,-4.8319 11.4991,-7.8269 17.90427,-10.396 10.66116,-4.2762 22.15247,-6.2919 33.49832,-8.0858 12.39671,-1.96 25.0019,-2.353 37.54121,-2.8878 22.69743,-0.968 45.43386,-0.6675 68.15175,-0.5776 23.4903,0.093 46.97379,0.8268 70.46197,1.1551 33.30476,0.4655 66.61222,0.7169 99.91735,1.1552 52.1738,0.6866 104.3437,1.6562 156.518,2.3102 37.3478,0.4681 74.6972,0.7912 112.0461,1.1551 20.9845,0.2044 41.9683,0.5498 62.9538,0.5776 88.5606,0.1175 177.117,-1.2435 265.6763,-1.7327 42.5465,-0.235 85.0932,-0.4302 127.6401,-0.5776 80.0877,-0.2775 160.1757,-0.4812 240.2638,-0.5775 16.9417,-0.02 33.8997,-0.7452 50.825,0 13.1294,0.5781 26.3073,1.3246 39.2739,3.4653 8.0161,1.3234 16.1252,2.7858 23.6798,5.7756 4.7294,1.8717 9.3023,4.3431 13.2838,7.5082 4.9066,3.9004 9.6246,8.4033 12.7063,13.8614 3.3546,5.9413 4.8031,12.8837 5.7756,19.6369 1.2074,8.3844 0.3754,16.9501 0,25.4126 -0.3854,8.6889 -1.22,17.3611 -2.3103,25.99 -1.6387,12.9684 -3.9374,25.8501 -6.3531,38.6964 -1.2002,6.3826 -2.3631,12.7858 -4.0429,19.0593 -2.0944,7.8217 -4.3394,15.6509 -7.5082,23.1023 -1.2808,3.0118 -2.6721,6.0337 -4.6205,8.6634 -1.6209,2.1876 -5.7756,5.7756 -5.7756,5.7756"
         id="path3071"
         sodipodi:nodetypes="csssssssssssssssssssssssssssssssc" />
      <path
         style="fill:none;fill-rule:evenodd;stroke:#000000;stroke-width:1.45481;stroke-linecap:round;stroke-linejoin:round;stroke-dasharray:none;stroke-opacity:1"
         d="m 1312.2099,1454.2889 h -56.6006"
         id="path3169" />
      <path
         style="fill:none;fill-rule:evenodd;stroke:#000000;stroke-width:1.45481;stroke-linecap:round;stroke-linejoin:round;stroke-dasharray:none;stroke-opacity:1"
         d="m 1396.5332,1455.4441 h 32.3432"
         id="path3171" />
      <path
         style="fill:none;fill-rule:evenodd;stroke:#000000;stroke-width:1.45481;stroke-linecap:round;stroke-linejoin:round;stroke-dasharray:none;stroke-opacity:1"
         d="m 1513.1998,1456.5992 40.429,1.1551"
         id="path3173" />
      <path
         style="fill:none;fill-rule:evenodd;stroke:#000000;stroke-width:1.45481;stroke-linecap:round;stroke-linejoin:round;stroke-dasharray:none;stroke-opacity:1"
         d="m 1408.0844,1354.9491 c -21.5657,-0.6639 -43.1955,0.3968 -64.6864,2.3102 -13.5595,1.2072 -27.478,1.5815 -40.429,5.7756 -15.73,5.0941 -30.8546,12.9364 -43.8944,23.1023 -11.8272,9.2206 -19.1351,23.196 -30.0329,33.4983 -8.958,8.4685 -18.2271,16.8958 -28.8779,23.1023 -8.9576,5.2198 -18.7439,9.3633 -28.8779,11.5511 -25.2418,5.4494 -51.5692,3.4253 -77.3926,3.4654 -18.4978,0.029 -36.9585,-1.6753 -55.4455,-2.3102 -28.4864,-0.9784 -56.99782,-1.1761 -85.47847,-2.3103 -21.96014,-0.8745 -43.99707,-1.0502 -65.84152,-3.4653 -25.2296,-2.7894 -51.21944,-4.0535 -75.08243,-12.7063 -10.05747,-3.6469 -20.40552,-8.3671 -27.72275,-16.1716 -6.47762,-6.909 -9.29627,-16.577 -12.70625,-25.4125 -3.59918,-9.3257 -7.46584,-18.9009 -8.0858,-28.8778 -0.48294,-7.7719 -0.30564,-16.2894 3.46534,-23.1023 3.4382,-6.2117 9.8637,-10.603 16.1716,-13.8614 9.87341,-5.1002 21.32866,-6.6108 32.3432,-8.0858 35.88145,-4.8052 72.38016,-2.0175 108.58075,-2.3102 75.46599,-0.6102 150.93423,0.9626 226.40243,1.1551 93.1789,0.2377 186.3584,0 279.5376,0 h 270.2968 c 83.1682,0 166.3579,-1.8887 249.5047,0 16.9548,0.3851 34.1508,-0.7858 50.825,2.3102 9.5771,1.7782 19.305,4.3394 27.7228,9.2409 4.4766,2.6066 9.2404,5.7598 11.5511,10.3961 3.9651,7.9559 2.8312,17.6936 2.3102,26.5676 -0.6683,11.383 -2.5322,22.9782 -6.9306,33.4983 -2.6776,6.4042 -6.781,12.2841 -11.5512,17.3267 -5.2921,5.5942 -11.6014,10.4028 -18.4818,13.8614 -9.6877,4.8697 -20.6056,6.8796 -31.1881,9.2409 -17.4857,3.9016 -35.3037,6.3521 -53.1353,8.0858 -26.8508,2.6106 -53.8943,2.6067 -80.858,3.4653 -36.9529,1.1766 -73.9213,1.9252 -110.8909,2.3103 -22.331,0.2326 -44.6999,1.2581 -66.9967,0 -10.2524,-0.5785 -20.5202,-1.5597 -30.6105,-3.4654 -5.8736,-1.1093 -11.8224,-2.2899 -17.3267,-4.6204 -6.2024,-2.6261 -11.8948,-6.4136 -17.3267,-10.3961 -7.2591,-5.3222 -13.5497,-11.8544 -20.2145,-17.9042 -8.3717,-7.5992 -16.6971,-15.2533 -24.835,-23.1023 -4.8991,-4.7252 -9.135,-10.173 -14.4389,-14.4389 -4.4528,-3.5814 -9.4072,-6.5327 -14.4389,-9.241 -6.6784,-3.5946 -13.5518,-6.9825 -20.7921,-9.2409 -9.9125,-3.0919 -20.2872,-4.659 -30.6105,-5.7755 -13.2124,-1.4289 -21.6878,-1.9506 -34.9508,-2.7888 -7.915,-0.5002 -20.6535,-0.4326 -28.5805,-0.6766 z"
         id="path3901"
         sodipodi:nodetypes="ssssssssssssssssssssssssssssssssssssssssssssss" />
      <path
         style="fill:none;fill-rule:evenodd;stroke:#000000;stroke-width:1.45481;stroke-linecap:round;stroke-linejoin:round;stroke-dasharray:none;stroke-opacity:1"
         d="m 814.35561,1350.9062 c 3.34389,-2.0036 7.21129,-3.0225 10.97358,-4.0429 5.28487,-1.4334 10.72523,-2.3208 16.1716,-2.8878 12.45236,-1.2964 25.02175,-1.0853 37.54122,-1.1551 9.8202,-0.055 19.64059,0.2478 29.45541,0.5776 8.0904,0.2719 16.20366,0.3393 24.25741,1.1551 8.72291,0.8836 17.45062,2.056 25.99007,4.0429 3.14325,0.7313 6.38502,1.3849 9.24091,2.8878 3.03331,1.5963 5.91921,3.697 8.0858,6.3531 2.99314,3.6694 5.06638,8.1491 6.35313,12.7063 1.20775,4.2774 1.03404,8.8408 1.15512,13.2838 0.16267,5.969 1.24471,12.2179 -0.57756,17.9042 -0.84734,2.6441 -2.53894,5.0932 -4.62046,6.9307 -2.5818,2.2792 -5.93803,3.6451 -9.24091,4.6205 -5.01586,1.4813 -10.36618,1.5833 -15.59405,1.7327 -10.79212,0.3084 -21.56161,-1.1651 -32.3432,-1.7327 -11.16557,-0.5879 -22.34558,-0.9376 -33.49831,-1.7327 -6.36318,-0.4536 -12.74611,-0.8171 -19.05939,-1.7327 -6.80046,-0.9863 -13.64567,-2.0256 -20.2145,-4.0429 -7.58801,-2.3303 -15.47271,-4.6486 -21.94717,-9.2409 -4.44699,-3.1542 -7.89717,-7.6275 -10.97359,-12.1287 -2.18617,-3.1986 -4.01564,-6.7065 -5.19801,-10.396 -1.13013,-3.5265 -1.58491,-7.2734 -1.73268,-10.9736 -0.10016,-2.5081 -0.53784,-5.2595 0.57756,-7.5082 1.03014,-2.0768 3.20942,-3.429 5.19802,-4.6205 z"
         id="path3903"
         sodipodi:nodetypes="sssssssssssssssssssssssss" />
      <path
         style="fill:none;fill-rule:evenodd;stroke:#000000;stroke-width:1.45481;stroke-linecap:round;stroke-linejoin:round;stroke-dasharray:none;stroke-opacity:1"
         d="m 1834.3216,1359.5696 c 3.4983,-2.5454 6.961,-5.3132 10.9736,-6.9307 6.1983,-2.4986 13.0382,-2.985 19.6369,-4.0429 9.9504,-1.5952 19.9901,-2.6315 30.033,-3.4654 11.3343,-0.9411 22.7025,-1.7388 34.0758,-1.7326 14.844,0.01 29.781,0.1842 44.4719,2.3102 4.8986,0.7089 9.6647,2.1593 14.439,3.4653 2.5257,0.6909 5.4803,0.6537 7.5082,2.3103 1.8681,1.5261 3.054,3.9762 3.4654,6.3531 0.6315,3.6489 -0.7246,7.4103 -1.7327,10.9736 -1.3626,4.8165 -3.3074,9.5067 -5.7756,13.8614 -2.7151,4.7902 -5.7138,9.6138 -9.8185,13.2838 -3.1509,2.8172 -7.0787,4.7114 -10.9735,6.3531 -4.6057,1.9413 -9.5588,2.9639 -14.439,4.0429 -10.4763,2.3164 -21.0952,4.0747 -31.7656,5.198 -8.0505,0.8475 -16.1684,0.8436 -24.2574,1.1551 -13.0873,0.504 -26.1769,1.1395 -39.2739,1.1551 -7.1258,0.01 -14.3912,0.8644 -21.3696,-0.5775 -4.0612,-0.8392 -8.4573,-1.8591 -11.5512,-4.6205 -2.1207,-1.8928 -3.348,-4.752 -4.0429,-7.5082 -0.9413,-3.7336 -0.1745,-7.7048 0,-11.5512 0.1927,-4.2485 0.2843,-8.5434 1.1551,-12.7062 0.6233,-2.9795 1.7229,-5.8511 2.8878,-8.6634 0.8237,-1.9886 1.5514,-4.0882 2.8878,-5.7755 0.9336,-1.1787 2.2496,-2.0031 3.4654,-2.8878 z"
         id="path4631"
         sodipodi:nodetypes="sssssssssssssssssssssssss" />
      <path
         style="fill:none;fill-rule:evenodd;stroke:#000000;stroke-width:1.45481;stroke-linecap:round;stroke-linejoin:round;stroke-dasharray:none;stroke-opacity:1"
         d="m 1897.2753,1290.8403 1.7327,-49.6699 1.7326,-6.9307 5.1981,-3.4654 5.198,-1.1551 38.1187,-1.1551 6.9307,1.7327 4.0429,7.5082 v 15.5941 l -1.1551,38.1187"
         id="path4633" />
      <path
         style="fill:none;fill-rule:evenodd;stroke:#000000;stroke-width:1.45481;stroke-linecap:round;stroke-linejoin:round;stroke-dasharray:none;stroke-opacity:1"
         d="m 849.46075,1287.2597 0.40839,-49.8241 2.04197,-5.3091 5.30913,-2.8588 43.69823,-0.4084 4.90073,1.6336 3.26716,4.4923 0.81679,53.9081"
         id="path4635" />
      <path
         style="fill:none;fill-rule:evenodd;stroke:#000000;stroke-width:1.45481;stroke-linecap:round;stroke-linejoin:round;stroke-dasharray:none;stroke-opacity:1"
         d="m 686.51131,1443.2665 -8.1679,-0.8168 -11.43504,-3.2672 -12.25184,-6.9427 -4.90074,-3.2671 -11.84344,-13.4771 -12.25184,-17.1525 -12.25184,-26.5457 -11.84344,-26.954 -11.84344,-30.6296 -14.70221,-44.1066 -15.1106,-52.2745 -10.61826,-47.7822 -8.98468,-44.9234 -5.71752,-39.2059 -7.3511,-48.1905 -2.45037,-43.69827 -1.22519,-22.8701 0.81679,-31.03798 2.04198,-30.2212 1.22518,-12.66024 0.40839,-14.29381"
         id="path4637" />
      <path
         style="fill:none;fill-rule:evenodd;stroke:#000000;stroke-width:2.9742;stroke-linecap:round;stroke-linejoin:round;stroke-dasharray:none;stroke-opacity:1"
         d="m 575.8245,1271.2033 -47.93725,5.198"
         id="path4639" />
      <path
         style="fill:none;fill-rule:evenodd;stroke:#000000;stroke-width:2.9742;stroke-linecap:round;stroke-linejoin:round;stroke-dasharray:none;stroke-opacity:1"
         d="m 2269.7997,1279.8667 -45.0495,-4.6205"
         id="path6093" />
      <path
         style="fill:none;fill-rule:evenodd;stroke:#000000;stroke-width:1.07497;stroke-linecap:round;stroke-linejoin:round;stroke-dasharray:none;stroke-opacity:1"
         d="m 1442.7378,1112.3751 -138.6137,2.3102 -218.3166,-3.4653 -255.28029,-13.8614 c 0,0 -11.63409,-1.9535 -17.32672,-3.4653 -10.59128,-2.8127 -22.03958,-4.3636 -31.18809,-10.3961 -7.74142,-5.1047 -14.01604,-12.6653 -18.48182,-20.792 -4.04989,-7.3699 -6.93069,-24.2574 -6.93069,-24.2574 l 4.62046,-4.6205 c 0,0 20.6023,0.087 30.03297,-3.4653 5.69727,-2.1458 10.65348,-6.1501 15.01649,-10.396 5.13281,-4.9951 9.97787,-10.7047 12.70625,-17.3268 2.96638,-7.19975 2.68225,-15.35482 3.46535,-23.10224 0.73673,-7.28871 0.96253,-14.62386 1.15511,-21.94718 0.29354,-11.16224 0.1717,-22.33353 0,-33.49831 -0.18166,-11.81247 -0.57115,-23.62236 -1.08982,-35.42484 -0.41905,-9.53555 -1.1343,-19.05594 -1.63357,-28.58762 -0.59882,-11.43234 -1.03476,-22.87281 -1.63358,-34.30515 -0.49927,-9.53169 -1.02128,-19.06253 -1.63358,-28.58762 -0.73543,-11.44057 -1.43116,-22.88636 -2.45037,-34.30515 -0.68163,-7.63664 -0.90751,-15.35994 -2.45037,-22.87009 -1.49041,-7.25485 -3.31018,-14.56875 -6.53431,-21.23652 -2.30127,-4.75921 -5.67985,-8.94261 -8.98468,-13.06863 -3.2518,-4.05983 -6.38578,-8.41139 -10.61826,-11.43505 -4.3638,-3.11747 -14.70221,-6.53431 -14.70221,-6.53431 l -12.25183,-3.26716 -13.88542,-2.45037 H 740.011 l 1.63357,-6.53431 5.71753,-11.43505 10.61826,-7.3511 8.16789,-8.98468 2.45037,-11.43505 -0.80996,-9.33197 5.77557,-28.87786 13.86137,-51.98014 21.94718,-70.46198 16.1716,-48.5148 12.16975,-29.21618 35.55231,-75.61894 -0.57756,-6.93069 -3.46534,-5.19801 -0.57756,-10.39603 4.62046,-4.62046 7.50824,-3.46534 9.24092,-9.81847 c 0,0 22.80133,-11.47963 34.65343,-16.1716 12.62319,-4.99723 25.74397,-8.63764 38.69633,-12.70626 9.58788,-3.01176 19.08327,-6.41292 28.87785,-8.66336 18.81639,-4.32333 38.09559,-6.30763 57.17819,-9.24091 18.4605,-2.83766 36.894,-5.92123 55.4455,-8.0858 10.9415,-1.27664 21.959,-1.79818 32.9207,-2.88779 17.3479,-1.72441 34.618,-4.20245 51.9802,-5.77557 10.9557,-0.99265 21.929,-1.86999 32.9207,-2.31023 19.2374,-0.77049 38.5031,-0.4813 57.7557,-0.57756 6.4493,-0.0323 19.3482,0 19.3482,0 l 6.9307,1.15512 6.9307,3.17656 16.4604,8.37458 12.4174,6.35313 11.2624,3.46534 13.8614,0.86634 h 18.7706 l 25.7013,0.28878 22.5247,0.28878 11.8399,-0.86634 8.0858,-1.15511 7.2195,-3.17657 12.7062,-6.35313 15.3053,-8.0858 8.6634,-3.17656 c 0,0 12.5115,-0.48129 18.7706,-0.57756 8.2773,-0.12731 16.5592,-0.20908 24.8349,0 17.1506,0.43331 34.2742,1.62399 51.4026,2.59901 7.6074,0.43304 15.2216,0.79359 22.8135,1.44389 7.1386,0.61147 14.254,1.47287 21.3696,2.31023 15.9012,1.87125 31.7005,4.64607 47.6485,6.06435 5.6643,0.50373 11.3925,0.18334 17.038,0.86634 5.0603,0.6122 9.9718,2.15777 15.0164,2.88778 12.7309,1.84229 25.6959,1.78339 38.4076,3.75412 7.2948,1.13093 14.4336,3.1053 21.6584,4.62046 12.6009,2.64264 25.3264,4.72683 37.83,7.79702 9.5279,2.33951 19.082,4.72763 28.3003,8.0858 8.4211,3.06776 24.5462,10.97359 24.5462,10.97359 l 17.9042,7.79702 13.8614,8.95214 8.9521,8.95213 5.7756,0.86634 3.1766,3.75412 4.3317,9.81847 -1.1552,5.19802 -4.0429,4.62045 1.4439,8.0858 8.6634,17.6155 21.3696,46.78213 10.1073,20.79206 18.9502,42.67484 15.519,40.83946 13.0686,38.38909 13.8854,45.7402 8.1679,33.48836 2.0259,11.69786 -0.5775,9.5297 0.5775,5.19801 4.0429,10.10725 7.2195,7.50824 7.5083,6.06435 8.0858,7.79703 4.0429,6.93068 1.4438,8.37458 -5.7755,2.31023 -8.3746,1.44389 -9.2409,1.15512 c 0,0 -7.2022,2.5025 -10.6848,4.0429 -5.2363,2.3161 -10.9233,4.11183 -15.3053,7.79702 -2.5785,2.16844 -4.1508,5.31288 -6.0643,8.0858 -1.9414,2.81338 -3.9795,5.59541 -5.4868,8.66336 -1.9873,4.04493 -3.4692,8.34904 -4.6205,12.70625 -1.4716,5.56917 -2.0938,11.33261 -2.8878,17.03794 -0.7341,5.27485 -1.2434,10.57966 -1.7326,15.88282 -0.47,5.09463 -0.855,10.19782 -1.1552,15.30527 -0.537,9.13699 -0.6581,18.29471 -1.1551,27.43396 -0.4714,8.66978 -1.155,17.32672 -1.7326,25.99008 -0.6738,10.10725 -1.4075,20.21069 -2.0215,30.32175 -0.4266,7.02454 -0.8097,14.05183 -1.1551,21.08083 -0.435,8.85356 -0.8789,17.70769 -1.1551,26.56763 -0.3179,10.20037 -0.6043,20.40524 -0.5776,30.61053 0.021,7.99184 0.3926,15.97891 0.5776,23.96863 0.1003,4.33158 0.068,8.66792 0.2888,12.99503 0.1231,2.41104 0.2319,4.83016 0.5775,7.21947 0.5352,3.69953 1.2659,7.38437 2.3102,10.97358 0.9191,3.15879 2.1154,6.24091 3.4654,9.24091 1.5196,3.377 3.0919,6.7725 5.198,9.8185 1.2411,1.7951 2.6974,3.4629 4.3317,4.9092 3.0592,2.7073 6.443,5.1248 10.1072,6.9307 3.9046,1.9244 8.2184,2.8956 12.4175,4.0429 5.1365,1.4034 15.594,3.4653 15.594,3.4653 l 7.7971,0.8664 2.8878,1.7327 0.8663,6.0643 c 0,0 -3.8362,10.9555 -6.3531,16.1716 -1.8368,3.8067 -3.7781,7.6219 -6.3532,10.9736 -2.9857,3.8862 -6.5332,7.38 -10.396,10.396 -3.9817,3.1088 -8.3992,5.7003 -12.995,7.797 -4.5142,2.0595 -9.349,3.3682 -14.1502,4.6205 -6.7405,1.7582 -13.5983,3.1226 -20.5033,4.0429 -6.7913,0.9051 -13.6714,0.9273 -20.5032,1.4439 -9.5335,0.7209 -28.5891,2.3102 -28.5891,2.3102 l -28.5891,1.7327 -35.8085,1.1551 -32.0545,0.8663 -65.5527,2.599 -80.2805,2.3103 -47.3596,1.1551 -65.8416,1.1551 z"
         id="path6095"
         sodipodi:nodetypes="ccccsssccsssssssssssssssccccccccccccccccccccccsssssssssccccccccccccccccssssssssssssccccccccccccccccccccccccccccccsssssssssssssssssssssssccccsssssssccccccccc" />
      <rect
         style="fill:none;fill-rule:evenodd;stroke:#000000;stroke-width:1.08685;stroke-linecap:round;stroke-linejoin:round;stroke-dasharray:none;stroke-opacity:1"
         id="rect6149"
         width="573.37415"
         height="119.2394"
         x="1117.3734"
         y="852.73383"
         ry="17.055998" />
      <path
         style="fill:none;fill-rule:evenodd;stroke:#000000;stroke-width:1.07497;stroke-linecap:round;stroke-linejoin:round;stroke-dasharray:none;stroke-opacity:1"
         d="m 1432.6822,722.52009 c 18.9969,1.55335 18.486,1.41721 37.5383,1.97191 24.7894,0.72173 49.5516,2.18401 74.3278,3.26716 25.0479,1.09503 50.118,1.76096 75.1446,3.26716 21.2608,1.27956 42.5409,2.54577 63.7096,4.90073 13.1259,1.46022 26.3568,2.66446 39.2059,5.71752 6.7012,1.59226 13.1957,4.00668 19.6029,6.53432 6.6865,2.63781 13.9062,4.6014 19.603,8.98468 4.7521,3.65638 8.4617,8.67858 11.435,13.88542 4.7407,8.30206 7.6515,17.63865 9.8015,26.95404 1.1698,5.06834 1.4764,10.31979 1.6336,15.51899 0.3707,12.25833 -0.5263,24.54167 -1.6336,36.75552 -1.2654,13.95835 -2.8321,27.94086 -5.7175,41.65624 -2.8564,13.57754 -7.1382,26.83007 -11.4351,40.02267 -2.6942,8.27194 -5.4854,16.53883 -8.9847,24.50368 -3.8204,8.6958 -7.8984,17.3529 -13.0686,25.32046 -4.7448,7.3121 -9.9781,14.4565 -16.3358,20.41971 -7.272,6.8208 -15.4555,12.9652 -24.5037,17.1526 -10.7276,4.9646 -22.6435,7.0519 -34.3051,8.9847 -18.5819,3.0797 -37.5611,2.8879 -56.3585,4.0839 -19.8648,1.2639 -39.7339,2.54 -59.6256,3.2672 -29.6618,1.0844 -59.3542,1.0423 -89.03,1.6336 -25.3213,0.5046 -50.6365,1.3612 -75.9614,1.6335 -22.8688,0.2459 -45.7419,0.2788 -68.6103,0 -33.4958,-0.4084 -67.0113,-0.7231 -100.465,-2.4503 -20.7288,-1.0702 -41.4506,-2.5727 -62.076,-4.9008 -9.2975,-1.0494 -18.6319,-2.0783 -27.7709,-4.0839 -9.4247,-2.0683 -19.1453,-3.843 -27.7708,-8.1679 -7.3014,-3.661 -13.7524,-9.0026 -19.6029,-14.7022 -5.9696,-5.81558 -10.5221,-12.933 -15.519,-19.60295 -4.8011,-6.40856 -9.9944,-12.60434 -13.8854,-19.60294 -5.4547,-9.81133 -9.4057,-20.42671 -13.0687,-31.03799 -4.0517,-11.73746 -7.41,-23.75408 -9.8014,-35.93872 -2.1658,-11.03496 -2.9606,-22.29913 -4.084,-33.48836 -1.0368,-10.32627 -2.2489,-20.66176 -2.4503,-31.03799 -0.1322,-6.81074 -0.062,-13.6646 0.8167,-20.41973 0.6474,-4.97836 1.9271,-9.86408 3.2672,-14.7022 2.2982,-8.29731 4.2409,-16.84168 8.1679,-24.50368 2.7573,-5.37978 6.2642,-10.50845 10.6182,-14.7022 6.3632,-6.12909 13.869,-11.37464 22.0534,-14.70221 15.137,-6.15435 31.9822,-6.91191 48.1905,-8.98468 15.4315,-1.97343 31.0435,-2.10232 46.557,-3.26716 13.6183,-1.02254 27.2111,-2.38982 40.8395,-3.26715 11.153,-0.71797 22.3289,-1.02326 33.4883,-1.63358 8.9878,-0.49155 17.9666,-1.13656 26.9541,-1.63358 16.3312,-0.90314 32.6615,-1.86795 49.0073,-2.45037 12.7911,-0.45576 25.595,-0.45224 38.3891,-0.81679 15.2503,-0.43454 31.6633,-1.34144 46.8953,-0.47846 5.4974,0.31146 29.3297,-0.30861 34.8176,0.14013 z"
         id="path6877"
         sodipodi:nodetypes="sssssssssssssssssssssssssssssssssssssssssssssssss" />
      <path
         style="fill:none;fill-rule:evenodd;stroke:#000000;stroke-width:1.07497;stroke-linecap:round;stroke-linejoin:round;stroke-dasharray:none;stroke-opacity:1"
         d="m 1784.276,805.76253 -9.3931,4.08394 -17.9694,4.90074 -15.519,2.85876 -17.1525,1.63358 -15.9274,0.40839 -22.8701,0.81679 -17.561,-0.40839 h -17.9694 l -29.4044,0.40839 -36.3471,0.4084 h -45.3318 -40.0227 l -42.473,0.40839 h -51.4577 -25.3205 l -33.8967,0.40839 h -24.5037 l -26.954,-0.40839 h -37.9807 l -25.3205,0.40839 -35.5303,0.4084 h -40.8395 -40.4311 l -15.519,-0.81679 -31.4463,-3.67555 -22.8701,-4.49234 -16.3358,-4.08395 -3.6756,-2.04197"
         id="path6879" />
      <path
         style="fill:none;fill-rule:evenodd;stroke:#000000;stroke-width:1.07497;stroke-linecap:round;stroke-linejoin:round;stroke-dasharray:none;stroke-opacity:1"
         d="m 749.40407,1027.9292 c -15.64665,0.5328 -31.33009,0.3911 -46.96538,-0.4084 -8.7392,-0.4468 -17.44366,-1.453 -26.13725,-2.4504 -11.05535,-1.2683 -22.22685,-2.0348 -33.07996,-4.4923 -7.38995,-1.6734 -14.89878,-3.4929 -21.64491,-6.9427 -5.72101,-2.9256 -11.03765,-6.8301 -15.519,-11.4351 -2.66002,-2.73344 -4.67783,-6.06125 -6.53431,-9.39305 -2.16644,-3.88807 -3.87973,-8.03671 -5.30913,-12.25184 -1.62231,-4.78397 -2.69163,-9.74739 -3.67555,-14.70221 -0.72372,-3.6445 -1.32564,-7.32377 -1.63358,-11.02665 -0.59806,-7.19143 -0.49487,-14.42917 -0.4084,-21.64491 0.11429,-9.53727 0.40007,-19.08542 1.22519,-28.58762 0.72452,-8.34373 2.09013,-16.62006 3.26715,-24.91207 1.39346,-9.81679 2.7863,-19.63709 4.49234,-29.40441 1.4562,-8.33696 3.01723,-16.66114 4.90074,-24.91207 2.28533,-10.01115 5.10478,-19.89321 7.7595,-29.81281 1.46,-5.45542 2.79272,-10.9502 4.49234,-16.33578 1.82717,-5.78975 3.8262,-11.53377 6.12592,-17.15258 2.33016,-5.69318 5.0406,-11.22606 7.75949,-16.74417 2.98726,-6.06277 5.76147,-12.26917 9.39308,-17.96937 3.13079,-4.9141 6.7099,-9.56396 10.61826,-13.88541 4.0053,-4.42863 8.33072,-8.61764 13.06863,-12.25184 3.68678,-2.82793 7.67711,-5.2941 11.84344,-7.3511 4.82889,-2.38413 9.94188,-4.20539 15.1106,-5.71753 5.07372,-1.48434 10.27634,-2.58853 15.51899,-3.26715 5.40696,-0.69989 10.88412,-0.88216 16.33579,-0.81679 3.68536,0.0442 7.36171,0.42695 11.02665,0.81679 4.92002,0.52335 9.81423,1.27507 14.70221,2.04197 5.4612,0.85683 11.04309,1.26304 16.33578,2.85876 2.27623,0.68627 4.35264,1.91403 6.53431,2.85876 3.80552,1.6479 7.92797,2.68763 11.43505,4.90074 5.05767,3.1916 9.45805,7.41465 13.47702,11.84344 2.81819,3.10556 5.40841,6.49334 7.35111,10.20987 2.27376,4.34986 3.5242,9.1741 4.90073,13.88541 1.17611,4.02535 2.12121,8.12356 2.85876,12.25184 0.77211,4.32168 1.20839,8.69916 1.63358,13.06863 0.56832,5.8403 0.80688,11.70801 1.22518,17.56097 0.39895,5.58207 0.79485,11.16443 1.22519,16.74417 0.77718,10.07687 1.74519,20.13904 2.45037,30.2212 0.3235,4.62517 0.5588,9.25613 0.81678,13.88542 0.43234,7.7582 0.86146,15.51677 1.22519,23.27849 0.46558,9.93509 0.85392,19.87375 1.22518,29.81281 0.60504,16.1975 1.61983,32.39016 1.63358,48.59895 0.0109,12.80287 0.0342,25.6483 -1.22518,38.38909 -0.32581,3.29616 -0.74108,6.61176 -1.63358,9.80147 -1.38275,4.94182 -3.4252,9.70261 -5.71753,14.29378 -1.99196,3.9896 -3.93771,8.1404 -6.9427,11.4351 -3.0824,3.3795 -6.97777,6.0398 -11.02666,8.1679 -4.45851,2.3434 -9.39975,3.7098 -14.29381,4.9007 -3.61032,0.8785 -7.32103,1.3606 -11.02665,1.6336 -4.61596,0.3401 -9.26036,-0.1776 -13.88542,0 -1.77363,0.068 -3.53522,0.348 -5.30913,0.4084 z"
         id="path8333"
         sodipodi:nodetypes="ssssssssssssssssssssssssssssssssssssssssssssssssssss" />
      <path
         style="fill:none;fill-rule:evenodd;stroke:#000000;stroke-width:1.07497;stroke-linecap:round;stroke-linejoin:round;stroke-dasharray:none;stroke-opacity:1"
         d="m 722.52402,705.1973 c 4.63313,0.17607 9.26493,0.54719 13.86137,1.15512 6.40154,0.84667 12.81842,1.80796 19.05939,3.46534 3.35442,0.89081 6.70364,1.9345 9.81847,3.46534 3.49853,1.71941 6.73444,3.96884 9.81847,6.35313 2.47942,1.91686 4.93197,3.93921 6.93068,6.35313 3.03244,3.66239 5.60534,7.77121 7.50825,12.1287 2.31781,5.30757 3.62368,11.04399 4.62046,16.74916 1.29605,7.41806 1.2991,15.0068 1.73267,22.52473 0.57681,10.00177 0.68851,20.02545 1.15511,30.03297 0.65553,14.0597 1.6322,28.10304 2.31023,42.16167 0.44554,9.2382 0.7526,18.48258 1.15511,27.72275 0.36902,8.47155 0.96255,16.93511 1.15512,25.41251 0.2186,9.62347 0.18501,19.25368 0,28.87786 -0.0963,5.00827 -0.23851,10.01878 -0.57756,15.01649 -0.33423,4.92679 -0.63319,9.87211 -1.43518,14.74466 -0.68108,4.13797 -1.48823,8.28847 -2.85877,12.25184 -1.47287,4.25928 -3.1698,8.53432 -5.71752,12.25184 -2.66697,3.89153 -5.79027,7.72652 -9.80147,10.20986 -3.88049,2.40241 -8.60108,3.15084 -13.06863,4.084 -8.57922,1.792 -17.39058,2.302 -26.13725,2.8587 -7.47335,0.4756 -14.97425,0.5322 -22.4617,0.4084 -10.63076,-0.1757 -21.24931,-0.8799 -31.85478,-1.6336 -8.99903,-0.6395 -18.05546,-0.9648 -26.95404,-2.45034 -6.77382,-1.13082 -13.57747,-2.49892 -20.01134,-4.90073 -5.30459,-1.98024 -10.53509,-4.42413 -15.1106,-7.7595 -3.57816,-2.60834 -6.74549,-5.84386 -9.39307,-9.39308 -2.22169,-2.9783 -3.88878,-6.36799 -5.30913,-9.80147 -1.46539,-3.54236 -2.64549,-7.2439 -3.26716,-11.02665 -1.17087,-7.12453 -0.75429,-14.42508 -0.81679,-21.64491 -0.0578,-6.67159 0.1985,-13.34281 0.4084,-20.01134 0.20148,-6.4008 0.31048,-12.81062 0.81678,-19.19454 0.46591,-5.87465 1.29206,-11.71578 2.04198,-17.56097 0.9971,-7.77185 2.0337,-15.54063 3.26715,-23.27849 1.21903,-7.64741 2.58314,-15.27297 4.08395,-22.8701 1.61971,-8.19896 3.28533,-16.39501 5.30913,-24.50368 1.81577,-7.27519 3.91876,-14.47875 6.12592,-21.64491 1.39386,-4.52555 2.80343,-9.0531 4.49234,-13.47702 2.32699,-6.0953 4.9776,-12.06779 7.7595,-17.96936 2.67383,-5.67231 5.36717,-11.3566 8.57628,-16.74418 2.95644,-4.96339 5.81543,-10.11203 9.80147,-14.29381 3.41895,-3.58684 7.61046,-6.40855 11.84345,-8.98468 2.70481,-1.64611 5.58068,-3.05825 8.57628,-4.08395 4.21877,-1.44451 8.67605,-2.09075 13.06863,-2.85876 5.13962,-0.89862 10.31382,-1.68224 15.51899,-2.04197 4.64218,-0.32083 9.30951,-0.27686 13.95941,-0.10016 z"
         id="path8335"
         sodipodi:nodetypes="ssssssssssssssssssssssssssssssssssssssssssssss" />
      <ellipse
         style="fill:none;fill-rule:evenodd;stroke:#000000;stroke-width:3.00458;stroke-linecap:round;stroke-linejoin:round;stroke-dasharray:none;stroke-opacity:1"
         id="path8389"
         cx="708.7688"
         cy="831.28723"
         rx="50.013218"
         ry="52.055195" />
      <path
         style="fill:none;fill-rule:evenodd;stroke:#000000;stroke-width:2.24489;stroke-linecap:round;stroke-linejoin:round;stroke-dasharray:none;stroke-opacity:1"
         d="m 589.72179,961.36086 -13.88542,0.81679 -8.57628,0.81679 -19.60295,5.30913 -15.92738,6.12592 -8.1679,4.49234"
         id="path8391" />
      <path
         style="fill:none;fill-rule:evenodd;stroke:#000000;stroke-width:1.10535;stroke-linecap:round;stroke-linejoin:round;stroke-dasharray:none;stroke-opacity:1"
         d="m 644.85506,662.00763 10.61826,-6.94271 8.57628,-5.71752 12.25184,-6.94271 1.63358,-2.85876 2.45037,-6.94271 3.67555,-4.08395 6.94271,-2.45036 10.61826,-0.81679 4.08394,-10.20987 14.29381,-57.17524"
         id="path8393" />
      <path
         style="fill:none;fill-rule:evenodd;stroke:#000000;stroke-width:1.10535;stroke-linecap:round;stroke-linejoin:round;stroke-dasharray:none;stroke-opacity:1"
         d="m 699.99929,625.78319 4.90923,1.73267 8.95214,2.31023 10.10725,2.02145 15.30526,1.15512 12.41748,0.28877 11.26237,0.86634 4.0429,-0.28878 21.94717,0.57756 h 21.6584 52.26892 l 43.60556,0.57756 36.67489,-0.28878 h 27.72274 66.1303 l 33.7871,-0.28878 77.6814,0.57756 90.9653,0.86633 65.2639,0.57756 h 44.4719 101.6501 l 83.7458,0.57756 82.0131,-0.57756 51.9802,-0.57756 95.2969,-0.57756 h 88.9438 l 51.4026,0.57756 109.7358,-0.57756 h 21.9472 l 24.835,-0.57755 17.3267,-1.73267 8.0858,-2.88779 h 11.5511 l 7.5083,6.93069 4.0429,8.0858 -3.4654,3.46534 -23.1023,1.15511 -50.825,0.57756 -82.5907,0.57756 -106.848,-0.57756 h -83.1683 l -88.3662,-0.57756 -65.8415,-0.57755 h -53.1353 l -79.1253,-0.57756 -123.0197,-0.57756 -61.7986,0.57756 h -62.9537 l -82.0132,0.57756 H 1060.395 955.85711 885.97269 809.73515 l -77.97022,-1.73268 -43.31679,-0.57755 -10.97358,-5.19802 3.46534,-10.39603 8.66336,-4.0429 z"
         id="path9121" />
      <path
         style="fill:none;fill-rule:evenodd;stroke:#000000;stroke-width:1.10535;stroke-linecap:round;stroke-linejoin:round;stroke-dasharray:none;stroke-opacity:1"
         d="m 2127.7358,657.92368 -13.0686,-7.3511 -6.5343,-2.85876 -1.2252,-8.98468 -7.7595,-6.94271 -9.8015,-2.04197 -6.1259,-0.4084 -32.6716,-95.97273"
         id="path9123" />
      <path
         style="fill:none;fill-rule:evenodd;stroke:#000000;stroke-width:1.10535;stroke-linecap:round;stroke-linejoin:round;stroke-dasharray:none;stroke-opacity:1"
         d="m 1989.29,861.30419 c 0.4112,-10.07362 0.7414,-20.15081 1.2252,-30.2212 0.4711,-9.80527 0.9987,-19.60838 1.6336,-29.40441 0.7151,-11.03372 1.3227,-22.08076 2.4504,-33.07996 0.8542,-8.33145 1.6796,-16.68877 3.2671,-24.91207 1.0389,-5.38152 2.1341,-10.8051 4.084,-15.92739 1.6896,-4.43831 3.9766,-8.65884 6.5343,-12.66023 2.5079,-3.92337 4.9931,-8.0529 8.5763,-11.02666 3.8886,-3.22728 8.8046,-5.01779 13.477,-6.94271 5.0158,-2.0664 10.2774,-3.50288 15.519,-4.90073 4.3086,-1.14904 8.6546,-2.22544 13.0686,-2.85876 5.8084,-0.83339 11.707,-0.82141 17.561,-1.22519 5.9895,-0.41312 11.9669,-1.34409 17.9694,-1.22518 5.0652,0.10034 10.1529,0.59052 15.1106,1.63358 5.7298,1.2055 11.4554,2.79651 16.7441,5.30913 4.263,2.02533 8.1816,4.7819 11.8435,7.7595 4.3317,3.52229 8.1657,7.64285 11.8434,11.84344 3.8382,4.38391 7.3445,9.06538 10.6183,13.88541 3.5679,5.25309 6.8286,10.72441 9.8014,16.33579 2.8798,5.43587 5.3846,11.06953 7.7595,16.74418 2.2452,5.36467 4.2722,10.82361 6.126,16.33578 3.0342,9.02195 5.7422,18.1582 8.1679,27.36244 1.7084,6.48236 3.0053,13.06624 4.4923,19.60294 1.9193,8.4371 4.0527,16.82948 5.7175,25.32046 1.1153,5.68809 2.0982,11.4063 2.8588,17.15257 1.0949,8.27195 1.5974,16.61168 2.4503,24.91207 0.7837,7.62685 1.8998,15.2229 2.4504,22.8701 0.5283,7.33715 0.8168,22.05331 0.8168,22.05331 v 19.60294 c 0,0 -0.1598,10.38067 -0.8168,15.51899 -0.7754,6.06443 -1.6243,12.20993 -3.6755,17.96937 -1.0827,3.04016 -2.7173,5.88112 -4.4924,8.57628 -1.5437,2.34372 -3.4075,4.47042 -5.3091,6.53432 -3.0663,3.328 -5.9649,6.9935 -9.8015,9.3931 -7.9971,5.0017 -17.3723,7.6058 -26.5456,9.8014 -7.9974,1.9141 -16.32,2.0524 -24.5037,2.8588 -11.8244,1.1651 -23.6609,2.3181 -35.5303,2.8588 -12.6479,0.5761 -25.3205,0.5445 -37.9807,0.4084 -8.4441,-0.091 -16.9414,0.2324 -25.3205,-0.8168 -8.1607,-1.0218 -16.604,-1.9147 -24.0953,-5.3092 -5.2328,-2.3711 -10.0176,-5.9619 -13.8854,-10.2098 -2.6721,-2.9347 -4.5818,-6.5537 -6.1259,-10.2099 -1.8627,-4.41069 -2.7228,-9.19327 -3.6756,-13.8854 -0.9578,-4.71671 -1.6022,-9.50096 -2.0419,-14.29381 -0.9086,-9.9044 -1.1052,-19.86754 -1.2252,-29.81281 -0.097,-8.03233 0.1754,-16.06575 0.4084,-24.09528 0.577,-19.88361 1.639,-39.75018 2.4503,-59.62561 z"
         id="path9125"
         sodipodi:nodetypes="sssssssssssssssssssssssssssccssssssssssssssssss" />
      <path
         style="fill:none;fill-rule:evenodd;stroke:#000000;stroke-width:1.10535;stroke-linecap:round;stroke-linejoin:round;stroke-dasharray:none;stroke-opacity:1"
         d="m 2037.889,715.09893 c 5.0103,-2.18826 10.1818,-4.12316 15.519,-5.30913 4.9456,-1.09896 10.0569,-1.27806 15.1106,-1.63358 8.288,-0.58305 16.6047,-0.68064 24.9121,-0.81679 4.3556,-0.0714 8.7272,-0.3593 13.0686,0 4.9514,0.40979 10.0398,0.73375 14.7022,2.45037 5.9591,2.19407 11.5422,5.63649 16.3358,9.80147 5.5529,4.82474 9.8558,10.9983 13.8854,17.15257 4.3693,6.67303 7.9182,13.89099 11.0267,21.23652 2.5166,5.94672 4.1858,12.21883 6.1259,18.37776 2.7306,8.66833 5.3434,17.37605 7.7595,26.13725 1.9047,6.90688 3.7212,13.8416 5.3091,20.82812 1.8461,8.12249 3.4382,16.30343 4.9007,24.50368 1.2339,6.91843 2.3638,13.85882 3.2672,20.82812 0.686,5.2927 1.1302,10.61421 1.6336,15.92739 0.5929,6.25765 1.2982,12.50942 1.6335,18.78615 0.3631,6.79825 0.2484,13.61367 0.4084,20.41973 0.1184,5.03731 0.5965,10.0754 0.4084,15.1106 -0.2503,6.70041 -0.8083,13.42071 -2.0419,20.01134 -1.039,5.55102 -2.0945,11.22274 -4.4924,16.33578 -2.3251,4.95767 -5.3826,9.74867 -9.3931,13.47702 -3.7105,3.44946 -8.3148,6.00798 -13.0686,7.7595 -8.295,3.05626 -17.45,2.85517 -26.1372,4.4923 -5.3259,1.0037 -10.549,2.5994 -15.9274,3.2672 -9.0604,1.125 -18.2348,1.0209 -27.3625,1.2252 -10.0712,0.2254 -20.1634,0.566 -30.2212,0 -8.4803,-0.4772 -16.9906,-1.1977 -25.3204,-2.8588 -6.2533,-1.247 -12.9249,-2.0038 -18.3778,-5.30911 -3.5406,-2.14618 -6.1175,-5.65359 -8.5763,-8.98468 -3.1488,-4.26587 -6.1069,-8.84741 -7.7595,-13.88542 -2.0525,-6.25711 -2.0411,-13.0305 -2.4503,-19.60294 -0.8374,-13.45098 0,-26.95404 0,-40.43106 0,-12.11571 -0.1652,-24.23254 0,-36.34712 0.2042,-14.97865 0.5895,-29.95686 1.2252,-44.92341 0.6018,-14.16844 1.1495,-28.3516 2.4503,-42.47303 0.8937,-9.70161 2.1568,-19.37245 3.6756,-28.99602 0.7991,-5.06354 1.4104,-10.19324 2.8587,-15.1106 1.3285,-4.5104 3.0486,-8.94573 5.3092,-13.06863 2.4879,-4.53747 5.1071,-9.2334 8.9846,-12.66023 3.0122,-2.66207 6.9344,-4.10857 10.6183,-5.71752 z"
         id="path9888"
         sodipodi:nodetypes="ssssssssssssssssssssssssssssssssssssssss" />
      <path
         style="fill:none;fill-rule:evenodd;stroke:#000000;stroke-width:1.10535;stroke-linecap:round;stroke-linejoin:round;stroke-dasharray:none;stroke-opacity:1"
         d="m 2117.0358,1445.3368 h 6.0643 l 7.7971,-2.0214 13.8613,-5.1981 10.9736,-8.6633 11.5512,-13.2838 11.2623,-16.7492 6.6419,-12.995 9.5297,-21.3696 11.5512,-28.3003 9.8185,-26.8564 5.7755,-15.5941 12.1287,-39.8514 8.0858,-31.1881 4.5017,-24.2196 7.7595,-36.7555 4.9008,-25.3205 4.9007,-32.6715 3.2672,-23.6869 2.6816,-43.3194 v -35.5198 l 0.2888,-35.80854 -1.4439,-30.32175 -2.599,-22.52473 -3.4653,-11.55114 -0.2888,-4.90924"
         id="path9890" />
      <path
         style="fill:none;fill-rule:evenodd;stroke:#000000;stroke-width:3.38443;stroke-linecap:round;stroke-linejoin:round;stroke-dasharray:none;stroke-opacity:1"
         d="m 2270.3772,983.29108 -6.9307,-5.48679 -15.8828,-7.79703 -16.7491,-4.0429 -14.439,-0.86633 h -5.4868"
         id="path9892" />
      <ellipse
         style="fill:none;fill-rule:evenodd;stroke:#000000;stroke-width:3.25338;stroke-linecap:round;stroke-linejoin:round;stroke-dasharray:none;stroke-opacity:1"
         id="path9894"
         ry="50.501934"
         rx="48.25576"
         cy="833.73755"
         cx="2095.8809" />
      <path
         style="fill:none;fill-rule:evenodd;stroke:#000000;stroke-width:1.10535;stroke-linecap:round;stroke-linejoin:round;stroke-dasharray:none;stroke-opacity:1"
         d="m 778.54706,634.44655 2.16584,-13.57259 7.07508,-29.31103 5.19801,-20.50328 8.69259,-31.97879 13.06863,-42.06464 14.29381,-40.83946 15.51899,-42.88144 5.71753,-15.51899 5.30913,-6.12592 18.78615,-15.1106 22.87009,-15.1106 30.6296,-17.56097 31.03799,-12.25183 45.4614,-7.02928 44.4719,-2.88779 64.1089,-2.88778 69.3068,-0.57756 599.9745,0.31378 18.5892,0.84133 26.5677,8.66336 21.9472,9.81847 23.6798,13.28382 15.0165,9.81847 30.033,20.79206 22.5247,17.90427 5.7756,10.97359 5.4867,14.43893 9.241,24.2574 7.2194,18.19305 6.9307,19.63694 10.1073,28.87786 9.8184,33.20954 7.2195,22.23595 8.6634,31.76564 6.3531,23.39107 1.4439,4.33168 0.5775,4.90923"
         id="path9896" />
      <path
         style="fill:none;fill-rule:evenodd;stroke:#000000;stroke-width:1.10535;stroke-linecap:round;stroke-linejoin:round;stroke-dasharray:none;stroke-opacity:1"
         d="m 1095.6259,257.5905 21.9472,-3.46535 c 0,0 23.0777,-3.27749 34.6534,-4.62045 15.5655,-1.80584 31.1635,-3.35373 46.7822,-4.62046 12.1133,-0.98244 24.2597,-1.50422 36.3861,-2.31023 13.8642,-0.92152 27.6935,-2.5479 41.5841,-2.88779 9.4326,-0.2308 18.9038,-0.27884 28.3003,0.57756 8.3527,0.76127 24.835,4.0429 24.835,4.0429 l 18.4818,4.62046 2.8878,1.15511 -1.7327,7.50825 c 0,0 -6.8453,6.18793 -10.9736,8.0858 -4.6674,2.14575 -9.9169,2.84598 -15.0165,3.46534 -12.8061,1.55534 -25.7961,0.56616 -38.6963,0.57756 -14.6327,0.0129 -29.2619,-0.4813 -43.8943,-0.57756 -12.1284,-0.0798 -24.2574,0 -36.3861,0 -8.6634,0 -17.3294,0.21638 -25.9901,0 -11.562,-0.28887 -23.1142,-0.95339 -34.6535,-1.73267 -9.0604,-0.61187 -27.1451,-2.31023 -27.1451,-2.31023 l -18.4819,-4.0429 z"
         id="path9898"
         sodipodi:nodetypes="ccsssssccccsssssssccc" />
      <path
         style="fill:none;fill-rule:evenodd;stroke:#000000;stroke-width:1.10535;stroke-linecap:round;stroke-linejoin:round;stroke-dasharray:none;stroke-opacity:1"
         d="m 1445.6256,251.23737 19.0594,-3.46535 c 0,0 11.0853,-3.09013 16.7491,-4.0429 5.9129,-0.99468 11.9153,-1.44356 17.9043,-1.73267 9.9994,-0.48271 20.0223,-0.0807 30.033,0 11.9373,0.0963 23.8833,0.0302 35.8085,0.57756 12.7293,0.58431 25.4201,1.82963 38.1188,2.88779 10.5955,0.88291 21.1851,1.84011 31.7656,2.88778 10.79,1.06842 21.6116,1.91695 32.3432,3.46535 8.5215,1.22951 25.4126,4.62045 25.4126,4.62045 l 4.6204,1.73267 -1.7327,5.19802 c 0,0 -9.1881,2.22749 -13.8613,2.88778 -10.1319,1.43155 -20.4003,1.63602 -30.6106,2.31023 -10.1976,0.67337 -20.396,1.40292 -30.6105,1.73267 -24.0531,0.7765 -48.1292,0.4813 -72.1946,0.57756 -15.5939,0.0624 -31.1905,0.27345 -46.7822,0 -10.9786,-0.19255 -22.0479,0.3774 -32.9207,-1.15511 -3.144,-0.44315 -6.3,-1.1133 -9.2409,-2.31023 -4.9545,-2.01648 -13.8614,-8.0858 -13.8614,-8.0858 l -5.198,-5.77557 z"
         id="path9900"
         sodipodi:nodetypes="ccssssssscccsssssssccc" />
      <path
         style="fill:none;fill-rule:evenodd;stroke:#000000;stroke-width:1.10535;stroke-linecap:round;stroke-linejoin:round;stroke-dasharray:none;stroke-opacity:1"
         d="m 2278.463,1201.3189 c 0,0 3.8523,21.121 5.198,31.7657 1.6243,12.8481 2.5218,25.7803 3.4654,38.6963 0.7447,10.1927 1.2647,20.4014 1.7327,30.6105 1.0056,21.9376 1.7844,43.8871 2.3102,65.8415 0.3596,15.0134 0.5338,30.0318 0.5775,45.0495 0.08,27.5308 0.3394,55.0751 -0.5775,82.5907 -0.4304,12.9146 -1.1232,25.8292 -2.3102,38.6963 -0.8555,9.2734 -2.2004,18.4962 -3.4654,27.7227 -1.7716,12.9208 -2.7395,26.013 -5.7756,38.6964 -2.4094,10.0652 -5.4333,20.0807 -9.8184,29.4554 -3.2597,6.9688 -6.4503,14.446 -12.1287,19.6369 -4.766,4.3568 -11.1802,6.6843 -17.3267,8.6634 -10.3939,3.3467 -21.4976,3.9301 -32.3432,5.198 -13.0379,1.5242 -26.1523,2.5233 -39.2739,2.8878 -21.5573,0.5988 -43.1423,-0.194 -64.6864,-1.1551 -10.7978,-0.4817 -22.2634,1.5912 -32.3432,-2.3103 -7.5428,-2.9195 -13.8253,-8.8503 -19.0594,-15.0164 -4.1265,-4.8612 -6.5499,-10.9684 -9.2409,-16.7492 -3.3949,-7.293 -6.6505,-14.7362 -8.6634,-22.5247 -2.0915,-8.0926 -2.0111,-16.6039 -3.4653,-24.835 -1.9182,-10.8577 -5.262,-21.4444 -6.9307,-32.3432 -1.2583,-8.2183 -1.3371,-16.578 -2.3103,-24.8349 -0.4781,-4.0559 -1.3439,-8.0633 -1.7326,-12.1287 -0.7521,-7.8668 -1.1551,-23.6799 -1.1551,-23.6799"
         id="path9902"
         sodipodi:nodetypes="csssssssssssssssssssssssc" />
      <path
         style="fill:none;fill-rule:evenodd;stroke:#000000;stroke-width:1.10535;stroke-linecap:round;stroke-linejoin:round;stroke-dasharray:none;stroke-opacity:1"
         d="m 514.98558,1176.9932 c 0,0 -2.04581,14.1402 -2.85876,21.2365 -1.15166,10.053 -2.09702,20.1312 -2.85877,30.2212 -1.2728,16.8592 -1.94374,33.7586 -2.85876,50.641 -1.13612,20.9617 -2.45003,41.9161 -3.26716,62.8927 -0.40815,10.4777 -0.58591,20.9633 -0.81678,31.4464 -0.49763,22.596 -1.02098,45.1929 -1.22519,67.7935 -0.18818,20.8273 -0.35287,41.6593 0,62.4844 0.2723,16.0704 0.75405,32.1419 1.63358,48.1905 0.49307,8.9969 1.1826,17.9847 2.04197,26.9541 0.90186,9.4129 1.657,18.8613 3.26716,28.1792 0.92779,5.3691 1.85684,10.7912 3.67555,15.9274 2.07285,5.8539 4.82314,11.5119 8.16789,16.7442 2.55362,3.9947 5.25596,8.0982 8.98468,11.0266 4.98035,3.9114 11.16004,6.1204 17.15258,8.1679 6.06411,2.072 12.4326,3.248 18.78615,4.084 8.51264,1.1201 17.14663,0.9705 25.72886,1.2252 11.56689,0.3433 23.14176,0.3402 34.71354,0.4083 12.1155,0.071 24.23468,0.2815 36.34712,0 11.7168,-0.2723 23.52135,0.035 35.12193,-1.6335 5.68649,-0.8179 11.80102,-1.1565 16.74418,-4.084 5.55479,-3.2897 9.33177,-9.0294 13.06863,-14.2938 3.49029,-4.917 6.26875,-10.3565 8.57628,-15.9274 2.71945,-6.5653 4.75463,-13.447 6.12592,-20.4197 1.9003,-9.6626 1.86684,-19.6068 2.85876,-29.4044 0.7859,-7.7627 1.6189,-15.5206 2.45037,-23.2785 0.80262,-7.4888 1.96467,-14.9457 2.45037,-22.4617 0.43026,-6.6579 0.2096,-13.3424 0.40839,-20.0113 0.20702,-6.945 0.81679,-20.8282 0.81679,-20.8282"
         id="path9904"
         sodipodi:nodetypes="csssssssssssssssssssssssssssc" />
      <path
         style="fill:#1b1b1b;fill-opacity:1;fill-rule:evenodd;stroke:none;stroke-width:3.61136;stroke-linecap:round;stroke-linejoin:round;stroke-dasharray:none;stroke-opacity:1"
         d="m 1065.0931,814.86813 c -32.5392,-5.76516 -36.0439,-7.5426 -34.914,-17.7069 2.7268,-24.5298 21.0064,-44.29432 48.665,-52.61833 18.1112,-5.45068 110.2648,-12.79013 224.7514,-17.90004 71.485,-3.1906 104.8789,-2.92624 210.7316,1.66828 194.008,8.42088 236.7135,15.30105 253.9873,40.91919 7.396,10.9687 14.9684,32.89683 12.2865,35.57881 -0.8008,0.8008 -9.2148,3.79251 -18.6976,6.64826 -15.2114,4.58085 -56.2903,5.25777 -348.858,5.74864 -182.389,0.30602 -338.9675,-0.74605 -347.9522,-2.33791 z"
         id="path12153" />
      <path
         style="fill:#ff1717;fill-opacity:1;fill-rule:evenodd;stroke:none;stroke-width:3.61136;stroke-linecap:round;stroke-linejoin:round;stroke-dasharray:none;stroke-opacity:1"
         d="m 1145.1384,1110.3687 c -98.2711,-1.9668 -308.21381,-14.3253 -333.24996,-19.6172 -20.76003,-4.388 -26.30181,-7.0616 -36.27324,-17.4998 -10.25998,-10.7403 -18.73221,-31.0204 -14.6602,-35.0924 0.76254,-0.7626 7.7563,-2.1833 15.54168,-3.1572 20.27366,-2.5362 33.79268,-11.9165 42.19795,-29.2795 7.13509,-14.73908 7.23129,-16.62874 5.19126,-101.97539 -2.28265,-95.49661 -6.6825,-157.77679 -12.52364,-177.27276 -7.54595,-25.18613 -34.39038,-45.18876 -60.733,-45.25405 -10.19045,-0.0253 -9.20303,-4.96954 3.63173,-18.18508 l 10.98283,-11.30866 634.76779,0.0126 634.7678,0.0126 12.5814,12.835 c 6.9199,7.05926 12.5815,14.35406 12.5815,16.21069 0,1.85662 -5.5133,4.37527 -12.2518,5.597 -32.9334,5.971 -49.2618,21.17044 -54.4108,50.64878 -3.506,20.07202 -11.6449,162.62855 -11.6983,204.90139 -0.085,67.27698 8.5442,84.96378 45.1412,92.52278 22.4309,4.633 23.4273,6.4947 13.6907,25.5799 -13.7524,26.9569 -34.8269,34.0562 -116.058,39.0962 -125.4368,7.7826 -605.6005,14.6996 -779.2169,11.2251 z m 403.8301,-73.1115 c 103.9474,-3.8003 132.224,-6.8472 155.1759,-16.7208 43.8175,-18.8498 76.3839,-91.57561 80.3819,-179.50517 2.9787,-65.51128 -6.561,-84.2017 -49.792,-97.55441 -28.2391,-8.72215 -67.6017,-12.34036 -197.5371,-18.15756 -137.5041,-6.15606 -190.1948,-6.15575 -296.1134,0.002 -158.6116,9.22076 -175.059,11.9527 -195.595,32.48873 -23.5993,23.59937 -29.6846,63.55195 -19.7338,129.56303 5.9656,39.57491 17.3487,69.97511 35.9757,96.07846 18.7617,26.29232 30.7816,36.20752 51.2684,42.29142 15.0703,4.4754 60.6968,10.1219 102.3832,12.6703 41.8933,2.5612 251.8138,1.8339 333.5862,-1.1557 z"
         id="path13466" />
      <path
         style="fill:#ff1717;fill-opacity:1;fill-rule:evenodd;stroke:none;stroke-width:3.61136;stroke-linecap:round;stroke-linejoin:round;stroke-dasharray:none;stroke-opacity:1"
         d="m 2122.9716,1433.465 c 11.1053,-56.3676 11.2611,-102.7339 0.3942,-117.289 -15.288,-20.4765 -43.7655,-27.2348 -114.8812,-27.2638 l -46.557,-0.019 v -25.87 c 0,-36.7514 0.4269,-36.206 -28.3352,-36.206 -35.6784,0 -37.0079,1.2173 -37.0079,33.883 v 27.1187 l -289.9602,2.061 c -159.4781,1.1336 -374.4978,0.6979 -477.8217,-0.9681 -103.3238,-1.6661 -193.921,-3.0869 -201.32709,-3.1575 l -13.46565,-0.1282 -1.47714,-25.5169 c -0.81245,-14.0343 -2.55832,-27.2663 -3.87975,-29.4045 -2.5231,-4.0824 -46.09668,-5.5733 -55.65785,-1.9043 -4.13583,1.587 -5.16795,7.3774 -5.16795,28.9929 v 27.0097 l -56.35846,1.675 c -85.63915,2.5453 -106.97276,11.8674 -113.94145,49.789 -3.68097,20.0308 -1.88155,67.826 3.41335,90.6636 3.37159,14.5421 0.0212,15.6229 -18.65474,6.0173 -27.83101,-14.3144 -56.65641,-72.0466 -88.35231,-176.9543 -22.19482,-73.4609 -46.18915,-205.7696 -46.25762,-255.0722 l -0.0301,-21.69857 13.88542,-5.56653 c 7.63697,-3.06159 21.4057,-6.34689 30.59717,-7.30065 l 16.71175,-1.73412 2.0839,11.02985 c 3.23581,17.12679 13.60535,31.35392 28.32617,38.86392 16.1167,8.2222 70.88607,16.1181 112.42953,16.2088 21.53541,0.047 28.27938,1.0254 25.59174,3.713 -5.04586,5.0459 2.8649,30.5657 12.75868,41.159 18.47968,19.7862 31.97483,22.0941 181.28873,31.0037 111.80967,6.6716 151.57227,7.3798 417.61977,7.4371 280.0042,0.06 452.7472,-3.4507 570.1188,-11.5882 73.5338,-5.0981 92.1798,-12.6778 106.3324,-43.2247 8.3345,-17.9891 7.6404,-24.2409 -2.8764,-25.9092 -3.8912,-0.6173 20.1242,-2.0332 53.3675,-3.1465 50.9277,-1.7055 63.4225,-3.1474 79.3734,-9.1592 20.5991,-7.7636 32.3499,-21.25076 36.6587,-42.07554 2.2549,-10.89873 2.4304,-10.99407 16.6449,-9.04575 7.9013,1.08299 20.4618,5.07893 27.9123,8.87987 l 13.5462,6.91079 -2.1917,45.91253 c -5.0608,106.0158 -31.1005,223.3703 -71.4816,322.1504 -18.087,44.2444 -35.0834,69.8631 -53.9123,81.2619 -16.6929,10.1057 -21.6757,9.7118 -19.4593,-1.5384 z"
         id="path16366" />
      <path
         style="fill:#ff1717;fill-opacity:1;fill-rule:evenodd;stroke:none;stroke-width:3.61136;stroke-linecap:round;stroke-linejoin:round;stroke-dasharray:none;stroke-opacity:1"
         d="m 1900.3349,1263.0159 c 0.6463,-14.2326 2.1899,-26.8921 3.4301,-28.1324 1.2402,-1.2402 11.8704,-3.0267 23.6225,-3.9701 28.1166,-2.2569 31.2729,0.4757 31.2729,27.0748 0,31.2515 0.3557,30.9051 -31.7334,30.9051 h -27.7673 z"
         id="path16368" />
      <path
         style="fill:#ff1717;fill-opacity:1;fill-rule:evenodd;stroke:none;stroke-width:3.61136;stroke-linecap:round;stroke-linejoin:round;stroke-dasharray:none;stroke-opacity:1"
         d="m 851.09432,1261.7759 c 0,-14.194 1.58733,-25.4376 3.92059,-27.7708 4.05235,-4.0524 37.32541,-5.4401 46.45313,-1.9375 4.10849,1.5766 5.16795,7.2698 5.16795,27.7709 v 25.7877 h -27.77083 -27.77084 z"
         id="path16370" />
      <path
         style="fill:#ff1717;fill-opacity:1;fill-rule:evenodd;stroke:none;stroke-width:3.61136;stroke-linecap:round;stroke-linejoin:round;stroke-dasharray:none;stroke-opacity:1"
         d="m 1094.4975,1504.2683 c -12.5786,-1.373 -84.6194,-4.0531 -160.09068,-5.9558 -128.38693,-3.2367 -217.59772,-7.9476 -228.30382,-12.0559 -5.5551,-2.1317 -16.61932,-36.7624 -21.82464,-68.3106 -2.07541,-12.5785 -3.24903,-38.572 -2.60804,-57.7632 1.37671,-41.2187 5.86666,-49.9466 30.40009,-59.0938 30.75574,-11.4672 69.05327,-12.5328 313.81679,-8.7315 129.3794,2.0093 416.8075,3.1545 638.7291,2.5449 373.6725,-1.0264 404.8287,-0.6946 421.554,4.4894 20.4471,6.3376 34.3693,18.9055 39.3116,35.4877 5.3201,17.85 -3.4068,91.2509 -15.1715,127.6057 -8.8646,27.3928 -4.8331,26.4141 -114.8201,27.8746 -53.4997,0.7104 -134.7629,2.7216 -180.5847,4.4693 -45.8219,1.7476 -109.3538,3.1741 -141.182,3.1699 -84.6689,-0.011 -94.9514,-5.0582 -134.818,-66.1731 -21.3707,-32.7611 -39.7198,-49.9913 -58.7102,-55.1302 -8.6216,-2.333 -37.7518,-3.0258 -83.4859,-1.9855 -77.6901,1.7672 -96.7871,5.3722 -111.8733,21.1188 -8.6306,9.0083 -31.8704,55.3216 -31.8938,63.5591 -0.01,2.364 -2.8942,9.0247 -6.4165,14.8016 -16.3167,26.7606 -75.3767,38.4455 -152.0284,30.0786 z m 98.0147,-54.6285 c 10.8425,-4.9859 26.2237,-17.6418 45.7402,-37.6358 35.8368,-36.7135 53.9316,-46.4011 95.5842,-51.1735 37.2572,-4.2689 99.9906,-4.2165 134.836,0.1127 39.7058,4.9329 56.133,13.6812 95.2935,50.7484 51.2549,48.515 38.26,45.5479 197.0314,44.9876 186.971,-0.6598 236.6285,-7.287 263.7351,-35.1978 13.71,-14.1167 18.8739,-30.0966 18.8739,-58.4059 0,-27.5978 -6.0639,-34.4494 -36.5324,-41.2776 -22.1738,-4.9692 -1185.036,-5.0669 -1207.76837,-0.1014 -10.396,2.2708 -21.57734,7.4768 -27.58234,12.8423 -8.70929,7.7817 -10.09889,11.2466 -10.09889,25.1807 0,22.485 12.56775,54.373 26.11886,66.271 20.57238,18.0628 61.37679,25.3567 164.63282,29.4287 35.04026,1.3819 99.72992,2.337 143.75492,2.1226 76.1668,-0.371 80.8369,-0.7539 96.3811,-7.902 z"
         id="path16372" />
      <path
         style="fill:#ff1717;fill-opacity:1;fill-rule:evenodd;stroke:none;stroke-width:3.61136;stroke-linecap:round;stroke-linejoin:round;stroke-dasharray:none;stroke-opacity:1"
         d="m 2255.0326,970.04632 c -5.0088,-2.71609 -16.403,-5.80245 -25.3204,-6.85859 l -16.2135,-1.92025 v -23.88126 c 0,-59.44078 -18.0059,-146.88288 -38.9611,-189.20733 -23.4321,-47.32727 -43.4558,-62.04205 -84.3741,-62.00372 -24.6352,0.0231 -26.954,-0.5277 -26.954,-6.40228 0,-3.53514 -4.6991,-11.27574 -10.4424,-17.20133 l -10.4424,-10.7738 h 35.011 c 31.8426,0 36.1979,0.74929 48.1267,8.27961 31.268,19.73861 59.3225,58.36749 86.2814,118.80276 9.3008,20.84998 20.7509,43.96876 25.4447,51.37508 4.6938,7.40632 12.888,30.19474 18.2094,50.64093 9.675,37.17448 16.6589,94.46599 11.4854,94.21933 -1.5091,-0.0719 -6.8418,-2.35306 -11.8507,-5.06915 z"
         id="path16374" />
      <path
         style="fill:#ff1717;fill-opacity:1;fill-rule:evenodd;stroke:none;stroke-width:3.61136;stroke-linecap:round;stroke-linejoin:round;stroke-dasharray:none;stroke-opacity:1"
         d="m 525.93617,962.99444 c 0.76679,-4.94157 2.18139,-24.422 3.14356,-43.28983 2.62552,-51.48543 14.04328,-81.19922 71.21882,-185.3412 27.20466,-49.55174 42.653,-69.44969 62.21056,-80.12922 12.9487,-7.07072 16.3576,-7.42553 55.73156,-5.80069 l 41.93924,1.73069 -8.18818,7.67382 c -4.5035,4.2206 -9.81577,11.5717 -11.80504,16.33578 -3.39623,8.13358 -4.99384,8.68214 -26.19013,8.99269 -26.47663,0.38792 -53.27197,11.60281 -67.16166,28.10977 -30.68248,36.46405 -60.38027,146.01443 -60.38027,222.73308 v 24.90117 h -9.29 c -5.10949,0 -17.83653,2.94044 -28.2823,6.53431 -24.19832,8.32543 -24.61141,8.28133 -22.94616,-2.45037 z"
         id="path16376" />
      <path
         style="fill:#ff1717;fill-opacity:1;fill-rule:evenodd;stroke:none;stroke-width:3.61136;stroke-linecap:round;stroke-linejoin:round;stroke-dasharray:none;stroke-opacity:1"
         d="m 1213.7487,1034.1934 c -82.3076,-4.9319 -109.4742,-11.3978 -128.5841,-30.6044 -37.3188,-37.50769 -54.5405,-83.28737 -59.5685,-158.34788 l -2.2975,-34.29699 9.4622,2.06022 c 48.7114,10.60602 74.2147,11.90841 226.7281,11.57838 85.3545,-0.1847 231.6414,-1.38441 325.0821,-2.66602 145.5109,-1.99578 171.8849,-3.0962 183.7776,-7.66788 l 13.8854,-5.33769 v 15.95445 c 0,57.79707 -23.9075,137.6169 -50.7866,169.56086 -20.5448,24.41615 -43.988,31.35405 -122.3727,36.21555 -69.8818,4.3341 -341.5361,6.7745 -395.326,3.5514 z m 472.2527,-66.9665 c 7.7679,-7.76789 8.0194,-9.487 8.0194,-54.81471 0,-37.06563 -1.0575,-48.30508 -5.086,-54.05659 l -5.086,-7.26128 h -278.9233 c -249.2104,0 -279.4702,0.54693 -284.0574,5.13411 -4.236,4.23607 -5.1341,14.20448 -5.1341,56.98998 0,49.88269 0.2763,52.04941 7.2613,56.94187 6.4318,4.50503 38.5446,5.086 281.124,5.086 h 273.8627 z"
         id="path16378" />
      <path
         style="fill:#c80000;fill-opacity:1;fill-rule:evenodd;stroke:none;stroke-width:3.61136;stroke-linecap:round;stroke-linejoin:round;stroke-dasharray:none;stroke-opacity:1"
         d="m 893.56736,1409.752 c -42.45078,-3.3022 -64.14051,-10.8537 -74.24617,-25.8495 -4.08801,-6.0662 -7.43275,-15.0443 -7.43275,-19.9514 0,-14.8743 12.95084,-17.9173 75.14461,-17.6564 59.80676,0.251 77.83341,3.6559 88.03805,16.629 7.88808,10.0281 9.05113,32.6017 2.16494,42.0191 -5.46829,7.4783 -30.70753,8.9291 -83.66868,4.8092 z"
         id="path16380" />
      <path
         style="fill:#c80000;fill-opacity:1;fill-rule:evenodd;stroke:none;stroke-width:3.711;stroke-linecap:round;stroke-linejoin:round;stroke-dasharray:none;stroke-opacity:1"
         d="m 1839.4092,1410.7401 c -10.7824,-2.497 -14.8024,-10.5574 -12.5704,-25.2046 2.802,-18.3879 5.7699,-23.1187 18.2057,-29.0198 16.7144,-7.9316 87.7686,-13.297 118.847,-8.9744 33.4507,4.6526 36.6748,7.8169 27.9835,27.4651 -8.2897,18.7403 -21.0728,26.8111 -49.258,31.0999 -24.852,3.7816 -93.5654,6.8667 -103.2078,4.6338 z"
         id="path17072" />
      <path
         style="fill:#212121;fill-opacity:1;fill-rule:evenodd;stroke:none;stroke-width:12.7779;stroke-linecap:round;stroke-linejoin:round;stroke-dasharray:none;stroke-opacity:1"
         d="m 1017.7193,1453.4206 c -71.03562,-1.8973 -152.37763,-7.5882 -177.69361,-12.432 -37.26644,-7.1302 -50.6034,-15.5793 -62.15945,-39.3784 -10.7741,-22.1887 -14.36143,-46.1312 -8.54132,-57.0061 2.15407,-4.025 10.77429,-10.4878 19.15606,-14.3618 l 15.23957,-7.0438 h 597.88965 c 571.9502,0 598.5632,0.2598 613.4142,5.9898 18.8875,7.2874 25.315,15.755 25.315,33.35 0,30.1008 -15.193,58.1342 -37.5723,69.3267 -12.9437,6.4735 -53.0822,13.5894 -94.7476,16.7973 -69.6481,5.3623 -235.3732,7.6925 -262.8616,3.6961 -30.4888,-4.4327 -41.9796,-11.2568 -83.1135,-49.3594 -17.7804,-16.4702 -38.3878,-32.6262 -45.7941,-35.9024 -21.5521,-9.5335 -54.9423,-13.2673 -117.9072,-13.1847 -97.7259,0.1283 -116.8043,6.3333 -161.7243,52.5991 -20.7009,21.321 -33.7599,31.8061 -47.7366,38.3276 -18.5761,8.6676 -21.2133,8.9879 -76.4153,9.2815 -31.4464,0.1672 -74.0828,-0.1475 -94.7476,-0.6995 z m -39.93283,-42.1942 c 6.00504,-4.2061 7.26128,-8.1908 7.26128,-23.0323 0,-22.3955 -6.47743,-35.3311 -20.32046,-40.5806 -12.28737,-4.6595 -109.11402,-8.3552 -131.38898,-5.0149 -8.04867,1.207 -17.84942,4.7983 -21.77944,7.9806 -15.69896,12.7123 3.30253,47.5878 30.39389,55.7853 32.49296,9.832 124.05879,13.1094 135.83371,4.8619 z m 979.19433,-2.7683 c 14.7765,-3.5623 22.1152,-7.5065 30.0237,-16.1361 10.1694,-11.0968 16.5905,-30.2256 13.153,-39.1835 -4.1817,-10.8975 -69.2439,-15.269 -123.5668,-8.3023 -43.6279,5.595 -55.1508,15.415 -55.1508,47 0,23.7024 4.9353,25.4559 65.3431,23.2151 27.8525,-1.0332 59.4415,-4.0002 70.1978,-6.5932 z"
         id="path17074" />
      <path
         style="fill:#212121;fill-opacity:1;fill-rule:evenodd;stroke:none;stroke-width:12.7779;stroke-linecap:round;stroke-linejoin:round;stroke-dasharray:none;stroke-opacity:1"
         d="m 1450.7088,1477.4995 c -9.3144,-9.3144 -11.5263,-14.0123 -11.5263,-24.481 0,-22.0851 19.7376,-38.2724 41.5761,-34.0977 19.2556,3.6809 31.8763,30.8257 22.6381,48.6904 -6.9464,13.4327 -12.9352,17.6286 -28.0561,19.6568 -11.7422,1.5749 -14.3045,0.5588 -24.6318,-9.7685 z"
         id="path19974" />
      <path
         style="fill:#212121;fill-opacity:1;fill-rule:evenodd;stroke:none;stroke-width:12.7779;stroke-linecap:round;stroke-linejoin:round;stroke-dasharray:none;stroke-opacity:1"
         d="m 1338.926,1481.8182 c -12.7907,-7.799 -17.3611,-15.8903 -17.3611,-30.7352 0,-14.8602 13.0126,-30.5839 27.5709,-33.315 19.6944,-3.6947 41.0394,14.2403 41.0394,34.4832 0,12.0453 -9.856,26.4934 -21.3486,31.2953 -14.4499,6.0376 -17.4486,5.8642 -29.9006,-1.7283 z"
         id="path19976" />
      <path
         style="fill:#212121;fill-opacity:1;fill-rule:evenodd;stroke:none;stroke-width:12.7779;stroke-linecap:round;stroke-linejoin:round;stroke-dasharray:none;stroke-opacity:1"
         d="m 1516.1943,1444.1794 c -4.6844,-24.9703 -30.0336,-41.0518 -54.0387,-34.282 -18.4758,5.2104 -32.7745,20.442 -32.7745,34.9128 0,6.6128 -1.5958,7.441 -14.3386,7.441 -13.7696,0 -14.4228,-0.4488 -16.46,-11.308 -2.7712,-14.7715 -18.5772,-30.3252 -33.7004,-33.1623 -24.7168,-4.6369 -53.1187,15.0318 -53.1187,36.7855 0,7.3851 -0.9553,7.6848 -24.5037,7.6848 -29.048,0 -29.5478,-1.0567 -14.1575,-29.9318 20.6322,-38.7099 34.2188,-43.0739 135.0423,-43.3746 l 68.6103,-0.2047 15.5157,9.1205 c 14.7406,8.6648 31.8213,28.4034 47.9452,55.4059 l 7.3159,12.2518 h -14.605 c -14.0812,0 -14.6814,-0.4067 -16.7323,-11.3389 z"
         id="path19978" />
      <path
         style="fill:#212121;fill-opacity:1;fill-rule:evenodd;stroke:none;stroke-width:12.7779;stroke-linecap:round;stroke-linejoin:round;stroke-dasharray:none;stroke-opacity:1"
         d="m 669.76713,1479.5285 c -31.89195,-6.7792 -58.52022,-19.457 -71.84445,-34.2053 -13.14796,-14.5533 -32.97986,-52.7505 -45.59568,-87.8196 -9.26702,-25.7602 -22.09802,-75.5497 -20.00812,-77.6396 0.67371,-0.6737 10.31486,-1.4906 21.4248,-1.8153 l 20.19987,-0.5904 10.58801,29.4044 c 30.97518,86.0225 53.44148,122.5343 82.36549,133.8588 15.46146,6.0535 16.8442,7.5717 23.06202,25.3204 3.63791,10.3845 5.72874,18.761 4.64627,18.6145 -1.08246,-0.1465 -12.25966,-2.454 -24.83821,-5.1279 z"
         id="path21567" />
      <path
         style="fill:#212121;fill-opacity:1;fill-rule:evenodd;stroke:none;stroke-width:12.7779;stroke-linecap:round;stroke-linejoin:round;stroke-dasharray:none;stroke-opacity:1"
         d="m 529.68852,1267.1757 c -1.03281,-3.3293 -5.04346,-30.3118 -8.91257,-59.9613 -12.21728,-93.6225 -12.36482,-267.98047 -0.25446,-300.71058 1.22297,-3.30527 2.351,23.67406 2.50672,59.95406 0.21926,51.08012 1.94141,76.65272 7.63254,113.33742 9.22094,59.4376 20.97525,116.9042 31.92555,156.0835 4.65743,16.6639 7.89,30.8567 7.18351,31.5395 -0.7065,0.6828 -9.5913,2.2695 -19.744,3.526 -16.25929,2.0122 -18.68328,1.563 -20.33729,-3.7686 z"
         id="path21569" />
      <path
         style="fill:#212121;fill-opacity:1;fill-rule:evenodd;stroke:none;stroke-width:12.7779;stroke-linecap:round;stroke-linejoin:round;stroke-dasharray:none;stroke-opacity:1"
         d="m 2107.9656,1481.1359 c 1.967,-2.4096 5.4347,-10.6413 7.7059,-18.2926 3.6266,-12.2171 5.7569,-14.3978 17.49,-17.9035 28.5612,-8.5337 49.3028,-39.5277 79.0183,-118.0763 l 17.4544,-46.1381 17.1471,0.9835 c 9.4309,0.5409 17.8148,1.6511 18.6308,2.4671 0.816,0.8161 -2.5565,18.0162 -7.4946,38.2225 -16.3861,67.0513 -41.2879,117.1764 -67.7275,136.3291 -14.5763,10.559 -43.0609,20.5524 -69.6352,24.4304 -13.3077,1.942 -15.5334,1.5845 -12.5892,-2.0221 z"
         id="path21571" />
      <path
         style="fill:#212121;fill-opacity:1;fill-rule:evenodd;stroke:none;stroke-width:12.7779;stroke-linecap:round;stroke-linejoin:round;stroke-dasharray:none;stroke-opacity:1"
         d="m 2240.4527,1273.519 c -7.9644,-1.5341 -9.0184,-5.9521 -4.3495,-18.2323 3.5853,-9.43 24.4626,-111.3935 29.9117,-146.087 2.1167,-13.477 4.7661,-56.8485 5.8874,-96.3811 l 2.0388,-71.87747 4.9007,37.57231 c 6.601,50.60766 6.0675,160.42666 -1.0794,222.16666 -9.33,80.6006 -7.9082,75.2122 -19.7113,74.6997 -5.636,-0.2447 -13.5553,-1.0821 -17.5984,-1.8608 z"
         id="path21575" />
      <path
         style="fill:#212121;fill-opacity:1;fill-rule:evenodd;stroke:none;stroke-width:12.7779;stroke-linecap:round;stroke-linejoin:round;stroke-dasharray:none;stroke-opacity:1"
         d="m 2069.6928,1658.593 c -13.0526,-6.9062 -27.3416,-30.2752 -32.2758,-52.7855 -5.6756,-25.893 -13.0253,-69.6405 -15.1454,-90.1507 l -2.0577,-19.9069 38.6504,-2.1977 c 80.6104,-4.5836 124.0805,-17.2548 147.9202,-43.118 27.5049,-29.8392 52.5312,-97.8988 66.1595,-179.922 7.528,-45.3079 7.5325,-45.3203 9.9112,-27.3591 1.3088,9.8832 3.3339,74.5729 4.5,143.7549 1.7911,106.2554 1.2918,132.1714 -3.2158,166.9138 -8.1378,62.7217 -18.7977,90.6814 -38.1164,99.9752 -13.2542,6.3763 -60.1386,10.8193 -114.1685,10.8193 -43.0472,0 -52.5107,-0.9169 -62.1617,-6.0233 z"
         id="path21577" />
      <path
         style="fill:#000000;fill-opacity:1;fill-rule:evenodd;stroke:none;stroke-width:12.7779;stroke-linecap:round;stroke-linejoin:round;stroke-dasharray:none;stroke-opacity:1"
         d="m 546.62389,1656.178 c -24.59252,-7.567 -33.22625,-23.3519 -38.81975,-70.9736 -6.85541,-58.3653 -1.71877,-353.355 6.54383,-375.8021 1.26549,-3.4379 3.96288,9.0614 6.34554,29.4045 8.31257,70.9722 34.73555,153.5638 63.05932,197.1076 12.53584,19.2721 33.07493,34.1455 56.54579,40.9477 20.91193,6.0605 85.05001,17.8621 97.07541,17.8621 h 9.17128 l -0.1019,23.6869 c -0.0561,13.0278 -2.16635,41.0449 -4.68956,62.2604 -3.71906,31.2703 -6.39489,41.786 -14.13307,55.5416 -5.24999,9.3325 -13.06368,18.7843 -17.36375,21.004 -11.75898,6.0699 -143.2426,5.235 -163.63314,-1.0391 z"
         id="path21579" />
      <path
         style="fill:#f8ff3d;fill-opacity:1;fill-rule:evenodd;stroke:none;stroke-width:12.7779;stroke-linecap:round;stroke-linejoin:round;stroke-dasharray:none;stroke-opacity:1"
         d="m 1122.3833,962.39244 c -1.8664,-3.48745 -3.3821,-26.68719 -3.3821,-51.76814 0,-39.88061 0.732,-46.11105 5.9748,-50.85572 5.4588,-4.9402 29.4572,-5.4071 277.9231,-5.4071 181.2129,0 274.0568,1.12844 278.2678,3.38211 5.8242,3.11703 6.3195,7.29092 6.3195,53.25465 0,34.43355 -1.2136,51.08624 -3.9205,53.79314 -2.9877,2.98767 -69.8191,3.92059 -280.8606,3.92059 -270.4586,0 -277.0191,-0.1479 -280.322,-6.31953 z"
         id="path21857" />
      <path
         style="fill:#9f0000;fill-opacity:1;fill-rule:evenodd;stroke:none;stroke-width:12.7779;stroke-linecap:round;stroke-linejoin:round;stroke-dasharray:none;stroke-opacity:1"
         d="m 2047.6551,1001.3285 c -21.5826,-3.14801 -30.8984,-9.19921 -38.3558,-24.91445 -5.3714,-11.31948 -5.7022,-19.74017 -3.8274,-97.44259 3.0473,-126.29832 7.5828,-147.3177 34.743,-161.01377 12.2901,-6.19757 19.8344,-7.3511 48.0768,-7.3511 32.888,0 33.7122,0.18701 45.1728,10.24956 16.7211,14.68127 25.8416,32.28867 37.3641,72.13259 13.0405,45.09277 19.7565,90.26165 19.7807,133.03546 0.033,57.57343 -8.9164,67.72121 -66.3771,75.2693 -28.5516,3.7506 -51.0327,3.7609 -76.5771,0.035 z m 74.6968,-121.67292 c 16.0685,-10.67836 26.7096,-32.95094 24.3846,-51.03864 -2.5729,-20.01606 -13.3876,-35.94993 -29.3071,-43.17978 -16.8506,-7.65275 -26.2461,-7.65275 -43.0968,0 -26.2613,11.9266 -37.2686,45.60647 -23.5851,72.16511 14.6439,28.42275 47.0166,38.39317 71.6044,22.05331 z"
         id="path23377" />
      <path
         style="fill:#9f0000;fill-opacity:1;fill-rule:evenodd;stroke:none;stroke-width:12.7779;stroke-linecap:round;stroke-linejoin:round;stroke-dasharray:none;stroke-opacity:1"
         d="m 670.46467,998.13268 c -25.47387,-3.17854 -43.15632,-11.27132 -52.78684,-24.15913 -13.31359,-17.81659 -9.45233,-98.20035 8.05125,-167.6115 8.88385,-35.22924 31.2762,-79.09399 45.01971,-88.18987 20.8103,-13.7729 71.71079,-13.95249 95.93367,-0.33847 21.8026,12.25375 24.90349,23.40469 29.13096,104.75647 4.90192,94.33061 3.34236,144.31623 -4.93258,158.09522 -3.41527,5.68692 -10.00971,12.16122 -14.6543,14.38732 -10.37788,4.97398 -75.35535,6.85398 -105.76187,3.05996 z M 725.91289,883.5655 c 23.69017,-8.93154 39.85927,-37.11668 35.32632,-61.57902 -4.85586,-26.20485 -28.27718,-46.10678 -54.11451,-45.98302 -25.96301,0.12437 -52.05978,27.93962 -52.05978,55.48792 0,36.00088 38.47386,64.27964 70.84797,52.07412 z"
         id="path25173" />
      <path
         style="fill:#9f0000;fill-opacity:1;fill-rule:evenodd;stroke:none;stroke-width:12.7779;stroke-linecap:round;stroke-linejoin:round;stroke-dasharray:none;stroke-opacity:1"
         d="m 2073.6378,873.88471 c -10.7959,-6.58204 -23.285,-28.19868 -23.4252,-40.54502 -0.039,-3.47577 2.9571,-12.57627 6.6589,-20.22334 9.2886,-19.18757 30.6076,-29.93787 48.6501,-24.5322 15.8512,4.74912 28.5644,17.57179 33.3897,33.67715 3.2651,10.89801 2.8988,14.95945 -2.5309,28.0606 -11.4287,27.57638 -39.1092,37.97172 -62.7426,23.56281 z"
         id="path25175" />
      <path
         style="fill:#410000;fill-opacity:1;fill-rule:evenodd;stroke:none;stroke-width:12.7779;stroke-linecap:round;stroke-linejoin:round;stroke-dasharray:none;stroke-opacity:1"
         d="m 686.89285,873.4125 c -13.11099,-7.79209 -25.29362,-28.23265 -25.29362,-42.43877 0,-22.63304 24.99722,-48.4897 46.87797,-48.4897 25.60472,0 50.81305,29.60308 46.71463,54.85872 -5.37644,33.13108 -41.31146,52.10891 -68.29898,36.06975 z"
         id="path25177" />
      <path
         style="fill:#410000;fill-opacity:1;fill-rule:evenodd;stroke:none;stroke-width:12.7779;stroke-linecap:round;stroke-linejoin:round;stroke-dasharray:none;stroke-opacity:1"
         d="m 2076.6363,872.67149 c -10.2591,-5.68615 -23.1905,-27.35319 -23.2116,-38.89199 -0.037,-20.1065 18.3495,-41.15796 38.0512,-43.56699 21.8379,-2.67022 46.836,19.85289 46.866,42.22582 0.018,13.4999 -11.7724,34.15994 -22.7277,39.82519 -11.7114,6.05617 -28.4708,6.23159 -38.9779,0.40797 z"
         id="path25800" />
      <path
         style="fill:#757575;fill-opacity:1;fill-rule:evenodd;stroke:none;stroke-width:12.7779;stroke-linecap:round;stroke-linejoin:round;stroke-dasharray:none;stroke-opacity:1"
         d="m 2024.3913,1024.4838 c -18.5937,-4.7927 -29.433,-18.6887 -33.4149,-42.8377 -5.7677,-34.97934 2.8388,-215.23661 11.7753,-246.6266 5.0019,-17.56943 17.0901,-31.60903 32.098,-37.27946 18.0116,-6.80532 60.8764,-9.67435 78.0363,-5.22313 47.6973,12.37251 82.7842,90.86568 94.3555,211.08335 2.9454,30.60126 3.0386,47.25828 0.3656,65.34313 -3.2404,21.9228 -4.8158,25.42074 -16.2762,36.13731 -8.9967,8.4127 -17.8369,12.9899 -30.3823,15.7309 -22.11,4.8309 -121.6748,7.5082 -136.5573,3.6722 z m 118.2211,-21.4456 c 29.769,-5.69646 35.3671,-8.25708 42.7777,-19.56706 15.8086,-24.12694 13.1205,-101.342 -6.1447,-176.50978 -23.0252,-89.83823 -41.2278,-106.95571 -106.8548,-100.4851 -62.9784,6.20946 -67.4441,16.86213 -70.2812,167.65443 -1.5548,82.63864 -1.0981,97.93656 3.17,106.1903 7.4338,14.37534 16.1904,20.92911 32.152,24.06401 23.3674,4.5893 77.802,3.8923 105.181,-1.3468 z"
         id="path25802" />
      <path
         style="fill:#757575;fill-opacity:1;fill-rule:evenodd;stroke:none;stroke-width:12.7779;stroke-linecap:round;stroke-linejoin:round;stroke-dasharray:none;stroke-opacity:1"
         d="m 686.10291,1023.8931 c -60.42396,-5.494 -81.12044,-16.4168 -90.17161,-47.58937 -13.16745,-45.34911 6.87811,-174.90857 35.9511,-232.36099 10.50248,-20.75442 27.90516,-40.18374 43.75451,-48.84998 13.48905,-7.37566 73.12467,-8.11621 90.51134,-1.12396 18.34722,7.37855 32.40117,22.78441 37.48772,41.09384 6.38411,22.98011 12.27659,109.05888 12.75141,186.27555 0.37811,61.49134 -0.0219,66.13514 -6.78634,78.77891 -4.35202,8.1347 -11.44192,15.4077 -17.96936,18.4335 -14.13105,6.5506 -64.30538,9.0907 -105.52877,5.3425 z m 95.53052,-25.16263 c 20.88017,-11.62806 24.86828,-46.02626 19.0014,-163.89097 -3.46397,-69.59056 -5.50552,-89.83239 -10.0198,-99.34553 -10.65409,-22.45182 -32.1517,-31.4197 -75.10771,-31.33172 -42.57239,0.0872 -60.0208,11.81828 -77.86707,52.35235 -18.57015,42.17823 -31.58268,112.04186 -31.58268,169.56584 0,34.42717 0.76135,39.52782 7.3622,49.32283 15.76491,23.39354 38.73952,29.16543 111.88902,28.10953 31.8118,-0.4592 51.57482,-2.1372 56.32464,-4.78233 z"
         id="path27322" />
      <path
         style="fill:#757575;fill-opacity:1;fill-rule:evenodd;stroke:none;stroke-width:12.7779;stroke-linecap:round;stroke-linejoin:round;stroke-dasharray:none;stroke-opacity:1"
         d="m 685.28612,643.09968 c -6.92314,-2.79355 -4.51719,-10.67163 3.90464,-12.78537 4.39373,-1.10276 15.49275,-0.39566 24.66449,1.57133 9.17175,1.96699 24.68975,3.57634 34.48445,3.57634 13.65172,0 17.80855,1.14392 17.80855,4.90074 0,4.09278 -6.32892,4.85821 -38.38909,4.6428 -21.114,-0.14187 -40.22687,-0.99949 -42.47304,-1.90584 z"
         id="path27324" />
      <path
         style="fill:#757575;fill-opacity:1;fill-rule:evenodd;stroke:none;stroke-width:12.7779;stroke-linecap:round;stroke-linejoin:round;stroke-dasharray:none;stroke-opacity:1"
         d="m 786.56798,645.9095 c -12.06387,-0.69456 -17.15257,-2.34609 -17.15257,-5.56686 0,-3.91783 90.49794,-4.32704 626.47729,-2.83283 344.5625,0.96058 628.3151,2.31686 630.5613,3.01396 2.2461,0.69709 4.0839,2.63981 4.0839,4.31715 0,2.72549 -1197.32643,3.754 -1243.96992,1.06858 z"
         id="path27326" />
      <path
         style="fill:#757575;fill-opacity:1;fill-rule:evenodd;stroke:none;stroke-width:12.7779;stroke-linecap:round;stroke-linejoin:round;stroke-dasharray:none;stroke-opacity:1"
         d="m 2035.3043,645.04608 c -3.3135,-5.36141 -1.6793,-5.86262 31.2955,-9.59805 28.0815,-3.18111 31.2032,-2.97876 35.0423,2.27153 3.5657,4.87639 3.3209,6.11691 -1.5901,8.05776 -9.4557,3.73701 -62.3554,3.13958 -64.7477,-0.73124 z"
         id="path27328" />
      <path
         style="fill:#636363;fill-opacity:1;fill-rule:evenodd;stroke:none;stroke-width:12.7779;stroke-linecap:round;stroke-linejoin:round;stroke-dasharray:none;stroke-opacity:1"
         d="m 2031.2695,622.95282 c -0.5707,-20.07282 -23.918,-99.0481 -45.4102,-153.60603 -8.0301,-20.38437 -26.2812,-62.1515 -40.558,-92.81584 -16.7973,-36.07799 -25.2576,-57.95949 -23.9737,-62.00479 2.5222,-7.94658 -0.9337,-22.11563 -5.394,-22.11563 -1.8681,0 -8.8236,-4.32183 -15.4568,-9.60405 -6.6331,-5.28222 -21.4777,-13.65978 -32.9881,-18.61678 -11.5103,-4.95701 -19.502,-9.48799 -17.7594,-10.06886 6.8763,-2.29211 61.422,16.14603 74.1674,25.07089 29.3904,20.58038 35.5075,29.75508 27.9292,41.88981 -2.8821,4.61502 -0.6672,10.61767 11.5312,31.25034 35.3705,59.82663 69.2326,135.65203 96.3817,215.82146 10.8507,32.04145 18.9242,59.55865 17.9411,61.14933 -0.9831,1.59068 -11.7685,2.89215 -23.9675,2.89215 -22.1061,0 -22.181,-0.0294 -22.4429,-9.242 z"
         id="path27330" />
      <path
         style="fill:#636363;fill-opacity:1;fill-rule:evenodd;stroke:none;stroke-width:12.7779;stroke-linecap:round;stroke-linejoin:round;stroke-dasharray:none;stroke-opacity:1"
         d="m 733.47668,630.39982 c -2.6954,-0.57038 -10.18024,-1.8928 -16.63297,-2.93875 l -11.73224,-1.90168 10.83298,-40.73252 c 16.2072,-60.93986 76.9373,-206.89597 103.77652,-249.41206 7.1485,-11.32396 8.12099,-15.02452 4.95186,-18.84309 -4.5719,-5.5088 0.72974,-20.89404 7.19993,-20.89404 2.08374,0 10.05532,-5.77644 17.71461,-12.83652 25.11616,-23.15127 58.2985,-35.14778 122.39175,-44.24862 49.81148,-7.07293 68.40458,-6.20988 31.92448,1.48185 -54.33526,11.45642 -105.67701,31.64436 -127.96705,50.31755 -8.2038,6.87264 -9.20642,9.50797 -7.53527,19.80608 1.62316,10.00237 -1.47647,19.21186 -19.62359,58.30477 -11.85318,25.53436 -30.26184,72.89008 -40.90814,105.23493 -19.50919,59.27146 -41.7213,140.22885 -41.7213,152.06334 0,5.40342 -2.15075,6.33505 -13.88542,6.01477 -7.63698,-0.20844 -16.09074,-0.84567 -18.78615,-1.41601 z"
         id="path27884" />
      <path
         style="fill:#636363;fill-opacity:1;fill-rule:evenodd;stroke:none;stroke-width:12.7779;stroke-linecap:round;stroke-linejoin:round;stroke-dasharray:none;stroke-opacity:1"
         d="m 1336.2671,227.01134 -19.6029,-9.83715 18.6988,1.69773 c 17.4094,1.58065 19.0822,1.11267 24.2579,-6.78641 3.0574,-4.66626 9.004,-9.7939 13.2145,-11.39473 9.4519,-3.5936 14.0639,-15.07215 14.101,-35.09527 0.051,-27.71732 3.8443,-49.61145 8.5946,-49.61145 3.4333,0 4.4457,6.97493 4.4457,30.6296 0,42.68257 2.0748,50.97361 13.7774,55.05315 5.2576,1.8328 10.8625,6.7603 12.4555,10.94999 2.8088,7.38778 3.7629,7.56229 31.6214,5.78375 27.2449,-1.73936 28.3498,-1.55611 21.4398,3.55577 -16.9617,12.54799 -29.1389,14.91275 -76.7388,14.90235 -45.3561,-0.01 -47.2106,-0.28548 -66.2649,-9.84733 z"
         id="path27886" />
      <path
         style="fill:#636363;fill-opacity:1;fill-rule:evenodd;stroke:none;stroke-width:12.7779;stroke-linecap:round;stroke-linejoin:round;stroke-dasharray:none;stroke-opacity:1"
         d="m 1463.2803,266.23297 c -5.6141,-1.76041 -11.9295,-5.27575 -14.0343,-7.81188 -9.4759,-11.41779 65.661,-17.96872 138.0911,-12.03969 144.7352,11.84783 139.458,19.00911 -15.8347,21.48784 -59.5489,0.9505 -102.0206,0.30835 -108.2221,-1.63627 z"
         id="path27888" />
      <path
         style="fill:#636363;fill-opacity:1;fill-rule:evenodd;stroke:none;stroke-width:12.7779;stroke-linecap:round;stroke-linejoin:round;stroke-dasharray:none;stroke-opacity:1"
         d="m 1124.856,263.25142 c -8.4599,-1.18182 -16.1942,-2.96132 -17.1873,-3.95443 -5.3304,-5.33038 170.4975,-19.35341 199.194,-15.88657 41.3806,4.99922 47.3266,8.1471 33.5782,17.77686 -6.2105,4.35001 -21.2214,5.02282 -103.7323,4.64946 -53.059,-0.2401 -103.3927,-1.40349 -111.8526,-2.58532 z"
         id="path27890" />
      <path
         style="fill:#0a0a0a;fill-opacity:1;fill-rule:evenodd;stroke:none;stroke-width:12.7779;stroke-linecap:round;stroke-linejoin:round;stroke-dasharray:none;stroke-opacity:1"
         d="m 769.41541,629.06822 c 0,-1.71963 5.05746,-22.85945 11.2388,-46.9774 17.72989,-69.17732 51.35755,-166.57551 73.50648,-212.90211 17.5173,-36.63909 20.0673,-44.29938 18.5648,-55.76938 -1.64196,-12.53461 -0.9685,-13.89062 11.75553,-23.66995 14.81005,-11.38257 48.99453,-25.50863 91.62704,-37.86305 50.02194,-14.49579 176.82634,-30.37001 267.04504,-33.43049 l 57.1753,-1.93956 24.4115,11.80987 24.4115,11.80987 h 53.265 53.265 l 23.5707,-11.86998 23.5706,-11.86998 50.6756,2.17176 c 27.8716,1.19447 69.0534,4.3322 91.5151,6.97272 22.4617,2.64053 54.8066,6.36321 71.8775,8.27262 77.2431,8.63978 149.7704,29.47951 179.5776,51.59917 19.9681,14.81819 23.0134,19.11328 20.9317,29.52203 -1.515,7.57507 4.0783,22.52759 26.6076,71.12873 15.6892,33.84556 33.3123,74.06076 39.1625,89.36713 20.8783,54.62653 43.9372,132.83948 44.0503,149.4135 0.1173,17.20485 -6.3787,4.76721 -16.2111,-31.03799 -12.9533,-47.17098 -38.0873,-122.6475 -54.6708,-164.17462 l -12.3947,-31.03799 -29.3973,-22.01935 c -35.1948,-26.36185 -88.031,-53.6876 -112.3389,-58.09921 -23.2676,-4.22282 -648.517,-4.16558 -730.5804,0.0669 -114.82885,5.92236 -139.74933,13.26267 -202.92834,59.77241 l -19.7743,14.55701 -18.2236,51.86848 c -27.18012,77.36074 -38.40149,115.27222 -52.82535,178.47079 -1.90469,8.34546 -8.4604,12.88472 -8.4604,5.85808 z M 1345.811,263.25339 c 4.634,-4.35634 8.4255,-9.6357 8.4255,-11.73193 0,-3.83494 -21.4878,-9.67167 -49.3013,-13.39171 -25.5546,-3.41791 -196.4986,11.54286 -208.5098,18.24846 -9.0855,5.07228 9.1121,10.16794 46.3418,12.97657 20.172,1.52179 72.2133,2.55366 115.6473,2.29306 78.7837,-0.47271 78.9909,-0.49262 87.3965,-8.39445 z m 316.7372,6.44168 c 29.4956,-2.63455 42.338,-6.71404 37.2267,-11.82537 -7.2326,-7.23259 -108.4121,-17.70986 -171.1616,-17.72401 -40.9876,-0.009 -89.4308,6.98231 -89.4308,12.90708 0,3.75414 10.7306,12.54179 19.6701,16.10855 10.1373,4.04465 159.9924,4.43732 203.6956,0.53375 z"
         id="path27892" />
      <path
         style="fill:#d0d0d0;fill-opacity:1;fill-rule:evenodd;stroke:none;stroke-width:12.7779;stroke-linecap:round;stroke-linejoin:round;stroke-dasharray:none;stroke-opacity:1"
         d="m 2120.361,651.23794 c -3.607,-1.64898 -8.9886,-7.233 -11.9592,-12.40895 -3.4988,-6.0964 -8.5747,-9.78485 -14.4123,-10.47285 -8.4979,-1.00155 -9.8923,-3.70128 -24.4763,-47.39233 -17.456,-52.29502 -18.0377,-50.05084 12.9734,-50.05084 29.8586,0 51.8877,8.16491 69.2929,25.68287 17.1505,17.26156 21.5875,31.90036 15.9805,52.72338 -6.4788,24.06015 -33.7354,48.16533 -47.399,41.91872 z"
         id="path28032" />
      <path
         style="fill:#d0d0d0;fill-opacity:1;fill-rule:evenodd;stroke:none;stroke-width:12.7779;stroke-linecap:round;stroke-linejoin:round;stroke-dasharray:none;stroke-opacity:1"
         d="m 607.74371,652.88208 c -8.95577,-2.74718 -20.24632,-7.81686 -25.09012,-11.26595 -18.02954,-12.83816 -28.51729,-40.2382 -24.20339,-63.23322 6.57051,-35.02384 58.38737,-59.44639 107.30573,-50.5758 24.88662,4.51281 34.59875,9.43914 44.12548,22.38198 7.31683,9.9405 7.35555,10.45708 2.28899,30.53964 -9.7264,38.553 -10.97157,41.05896 -21.55683,43.38388 -5.5563,1.22036 -11.2572,5.29155 -13.11286,9.36428 -4.62139,10.14284 -30.38283,24.90122 -42.98868,24.62762 -5.7668,-0.12516 -17.81255,-2.47525 -26.76832,-5.22243 z"
         id="path28931" />
      <path
         style="fill:#d2eceb;fill-opacity:1;fill-rule:evenodd;stroke:none;stroke-width:12.7779;stroke-linecap:round;stroke-linejoin:round;stroke-dasharray:none;stroke-opacity:1"
         d="m 1012.0018,633.01197 c -215.74675,-0.8096 -229.51715,-1.203 -229.5074,-6.55673 0.0182,-10.01744 22.80108,-92.44576 38.01306,-137.53124 28.71698,-85.11181 32.27682,-92.71265 49.41482,-105.50848 20.63655,-15.40797 51.26598,-33.52376 71.16206,-42.08883 40.11985,-17.2712 40.96191,-17.30496 464.86776,-18.63725 l 393.1335,-1.23558 20.8033,6.92286 c 34.8329,11.59166 113.2546,62.50061 121.7484,79.03528 13.3351,25.9594 47.2935,125.25962 66.9119,195.66196 l 7.8177,28.05438 -261.6381,2.16458 c -143.901,1.19052 -318.2417,1.80812 -387.4237,1.37245 -69.1821,-0.43567 -229.0685,-1.1797 -355.3033,-1.6534 z"
         id="path28933" />
    </g>
  </g>
</svg>
