<?xml version="1.0" encoding="UTF-8" standalone="no"?>
<!-- Created with Inkscape (http://www.inkscape.org/) -->

<svg
   version="1.1"
   id="svg5166"
   width="1400"
   height="1400"
   viewBox="0 0 1400 1400"
   sodipodi:docname="carOneSteeringWheel.svg"
   inkscape:version="1.2.1 (9c6d41e4, 2022-07-14)"
   xmlns:inkscape="http://www.inkscape.org/namespaces/inkscape"
   xmlns:sodipodi="http://sodipodi.sourceforge.net/DTD/sodipodi-0.dtd"
   xmlns="http://www.w3.org/2000/svg"
   xmlns:svg="http://www.w3.org/2000/svg">
  <defs
     id="defs5170" />
  <sodipodi:namedview
     id="namedview5168"
     pagecolor="#ffffff"
     bordercolor="#000000"
     borderopacity="0.25"
     inkscape:showpageshadow="2"
     inkscape:pageopacity="0.0"
     inkscape:pagecheckerboard="0"
     inkscape:deskcolor="#d1d1d1"
     showgrid="false"
     inkscape:zoom="0.34766083"
     inkscape:cx="432.89317"
     inkscape:cy="762.23714"
     inkscape:window-width="1440"
     inkscape:window-height="764"
     inkscape:window-x="0"
     inkscape:window-y="205"
     inkscape:window-maximized="1"
     inkscape:current-layer="g5172" />
  <g
     inkscape:groupmode="layer"
     inkscape:label="Image"
     id="g5172">
    <g
       id="g10812"
       transform="matrix(0.99800142,0,0,0.99671107,-12.046703,-343.8634)">
      <path
         style="fill:none;fill-rule:evenodd;stroke:#000000;stroke-width:3.229;stroke-linecap:round;stroke-linejoin:round;stroke-dasharray:none;stroke-opacity:1"
         d="m 694.64253,348.04036 c 12.94997,-0.25743 25.89869,0.71399 38.83095,1.43818 19.19955,1.07514 38.39016,2.43103 57.52733,4.31455 19.70557,1.93946 39.48319,3.65389 58.96551,7.19091 16.01643,2.90778 31.84091,6.92028 47.46005,11.50547 25.31164,7.43054 50.38339,15.86595 74.78553,25.8873 22.61187,9.28613 44.4875,20.32679 66.1564,31.64003 18.0796,9.4393 36.1155,19.08189 53.2128,30.20185 24.997,16.25786 49.3196,33.74788 71.9092,53.21278 18.4895,15.93199 34.9641,34.07998 51.7746,51.7746 18.2353,19.19436 36.9576,38.06771 53.2128,58.96552 12.7349,16.37207 24.1792,33.79231 34.5164,51.77459 13.0359,22.67678 22.9148,47.028 34.5164,70.47099 6.181,12.48968 12.8824,24.72802 18.6963,37.39276 6.7232,14.64561 13.3156,29.39347 18.6964,44.58368 4.0017,11.29704 6.9354,22.94798 10.0673,34.5164 4.1322,15.26331 8.2497,30.54792 11.5055,46.02187 3.5051,16.65882 5.9869,33.51914 8.6291,50.33641 2.6306,16.74377 5.9894,33.42993 7.1909,50.33645 1.5632,21.9967 0.9701,44.1256 0,66.1564 -0.7198,16.3469 -2.2114,32.6712 -4.3146,48.8982 -2.1882,16.8823 -5.4368,33.6148 -8.6291,50.3364 -3.4909,18.2861 -6.9091,36.611 -11.5054,54.651 -1.2357,4.8501 -4.3146,14.3818 -4.3146,14.3818 0,0 3.5891,10.4025 4.3146,15.8201 0.6363,4.7515 0.8032,9.6556 0,14.3818 -1.7019,10.0146 -6.1774,19.3798 -10.0673,28.7637 -11.4127,27.5318 -23.993,54.6909 -38.831,80.5382 -13.2393,23.0624 -28.6203,44.8885 -44.5836,66.1565 -11.2381,14.9726 -23.7821,28.9221 -35.9546,43.1455 -13.6937,16.001 -26.8152,32.5679 -41.7073,47.46 -14.8921,14.8921 -31.1457,28.3885 -47.4601,41.7073 -15.3744,12.5514 -31.0794,24.7482 -47.46,35.9546 -24.1582,16.5273 -48.8898,32.3773 -74.7856,46.0219 -16.7084,8.8038 -34.478,15.4276 -51.77457,23.0109 -17.69873,7.7596 -35.01492,16.5076 -53.21278,23.0109 -19.71892,7.0469 -40.03291,12.4079 -60.4037,17.2582 -22.31703,5.3137 -44.86395,9.8449 -67.59461,12.9437 -29.07222,3.9633 -58.41258,5.9914 -87.72918,7.1909 -17.24377,0.7055 -34.54097,0.9206 -51.7746,0 -13.48065,-0.7201 -26.93781,-2.188 -40.26913,-4.3146 -22.74827,-3.6288 -45.12885,-9.2886 -67.59462,-14.3818 -25.96791,-5.8872 -52.30328,-10.5765 -77.66189,-18.6964 -28.06266,-8.9857 -55.31656,-20.528 -81.97645,-33.0782 -11.83875,-5.5731 -23.00822,-12.4693 -34.5164,-18.6964 -17.73341,-9.5956 -36.19078,-17.9561 -53.21278,-28.7636 -21.12663,-13.4135 -40.8232,-28.9997 -60.4037,-44.5837 -17.29099,-13.7618 -34.64834,-27.5811 -50.33641,-43.1455 -13.99051,-13.8802 -25.90552,-29.7066 -38.83095,-44.5837 -12.48187,-14.3665 -26.08316,-27.839 -37.39277,-43.1455 -8.0628,-10.9122 -14.46102,-22.9618 -21.57275,-34.5164 -9.6963,-15.7538 -19.998706,-31.1696 -28.763663,-47.46 -9.550897,-17.7511 -17.64386,-36.2563 -25.887299,-54.651 -5.534732,-12.3504 -11.232091,-24.6603 -15.820016,-37.3928 -3.393354,-9.4173 -5.479203,-19.2621 -8.6291,-28.7636 -1.765698,-5.3261 -5.086265,-10.2486 -5.752733,-15.8201 -0.515611,-4.3104 0.352726,-8.7404 1.438183,-12.9436 1.558298,-6.0342 6.223721,-11.1016 7.190917,-17.2582 0.895891,-5.7027 -0.754403,-11.5262 -1.438183,-17.2582 -2.586051,-21.6785 -6.914352,-43.115 -10.067283,-64.7183 -1.537209,-10.5327 -3.028341,-21.0737 -4.31455,-31.64 -1.631266,-13.4009 -3.594433,-26.7885 -4.31455,-40.2691 -0.946169,-17.7123 -0.913805,-35.4988 0,-53.2128 0.720048,-13.95807 2.359517,-27.8681 4.31455,-41.70732 2.657017,-18.8084 6.296526,-37.47202 10.067283,-56.08914 3.024402,-14.93219 5.777503,-29.96469 10.067283,-44.58369 4.739753,-16.15245 11.175826,-31.76381 17.258199,-47.46004 6.369128,-16.43623 12.621979,-32.95219 20.134566,-48.89824 6.946722,-14.74496 15.188085,-28.84606 23.010933,-43.14549 10.816383,-19.77134 20.662383,-40.15735 33.078213,-58.96552 12.99502,-19.68556 28.06647,-37.95039 43.1455,-56.08915 16.05929,-19.31792 32.71166,-38.188 50.33642,-56.08914 12.37606,-12.57013 25.16799,-24.79669 38.83094,-35.95459 17.82669,-14.55823 36.8567,-27.62612 56.08915,-40.26913 18.68653,-12.28413 37.82159,-23.94427 57.52733,-34.5164 19.65133,-10.54294 39.97307,-19.82399 60.4037,-28.76366 21.28603,-9.31396 42.625,-18.69471 64.71825,-25.8873 27.7505,-9.03434 56.12152,-16.45198 84.85281,-21.57275 22.77651,-4.05945 45.99158,-5.10504 69.0328,-7.19092 12.45017,-1.12709 24.89416,-2.62791 37.39277,-2.87636 z"
         id="path6073"
         sodipodi:nodetypes="ssssssssssssssssssssssscssssssssssssssssssssssssssssssssssssssssssssssssssssssss" />
      <g
         id="g10802"
         transform="rotate(-0.81432451,514.57989,1046.8695)">
        <path
           style="fill:none;fill-rule:evenodd;stroke:#000000;stroke-width:3.229;stroke-linecap:round;stroke-linejoin:round;stroke-dasharray:none;stroke-opacity:1"
           d="m 747.85531,829.83176 c -15.32158,0.76418 -30.68125,0 -46.02187,0 -16.29941,0 -32.6184,-0.79872 -48.89823,0 -29.34888,1.43991 -58.49612,5.65286 -87.72918,8.6291 -9.11172,0.92767 -27.32548,2.87636 -27.32548,2.87636 l -15.82002,10.06729 -17.2582,38.83094 -24.44911,60.4037 -18.69639,54.65095 -17.25819,53.2128 -1.43819,31.64 11.50547,14.3819 30.20185,5.7527 35.95458,18.6964 21.57275,23.0109 27.32548,40.2691 17.2582,43.1455 7.19092,35.9546 5.75273,50.3364 4.31455,48.8983 2.87637,30.2018 5.75273,18.6964 10.06728,7.1909 171.14381,5.7528 10.06729,-5.7528 4.31455,-33.0782 5.75273,-41.7073 8.6291,-61.8419 8.6291,-37.3928 17.2582,-43.1455 23.01093,-33.0782 23.01093,-25.8873 24.44912,-12.9436 24.44912,-10.0673 30.20184,-10.0673 11.50547,-8.6291 2.87637,-18.6964 -1.43819,-20.1345 -57.52733,-209.9748 -17.2582,-7.19091 -28.76366,-4.31455 c 0,0 -21.95111,-5.31814 -33.07822,-7.19092 -11.90342,-2.00344 -24.06072,-2.2551 -35.95458,-4.31455 -10.65705,-1.8453 -20.94167,-5.60254 -31.64003,-7.19091 -6.65567,-0.98816 -13.40662,-1.5336 -20.13457,-1.43819 -4.81737,0.0683 -9.56996,1.19819 -14.38183,1.43819 z"
           id="path6492"
           sodipodi:nodetypes="sssscccccccccccccccccccccccccccccccccccccsssss" />
        <path
           style="fill:none;fill-rule:evenodd;stroke:#000000;stroke-width:3.229;stroke-linecap:round;stroke-linejoin:round;stroke-dasharray:none;stroke-opacity:1"
           d="m 655.81158,1269.9158 116.49284,4.3146 -2.87636,117.931 -116.49285,-4.3145 z"
           id="path6494" />
        <path
           style="fill:none;fill-rule:evenodd;stroke:#000000;stroke-width:3.229;stroke-linecap:round;stroke-linejoin:round;stroke-dasharray:none;stroke-opacity:1"
           d="m 185.52564,931.94277 c -4.85769,-2.50586 -9.96024,-5.48735 -12.94365,-10.06728 -3.23659,-4.96858 -3.39458,-11.40022 -4.31455,-17.2582 -1.1181,-7.11962 -2.85965,-14.50745 -1.43818,-21.57275 1.05716,-5.25451 4.9358,-9.51955 7.19092,-14.38184 3.07227,-6.62413 4.93589,-13.8355 8.6291,-20.13456 3.97683,-6.78278 9.29668,-12.6995 14.38183,-18.69638 6.36164,-7.50223 13.47034,-14.33798 20.13457,-21.57275 4.82842,-5.24179 10.13084,-10.09996 14.38183,-15.82002 5.00213,-6.73078 8.6604,-14.36314 12.94365,-21.57275 4.82933,-8.12878 9.68859,-16.241 14.38183,-24.44911 4.89983,-8.56942 10.2853,-16.90611 14.38183,-25.8873 4.65719,-10.21036 6.67883,-21.50868 11.50547,-31.64004 3.60675,-7.57073 8.22202,-14.64232 12.94365,-21.57275 4.42697,-6.49794 9.08562,-12.88506 14.38183,-18.69638 6.1693,-6.76932 13.43794,-12.44825 20.13457,-18.69638 7.68745,-7.17259 14.83873,-14.95776 23.01093,-21.57275 10.44002,-8.45067 22.22068,-15.10386 33.07822,-23.01093 10.23088,-7.4507 19.53128,-16.20485 30.20185,-23.01094 8.67804,-5.53518 18.20839,-9.60425 27.32548,-14.38183 11.01572,-5.77252 21.71137,-12.2121 33.07821,-17.2582 12.61564,-5.60049 25.8873,-9.58789 38.83095,-14.38183 12.94365,-4.79394 25.60738,-10.42491 38.83095,-14.38183 12.25495,-3.66707 24.79213,-6.4257 37.39277,-8.6291 11.89042,-2.07921 23.97727,-2.81482 35.95458,-4.31455 11.03331,-1.38153 21.99674,-3.39601 33.07821,-4.31455 13.3857,-1.10954 26.83759,-1.47811 40.26914,-1.43819 11.5154,0.0342 23.00956,0.99299 34.5164,1.43819 13.42156,0.51928 26.92386,-0.0823 40.26913,1.43818 15.03973,1.71349 29.75462,5.59126 44.58368,8.6291 17.77826,3.642 35.81826,6.33234 53.21278,11.50547 16.7262,4.97437 32.71372,12.17167 48.89823,18.69638 15.93834,6.42547 32.14504,12.33919 47.46005,20.13457 12.4559,6.34009 24.11095,14.15154 35.9546,21.57274 12.6194,7.90729 25.059,16.10319 37.3927,24.44912 9.6929,6.55896 19.6776,12.75785 28.7637,20.13457 8.1625,6.62693 15.3644,14.35652 23.0109,21.57275 9.618,9.07676 19.2933,18.09484 28.7637,27.32548 6.3115,6.15173 13.2243,11.78732 18.6964,18.69638 7.3512,9.28166 13.1389,19.74698 18.6964,30.20185 4.935,9.28381 9.8968,18.70087 12.9436,28.76367 2.5351,8.37276 1.7637,17.51933 4.3146,25.88729 3.3781,11.08164 9.3935,21.1839 14.3818,31.64004 5.5388,11.60998 10.5761,23.52462 17.2582,34.5164 6.7743,11.14339 14.9971,21.35194 23.0109,31.64003 6.9026,8.86147 16.2825,15.97851 21.5728,25.8873 4.0009,7.49374 5.6166,16.10137 7.1909,24.44911 2.051,10.87598 4.7798,22.17543 2.8764,33.07822 -1.1804,6.76162 -4.0132,13.61636 -8.6291,18.69638 -4.4787,4.92909 -10.6836,9.00433 -17.2582,10.06728 -9.1888,1.48562 -19.0658,-1.46092 -27.3255,-5.75273 -8.7284,-4.53535 -14.6366,-13.16007 -21.5728,-20.13456 -5.9807,-6.01372 -10.6372,-13.39584 -17.2582,-18.69639 -8.2162,-6.57766 -17.9601,-11.0176 -27.3254,-15.82001 -9.3556,-4.79745 -18.7414,-9.76614 -28.7637,-12.94365 -14.4292,-4.57469 -29.8353,-5.22111 -44.5837,-8.6291 -12.5767,-2.90617 -24.7954,-7.25223 -37.3928,-10.06729 -13.3072,-2.97367 -40.26908,-7.19091 -40.26908,-7.19091 l -23.01094,-7.19092 -33.07821,-5.75273 -5.75273,1.43818 11.50546,43.1455 41.70732,169.70563 4.31455,14.3818 -2.87637,14.3819 7.19092,7.1909 28.76368,-4.3146 c 0,0 24.9345,-0.8212 37.3927,-1.4382 15.8297,-0.784 31.6179,-3.343 47.4601,-2.8763 12.0656,0.3554 24.1376,1.852 35.9546,4.3145 14.6993,3.0631 29.5976,6.4701 43.1455,12.9437 9.9581,4.7583 18.5221,12.0402 27.3255,18.6964 5.9732,4.5163 12.9071,8.2873 17.2582,14.3818 6.2597,8.7678 9.5556,19.6067 11.5054,30.2018 2.0823,11.3155 1.0332,23.0574 0,34.5164 -0.9627,10.6763 -2.5006,21.4257 -5.7527,31.6401 -2.4075,7.5614 -6.343,14.5656 -10.0673,21.5727 -5.2476,9.8734 -11.6304,19.1019 -17.2582,28.7637 -6.3748,10.9442 -12.0631,22.2887 -18.6964,33.0782 -5.4316,8.8348 -11.384,17.3404 -17.2582,25.8873 -7.9861,11.6196 -15.7771,23.3993 -24.4491,34.5164 -8.1553,10.4548 -25.8873,30.2019 -25.8873,30.2019 l -38.8309,37.3927 -31.6401,30.2019 c 0,0 -19.1018,11.6305 -28.7636,17.2582 -10.9442,6.3748 -21.9888,12.5776 -33.07825,18.6963 -12.39479,6.839 -24.72795,13.8097 -37.39277,20.1346 -12.28139,6.1334 -24.85055,11.6775 -37.39276,17.2582 -10.00698,4.4527 -19.91363,9.1863 -30.20185,12.9437 -10.82601,3.9538 -21.67832,8.3709 -33.07822,10.0672 -6.63843,0.9878 -13.55063,1.3025 -20.13456,0 -8.646,-1.7104 -16.5734,-6.111 -24.44912,-10.0672 -4.99576,-2.5095 -11.28938,-3.9716 -14.38183,-8.6291 -3.75015,-5.648 -2.52102,-13.3642 -2.87637,-20.1346 -0.6789,-12.9347 0.90442,-25.8895 1.43819,-38.831 0.43508,-10.5486 1.43818,-31.64 1.43818,-31.64 l 4.31455,-21.5727 -1.43818,-15.82 -12.94365,-4.3146 -169.70563,-5.7527 -10.06728,4.3145 -1.43819,11.5055 c 0,0 2.6681,24.8934 2.87637,37.3928 0.18387,11.035 -1.19843,22.0443 -1.43818,33.0782 -0.18746,8.6271 0.85029,17.3002 0,25.8873 -0.48174,4.8651 -1.00547,9.8651 -2.87637,14.3818 -1.98438,4.7907 -4.41391,9.9235 -8.6291,12.9436 -6.0497,4.3345 -14.32483,4.0634 -21.57275,5.7528 -7.14188,1.6647 -14.24415,4.5776 -21.57275,4.3145 -14.41243,-0.5174 -28.11496,-6.6852 -41.70731,-11.5054 -7.89079,-2.7983 -15.55435,-6.2602 -23.01094,-10.0673 -8.42103,-4.2995 -16.14098,-9.8681 -24.44911,-14.3819 -11.30302,-6.141 -23.44768,-10.7043 -34.5164,-17.2582 -13.0446,-7.7238 -25.23448,-16.8321 -37.39277,-25.8872 -9.84749,-7.3341 -19.32853,-15.1535 -28.76366,-23.011 -7.31213,-6.0895 -21.57275,-18.6964 -21.57275,-18.6964 l -18.69638,-18.6963 -20.13457,-20.1346 c 0,0 -17.52036,-20.8842 -25.8873,-31.64 -8.41858,-10.8222 -17.18115,-21.4521 -24.44912,-33.0783 -6.5924,-10.5455 -11.03765,-22.3091 -17.25819,-33.0782 -6.2528,-10.8249 -14.22394,-20.6245 -20.13457,-31.64 -4.46473,-8.3208 -7.37633,-17.395 -11.50547,-25.8873 -4.03222,-8.293 -9.31599,-15.9713 -12.94365,-24.4491 -4.77107,-11.1499 -8.86556,-22.6794 -11.50546,-34.5164 -1.7862,-8.0091 -2.80481,-16.2435 -2.87637,-24.4491 -0.084,-9.6354 0.71409,-19.3737 2.87637,-28.7637 2.17827,-9.4594 5.56879,-18.7238 10.06728,-27.3255 2.71186,-5.1854 6.14875,-10.0358 10.06728,-14.3818 6.37205,-7.0672 13.83411,-13.1591 21.57275,-18.6964 5.41621,-3.8755 11.14959,-7.414 17.2582,-10.0673 9.18136,-3.988 18.88724,-6.999 28.76367,-8.6291 13.2523,-2.1873 26.85903,-2.198 40.26913,-1.4382 9.67963,0.5484 20.13457,4.3146 28.76367,4.3146 8.6291,0 44.58368,2.8763 44.58368,2.8763 l 27.32548,7.191 23.01093,2.8763 8.6291,-4.3145 35.95458,-123.68378 17.2582,-48.89823 23.01094,-38.83095 7.19091,-24.44912 -12.94365,-7.19091 -51.7746,8.6291 c 0,0 -49.88148,7.51459 -74.78553,11.50546 -14.39653,2.30704 -28.85881,4.28001 -43.14549,7.19092 -14.01379,2.85531 -28.03515,5.87077 -41.70732,10.06728 -7.8313,2.40372 -15.67436,4.98467 -23.01093,8.6291 -9.64822,4.79275 -18.28869,11.39348 -27.32548,17.2582 -7.24954,4.70482 -14.88921,8.90264 -21.57275,14.38183 -4.1944,3.43858 -6.84911,8.72425 -11.50547,11.50547 -4.29689,2.56651 -9.37681,4.31455 -14.38183,4.31455 -5.00503,0 -9.93377,-2.02 -14.38184,-4.31455 z"
           id="path6496"
           sodipodi:nodetypes="sssssssssssssssssssssssssssssssssssssssssssssssssssssssssccccccccccsssssssssssssscccssssssssssscccccccssssssssssssscccssssssssssssssssccccccccccsssssssss" />
        <path
           style="fill:#494949;fill-opacity:1;fill-rule:evenodd;stroke:#000000;stroke-width:9.28779;stroke-linecap:round;stroke-linejoin:round;stroke-dasharray:none;stroke-opacity:1"
           d="m 637.1152,1740.057 c -41.81562,-6.6739 -126.52415,-26.7454 -159.63835,-37.8259 -35.91345,-12.0172 -133.01809,-60.1826 -165.39108,-82.0365 -106.5202,-71.9083 -192.67664,-173.0853 -245.615898,-288.4369 -19.724934,-42.9795 -36.268023,-88.6622 -36.268023,-100.152 0,-3.8551 1.946372,-11.6675 4.325271,-17.361 3.997693,-9.5678 3.678912,-14.5504 -4.209106,-65.7886 C 11.874871,1028.6549 12.500927,990.34443 34.569864,888.27101 49.431107,819.53468 105.47393,698.28329 149.49053,639.63455 178.60038,600.8479 229.00706,544.70301 255.00247,522.11132 322.04269,463.849 440.92626,400.26663 529.03903,375.54863 c 74.95187,-21.02601 155.68955,-27.70405 244.70358,-20.24014 95.22102,7.98439 154.47127,24.51972 241.72169,67.45874 78.8996,38.8293 126.9847,72.91536 181.3174,128.53022 49.3802,50.54539 68.0585,72.05392 86.0401,99.0771 18.659,28.04121 77.6712,147.69386 88.7584,179.96583 16.3007,47.44694 34.0529,135.66982 38.1051,189.37022 3.4797,46.1143 -8.4503,146.0493 -24.5097,205.3128 -4.1072,15.1567 -4.6812,21.8089 -2.4371,28.2462 4.5919,13.1725 1.1495,27.9116 -15.0901,64.6104 -19.1657,43.3111 -41.3289,82.2316 -65.3625,114.7821 -28.4938,38.5914 -75.1541,92.4832 -101.6717,117.4291 -30.1473,28.3604 -85.7494,70.0172 -124.0345,92.926 -28.8227,17.2468 -117.96608,58.302 -147.5133,67.9376 -19.72506,6.4326 -81.93396,20.8574 -106.42556,24.6778 -59.9694,9.3544 -142.33039,11.3185 -185.52564,4.4244 z m 256.30287,-160.9839 c 34.5667,-13.7399 83.83535,-38.1815 127.69203,-63.3466 28.5276,-16.3692 40.7548,-25.754 70.471,-54.0897 42.0739,-40.1191 57.088,-57.0846 82.2409,-92.9296 23.7336,-33.8225 66.5153,-108.3029 70.7801,-123.2242 1.8113,-6.3369 3.394,-25.1126 3.5171,-41.7236 0.2014,-27.1486 -0.5075,-31.5104 -7.0105,-43.1455 -15.4327,-27.6118 -56.9157,-50.6272 -104.5607,-58.012 -17.8785,-2.7711 -80.2626,-0.8484 -134.1343,4.1342 -6.36106,0.5883 -7.23836,-0.4967 -7.6023,-9.4023 -0.31905,-7.8057 -45.17872,-194.32236 -54.52841,-226.71707 -1.84306,-6.38573 -1.44215,-6.58644 9.24844,-4.63074 6.14625,1.12437 17.64683,3.81233 25.55684,5.97326 7.91001,2.16096 24.5961,5.83442 37.08023,8.1633 12.4841,2.32885 31.8996,6.71833 43.1455,9.75439 11.2459,3.03604 29.8108,7.06097 41.2554,8.94427 32.8421,5.40443 63.3609,21.77104 91.1374,48.87504 24.1668,23.58175 33.1636,28.90001 48.599,28.72826 29.2286,-0.32517 39.5733,-25.75674 29.1386,-71.63487 -3.8121,-16.76042 -6.8341,-22.35855 -20.492,-37.96059 -8.8112,-10.0655 -20.2454,-24.80829 -25.4092,-32.76173 -14.7186,-22.66977 -36.0524,-70.51864 -37.797,-84.77383 -0.8713,-7.11901 -6.8382,-23.94575 -13.2599,-37.39276 -10.4291,-21.83862 -15.8504,-28.63245 -50.774,-63.62889 -33.5014,-33.57132 -45.6844,-43.50333 -85.1084,-69.38369 -54.42558,-35.72832 -57.20821,-37.19359 -112.50164,-59.24041 -33.76083,-13.46126 -53.62936,-19.27175 -93.99065,-27.48727 -48.20998,-9.81311 -54.46984,-10.42905 -107.86375,-10.61333 -54.01302,-0.18642 -99.68848,3.70271 -141.53636,12.05141 -44.53956,8.8857 -143.80047,52.67206 -174.93481,77.16793 -7.40696,5.82766 -21.8324,16.25642 -32.05656,23.17502 -42.66074,28.86826 -82.19242,74.75514 -93.25644,108.24861 -9.14098,27.67197 -44.23721,84.2642 -68.4554,110.38345 -16.58793,17.89005 -25.77485,30.92217 -34.24449,48.57769 -11.48354,23.93815 -11.55171,24.27869 -8.63719,43.14549 3.26851,21.1583 10.99606,30.42845 28.05897,33.66017 12.34928,2.33894 20.67803,-0.61442 32.6092,-11.56326 24.60152,-22.57594 60.43981,-40.87601 96.36808,-49.20833 19.66696,-4.56108 177.61259,-30.09537 186.15874,-30.09537 2.9097,0 6.00504,1.86239 6.87854,4.13864 1.67925,4.37607 -10.22488,33.57565 -20.59297,50.51233 -3.38957,5.53701 -11.45893,26.24684 -17.93188,46.02186 -24.54024,74.97082 -34.74294,108.23522 -36.61237,119.36922 -1.06251,6.328 -3.26882,13.1234 -4.90297,15.1009 -3.91977,4.7434 -16.43174,4.5459 -36.36801,-0.5739 -22.07286,-5.6685 -82.74527,-11.7001 -112.59347,-11.1932 -52.53114,0.8921 -92.86433,27.7085 -107.78797,71.665 -6.48487,19.1008 -6.56103,56.3332 -0.15607,76.3005 6.20495,19.3438 34.16906,77.7694 44.60419,93.1919 4.28166,6.328 12.58131,20.704 18.44368,31.9466 23.11471,44.3286 89.33437,116.2785 146.70822,159.4034 23.05744,17.3311 53.24557,35.2333 102.40998,60.7313 16.81728,8.7219 51.09434,19.7415 61.06877,19.6328 5.17122,-0.056 17.1684,-1.9451 26.66041,-4.1974 31.21056,-7.4054 35.03075,-18.8434 32.32596,-96.7866 -1.35704,-39.1053 -0.96801,-45.4364 2.88275,-46.914 5.09825,-1.9564 164.79257,3.4124 177.1979,5.9572 7.75506,1.5909 8.10046,2.3054 6.58156,13.6147 -3.77209,28.0858 -7.33131,93.471 -5.71502,104.9882 1.7108,12.1907 2.28587,12.7723 22.23986,22.4931 17.86284,8.7021 22.54689,9.8087 36.60988,8.6496 9.06418,-0.7471 27.95868,-6.0324 43.1455,-12.069 z"
           id="path6663" />
        <path
           style="fill:#000000;fill-opacity:1;fill-rule:evenodd;stroke:#000000;stroke-width:9.28779;stroke-linecap:round;stroke-linejoin:round;stroke-dasharray:none;stroke-opacity:1"
           d="m 668.46547,1425.3832 c -29.93884,-1.0553 -46.33296,-2.7966 -49.25881,-5.2319 -6.79272,-5.6538 -10.15229,-23.5277 -15.2628,-81.2027 -2.59332,-29.267 -6.57195,-64.2148 -8.8414,-77.6619 -7.4303,-44.0263 -26.56203,-82.9317 -59.32603,-120.6427 -13.73482,-15.8086 -45.31201,-33.344 -64.89487,-36.0373 -17.07569,-2.3485 -23.60656,-9.6105 -23.60656,-26.2492 0,-24.2714 43.57374,-153.4532 65.82644,-195.15382 4.9275,-9.23393 8.95909,-19.10735 8.95909,-21.94093 0,-12.02018 13.67707,-16.45915 69.78971,-22.65068 59.10152,-6.52132 185.04044,-8.3577 203.4841,-2.96709 5.52657,1.61527 19.10885,4.17009 30.18287,5.67739 27.71439,3.77223 69.01047,11.46169 86.29099,16.06764 l 14.38184,3.83335 28.73406,104.3925 c 22.20967,80.68894 28.72855,108.45534 28.70974,122.28544 -0.0288,21.1534 -2.08497,23.3883 -30.11832,32.7357 -32.82858,10.9464 -60.3347,26.0801 -72.48709,39.8818 -28.70159,32.597 -46.35929,65.3849 -55.81695,103.6443 -2.15089,8.701 -8.4816,48.0092 -14.06825,87.3514 -5.58666,39.3423 -10.86257,72.6722 -11.72428,74.0665 -1.62169,2.6239 -53.10713,2.5461 -130.95348,-0.1979 z m 104.82805,-72.51 c 1.03799,-23.9816 1.88727,-52.4576 1.88727,-63.2801 v -19.6773 H 748.3069 c -14.78064,0 -42.53519,-0.8421 -61.67678,-1.8713 l -34.80289,-1.8713 -0.88419,61.5559 c -0.48631,33.8558 -0.78516,61.8707 -0.66411,62.2554 0.12103,0.3847 26.65552,1.8065 58.96551,3.1596 32.30999,1.353 59.51411,2.6562 60.45362,2.896 0.93951,0.2396 2.55747,-19.1854 3.59546,-43.1669 z"
           id="path8045" />
        <path
           style="fill:#dadada;fill-opacity:1;fill-rule:evenodd;stroke:#000000;stroke-width:9.28779;stroke-linecap:round;stroke-linejoin:round;stroke-dasharray:none;stroke-opacity:1"
           d="m 676.60359,1385.7539 -19.47712,-1.049 0.78074,-55.2373 0.78073,-55.2372 54.65097,1.0757 c 30.05803,0.5916 55.11925,1.4914 55.6916,1.9994 0.57235,0.5081 -0.0748,25.2641 -1.43818,55.0135 l -2.47882,54.0897 -34.5164,0.1971 c -18.98402,0.1084 -43.2811,-0.275 -53.99352,-0.8519 z"
           id="path9289" />
      </g>
    </g>
  </g>
</svg>
