<?xml version="1.0" encoding="UTF-8" standalone="no"?>
<!-- Created with Inkscape (http://www.inkscape.org/) -->

<svg
   version="1.1"
   id="svg1109"
   width="470"
   height="345"
   viewBox="0 0 470 345"
   sodipodi:docname="carOne.svg"
   inkscape:version="1.2.1 (9c6d41e4, 2022-07-14)"
   xmlns:inkscape="http://www.inkscape.org/namespaces/inkscape"
   xmlns:sodipodi="http://sodipodi.sourceforge.net/DTD/sodipodi-0.dtd"
   xmlns="http://www.w3.org/2000/svg"
   xmlns:svg="http://www.w3.org/2000/svg">
  <defs
     id="defs1113" />
  <sodipodi:namedview
     id="namedview1111"
     pagecolor="#ffffff"
     bordercolor="#000000"
     borderopacity="0.25"
     inkscape:showpageshadow="2"
     inkscape:pageopacity="0.0"
     inkscape:pagecheckerboard="0"
     inkscape:deskcolor="#d1d1d1"
     showgrid="false"
     inkscape:zoom="1.017006"
     inkscape:cx="388.88659"
     inkscape:cy="217.30452"
     inkscape:window-width="1440"
     inkscape:window-height="764"
     inkscape:window-x="0"
     inkscape:window-y="25"
     inkscape:window-maximized="1"
     inkscape:current-layer="g1115" />
  <g
     inkscape:groupmode="layer"
     inkscape:label="Image"
     id="g1115">
    <g
       id="g57520"
       transform="matrix(0.76985042,0,0,0.71670898,-72.322697,-30.146175)">
      <rect
         style="fill:#de0a0a;fill-opacity:1;stroke:#000000;stroke-width:2.43402;stroke-linejoin:round;stroke-dasharray:none;stroke-opacity:1"
         id="rect2736-3"
         width="48.142799"
         height="14.059402"
         x="627.77356"
         y="363.2012" />
      <path
         style="fill:none;stroke:#000000;stroke-width:2.43402;stroke-linejoin:round;stroke-dasharray:none;stroke-opacity:1"
         d="m 177.1871,445.14703 c 5.39055,1.26837 6.36241,57.19469 4.09107,69.08011 -2.25255,11.78707 -70.02277,10.15312 -71.97842,-2.46356 -5.61587,-36.23025 -0.23519,-111.99304 -2.15145,-111.46233 l -3.61174,-18.35968 -1.80587,-31.90371 c 0,0 -4.286149,-9.6112 -5.116629,-14.74794 -1.167867,-7.22357 -1.680591,-14.56047 -0.601956,-22.2724 0.354304,-2.53317 5.116635,-5.71859 5.116635,-5.71859 l 0.60195,-36.41838 c 0,0 0.97475,-11.04565 3.46582,-13.54403 3.80222,-3.81338 9.47625,-13.84501 9.47625,-13.84501 l 18.66066,-42.73893 21.06849,-41.83599 c 1.45925,-2.43209 -10.42885,-1.20238 -17.14461,-2.19603 -2.60247,-0.38505 -2.40161,-30.64505 2.96519,-30.43226 9.39727,0.3726 35.78874,0.72613 35.24791,1.62751 l 31.20256,-38.033884 19.66279,-23.96766 c 0,0 7.4516,-7.676179 11.73815,-10.835222 5.31935,-3.920189 10.56002,-9.532924 17.15577,-9.932286 44.70831,-2.707015 138.14908,-1.672103 138.14908,-1.672103 0,0 106.16239,-0.382781 151.6931,2.876016 6.35583,0.45491 12.61588,5.629562 17.6797,9.497541 7.00518,5.350873 12.06512,12.102836 18.13673,18.493449 15.24933,16.050533 41.23404,52.069259 41.23404,52.069259 -0.9022,0.75183 23.53132,0.69144 32.20469,1.2931 3.48582,0.24181 3.93585,31.55609 1.29309,32.02633 -2.67587,0.47613 -11.78474,1.63666 -12.73027,0.69113 l 13.24305,21.97142 c 0,0 5.7051,7.59978 7.99265,11.35915 5.93533,9.75414 14.58073,26.86511 14.58073,26.86511 l 10.53424,28.89392 c 0,0 4.49132,7.85763 5.79662,12.55191 0.89344,3.2131 0.0557,11.70472 0.0557,11.70472 l 0.76917,37.14296 c 0,0 4.20625,16.28076 6.32055,25.28219 3.31309,14.10518 -0.38976,29.87176 -3.31076,43.34088 -0.8468,3.90468 -5.77676,5.7374 -7.52446,9.33033 -2.34199,4.81468 -3.61174,15.65088 -3.61174,15.65088 0,0 3.71061,81.73986 -4.29173,108.49713 -2.4835,8.30402 -61.29751,13.01555 -65.31231,0.90294 -3.25077,-9.80754 0.37901,-70.57386 0.37901,-70.57386 H 504.13879 c -1.09182,0 3.84837,22.14833 -0.30097,22.2724 -50.97258,1.52419 -111.53269,1.8446 -164.93616,2.10685 -3.82421,0.0188 -2.63077,-11.43718 -2.63077,-11.43718 0,0 0.4468,-19.46147 -5.79662,-25.58316 -6.35234,-6.22849 -17.247,-5.15745 -26.14053,-5.38417 -18.70935,-0.47694 -37.41927,-0.79377 -57.95507,0.90293 -2.10207,0.17368 -3.84568,0.65237 -5.02744,2.01771 -3.5931,4.15128 0.57245,15.83182 -3.87928,16.00759 -18.66881,0.73709 -60.28485,0.9029 -60.28485,0.9029 z"
         id="path2478"
         sodipodi:nodetypes="csscccssccscccsscccascssscssccsccsccssscssccsscassasc" />
      <rect
         style="fill:#de0a0a;fill-opacity:1;stroke:#000000;stroke-width:2.43402;stroke-linejoin:round;stroke-dasharray:none;stroke-opacity:1"
         id="rect2736"
         width="48.142799"
         height="14.059402"
         x="125.25648"
         y="363.73248" />
      <rect
         style="fill:#ffffff;fill-opacity:1;stroke:#000000;stroke-width:2.05606;stroke-linecap:round;stroke-linejoin:round;stroke-dasharray:none;stroke-opacity:1"
         id="rect3854"
         width="199.38788"
         height="45.586544"
         x="298.48578"
         y="236.45357" />
      <path
         style="fill:none;fill-opacity:1;stroke:#000000;stroke-width:1.75748;stroke-linecap:round;stroke-linejoin:round;stroke-dasharray:none;stroke-opacity:1"
         d="M 172.12115,316.12351 158.4878,200.23996 h -6.81668 l 2.55625,-20.45004 5.9646,-11.50315 481.85402,0.42604 5.11251,9.37294 2.70127,25.6806 -10.37003,0.30799 -14.05941,132.4992 -450.83339,-0.58698 z"
         id="path5196"
         sodipodi:nodetypes="cccccccccccc" />
      <path
         style="fill:none;fill-opacity:1;stroke:#000000;stroke-width:1.75748;stroke-linecap:round;stroke-linejoin:round;stroke-dasharray:none;stroke-opacity:1"
         d="m 158.50319,200.37727 h 11.80343 l 0.84311,-18.26722 465.11132,1.68621 2.24827,20.23445 z"
         id="path5200"
         sodipodi:nodetypes="cccccc" />
      <path
         style="fill:none;fill-opacity:1;stroke:#000000;stroke-width:1.00157;stroke-linecap:round;stroke-linejoin:round;stroke-dasharray:none;stroke-opacity:1"
         d="m 121.97558,232.42196 38.49485,-0.56888 9.83619,85.43434 c 0,0 -52.24859,1.93353 -61.54645,0.28104 -5.86695,-1.04272 -2.24827,-41.59304 -2.24827,-41.59304 z"
         id="path5202"
         sodipodi:nodetypes="cccscc" />
      <path
         style="fill:none;fill-opacity:1;stroke:#000000;stroke-width:1.00157;stroke-linecap:round;stroke-linejoin:round;stroke-dasharray:none;stroke-opacity:1"
         d="m 637.66622,232.69618 42.43614,-0.28103 12.3655,38.50166 -0.28104,45.80855 -63.51369,0.8431 z"
         id="path5204"
         sodipodi:nodetypes="cccccc" />
      <path
         style="fill:none;fill-opacity:1;stroke:#000000;stroke-width:1.00157;stroke-linecap:round;stroke-linejoin:round;stroke-dasharray:none;stroke-opacity:1"
         d="m 691.34372,278.22369 -57.61197,1.68621"
         id="path5258" />
      <path
         style="fill:none;fill-opacity:1;stroke:#060606;stroke-width:1.00157;stroke-linecap:round;stroke-linejoin:round;stroke-dasharray:none;stroke-opacity:1"
         d="m 645.53518,263.32889 28.38443,-1.12414 2.52931,16.29998 -33.44305,0.56207 z"
         id="path5260" />
      <path
         style="fill:none;fill-opacity:1;stroke:#000000;stroke-width:1.00157;stroke-linecap:round;stroke-linejoin:round;stroke-dasharray:none;stroke-opacity:1"
         d="M 164.96698,279.34783 106.5119,279.0668"
         id="path5262" />
      <path
         style="fill:none;fill-opacity:1;stroke:#000000;stroke-width:1.00157;stroke-linecap:round;stroke-linejoin:round;stroke-dasharray:none;stroke-opacity:1"
         d="m 123.93601,278.22369 1.12413,-16.01894 h 28.66548 l 2.5293,16.86205 z"
         id="path5264" />
      <path
         style="fill:none;fill-opacity:1;stroke:#000000;stroke-width:1.37953;stroke-linecap:round;stroke-linejoin:round;stroke-dasharray:none;stroke-opacity:1"
         d="m 162.43767,231.29101 130.11876,0.8431 0.28103,54.80164 -123.93601,-1.68621 z"
         id="path5266" />
      <path
         style="fill:none;fill-opacity:1;stroke:#000000;stroke-width:1.37953;stroke-linecap:round;stroke-linejoin:round;stroke-dasharray:none;stroke-opacity:1"
         d="m 503.89402,232.97721 132.36703,-1.40517 -6.74481,55.08267 -125.62222,0.56207 z"
         id="path5268"
         sodipodi:nodetypes="ccccc" />
      <path
         style="fill:none;fill-opacity:1;stroke:#000000;stroke-width:1.37953;stroke-linecap:round;stroke-linejoin:round;stroke-dasharray:none;stroke-opacity:1"
         d="m 172.5549,317.00639 453.30789,1.12414"
         id="path5270" />
      <rect
         style="fill:#f30b0b;fill-opacity:1;stroke:#310202;stroke-width:1.046;stroke-linecap:round;stroke-linejoin:round;stroke-dasharray:none;stroke-opacity:1"
         id="rect5272"
         width="46.089581"
         height="22.763756"
         x="203.18761"
         y="289.74609" />
      <path
         style="fill:none;fill-opacity:1;stroke:#000000;stroke-width:1.75748;stroke-linecap:round;stroke-linejoin:round;stroke-dasharray:none;stroke-opacity:1"
         d="m 292.27539,232.41515 211.61863,0.56206 -0.8431,55.64474 -210.21346,-1.40517 z"
         id="path7772" />
      <path
         style="fill:none;fill-opacity:1;stroke:#000000;stroke-width:1.00157;stroke-linecap:round;stroke-linejoin:round;stroke-dasharray:none;stroke-opacity:1"
         d="m 666.61273,317.84949 -1.68621,18.82928 -39.6258,0.28104 2.24828,-19.39135 z"
         id="path7936" />
      <path
         style="fill:none;fill-opacity:1;stroke:#000000;stroke-width:1.75748;stroke-linecap:round;stroke-linejoin:round;stroke-dasharray:none;stroke-opacity:1"
         d="M 642.16277,160.75147 622.81305,127.43748"
         id="path7938"
         sodipodi:nodetypes="cc" />
      <path
         style="fill:none;fill-opacity:1;stroke:#000000;stroke-width:1.75748;stroke-linecap:round;stroke-linejoin:round;stroke-dasharray:none;stroke-opacity:1"
         d="m 650.03172,203.18761 18.54825,-0.84311"
         id="path7940" />
      <path
         style="fill:none;fill-opacity:1;stroke:#000000;stroke-width:1.00157;stroke-linecap:round;stroke-linejoin:round;stroke-dasharray:none;stroke-opacity:1"
         d="m 664.36446,336.67877 26.97926,-0.28103 5.33965,-21.35859"
         id="path7942" />
      <path
         style="fill:none;fill-opacity:1;stroke:#000000;stroke-width:1.00157;stroke-linecap:round;stroke-linejoin:round;stroke-dasharray:none;stroke-opacity:1"
         d="m 134.33427,317.56846 1.6862,18.82928 38.22063,-0.28104 -3.37241,-19.67238 z"
         id="path7944"
         sodipodi:nodetypes="ccccc" />
      <path
         style="fill:none;fill-opacity:1;stroke:#000000;stroke-width:1.00157;stroke-linecap:round;stroke-linejoin:round;stroke-dasharray:none;stroke-opacity:1"
         d="m 136.71161,335.83567 c 0,0 -21.41699,1.59494 -28.23247,0 -6.40562,-1.49903 -9.467723,-25.3347 -9.467723,-25.3347"
         id="path7946"
         sodipodi:nodetypes="csc" />
      <path
         style="fill:none;fill-opacity:1;stroke:#000000;stroke-width:1.75748;stroke-linecap:round;stroke-linejoin:round;stroke-dasharray:none;stroke-opacity:1"
         d="m 154.56872,158.50319 21.96229,-31.32384"
         id="path7948"
         sodipodi:nodetypes="cc" />
      <path
         style="fill:none;fill-opacity:1;stroke:#000000;stroke-width:1.75748;stroke-linecap:round;stroke-linejoin:round;stroke-dasharray:none;stroke-opacity:1"
         d="m 505.22341,443.15278 -169.7635,0.29999"
         id="path7950"
         sodipodi:nodetypes="cc" />
      <path
         style="fill:none;fill-opacity:1;stroke:#000000;stroke-width:1.75748;stroke-linecap:round;stroke-linejoin:round;stroke-dasharray:none;stroke-opacity:1"
         d="m 618.27487,443.51334 c 0,0 56.30624,0.84159 60.14129,-0.32267 3.2984,-1.00135 9.85322,-8.71887 9.85322,-8.71887"
         id="path7952"
         sodipodi:nodetypes="csc" />
      <path
         style="fill:none;fill-opacity:1;stroke:#000000;stroke-width:1.75748;stroke-linecap:round;stroke-linejoin:round;stroke-dasharray:none;stroke-opacity:1"
         d="m 687.16985,412.27693 c 0,0 -3.69105,8.09211 -11.00197,8.14998 -78.50111,0.62135 -235.50652,-1.40517 -235.50652,-1.40517 0,0 -270.22203,-0.40331 -317.28742,1.12414 -7.63691,0.24785 -14.8948,-17.42411 -14.8948,-17.42411"
         id="path7954"
         sodipodi:nodetypes="cscsc" />
      <path
         style="fill:none;fill-opacity:1;stroke:#000000;stroke-width:1.75748;stroke-linecap:round;stroke-linejoin:round;stroke-dasharray:none;stroke-opacity:1"
         d="m 177.11598,444.91851 c 0,0 -51.48329,3.66016 -61.76296,-0.8202 -6.82539,-2.97482 -7.43595,-20.01795 -7.43595,-20.01795"
         id="path7956"
         sodipodi:nodetypes="csc" />
      <path
         style="fill:none;fill-opacity:1;stroke:#000000;stroke-width:1.75748;stroke-linecap:round;stroke-linejoin:round;stroke-dasharray:none;stroke-opacity:1"
         d="m 309.23217,457.29921 26.56186,-0.2088"
         id="path8042"
         sodipodi:nodetypes="cc" />
      <g
         id="g8785"
         transform="translate(1.0507583,-2.1015166)">
        <ellipse
           style="fill:none;fill-opacity:1;stroke:#000000;stroke-width:1.75748;stroke-linecap:round;stroke-linejoin:round;stroke-dasharray:none;stroke-opacity:1"
           id="path8012-5"
           cx="299.0202"
           cy="449.09241"
           rx="13.630151"
           ry="14.051702" />
        <ellipse
           style="fill:none;fill-opacity:1;stroke:#000000;stroke-width:1.75748;stroke-linecap:round;stroke-linejoin:round;stroke-dasharray:none;stroke-opacity:1"
           id="path8012"
           cx="269.09009"
           cy="450.21652"
           rx="13.630151"
           ry="14.051702" />
        <path
           style="fill:none;fill-opacity:1;stroke:#000000;stroke-width:1.75748;stroke-linecap:round;stroke-linejoin:round;stroke-dasharray:none;stroke-opacity:1"
           d="m 274.65769,437.48255 18.74184,-1.0367"
           id="path8038"
           sodipodi:nodetypes="cc" />
        <path
           style="fill:none;fill-opacity:1;stroke:#000000;stroke-width:1.75748;stroke-linecap:round;stroke-linejoin:round;stroke-dasharray:none;stroke-opacity:1"
           d="m 281.31507,456.96134 h 6.74481"
           id="path8040" />
        <path
           style="fill:none;fill-opacity:1;stroke:#000000;stroke-width:1.75748;stroke-linecap:round;stroke-linejoin:round;stroke-dasharray:none;stroke-opacity:1"
           d="m 305.93989,436.51039 25.68027,-0.90764"
           id="path8044"
           sodipodi:nodetypes="cc" />
      </g>
      <path
         style="fill:none;fill-opacity:1;stroke:#000000;stroke-width:1.75748;stroke-linecap:round;stroke-linejoin:round;stroke-dasharray:none;stroke-opacity:1"
         d="m 702.44536,348.8331 -8.01026,4.14565 c 0,0 -547.99026,0.99193 -586.237,1.12413 -2.26575,0.008 -5.90171,-3.37241 -5.90171,-3.37241"
         id="path8046"
         sodipodi:nodetypes="ccsc" />
      <path
         style="fill:none;fill-opacity:1;stroke:#000000;stroke-width:1.75748;stroke-linecap:round;stroke-linejoin:round;stroke-dasharray:none;stroke-opacity:1"
         d="m 703.39485,351.43226 -12.6132,8.57234 c 0,0 -542.71626,0.82435 -579.21114,0.56207 -3.89853,-0.028 -9.55516,-6.74482 -9.55516,-6.74482"
         id="path8048"
         sodipodi:nodetypes="ccsc" />
      <path
         style="fill:none;fill-opacity:1;stroke:#010101;stroke-width:1.75748;stroke-linecap:round;stroke-linejoin:round;stroke-dasharray:none;stroke-opacity:1"
         d="m 256.91091,68.853338 c 1.70786,-0.595516 194.95513,-5.267407 275.33841,-1.317737 30.60331,1.503708 73.73202,88.970999 71.56375,90.534589 -6.74285,4.86246 -408.21338,-1.53423 -408.21338,-1.53423 -11.17855,1.72055 37.32999,-79.320542 61.31122,-87.682622 z"
         id="path8050"
         sodipodi:nodetypes="sssss" />
      <path
         style="fill:none;fill-opacity:1;stroke:#000000;stroke-width:1.75748;stroke-linecap:round;stroke-linejoin:round;stroke-dasharray:none;stroke-opacity:1"
         d="M 692.86339,386.34477 103.67033,384.61693"
         id="path8778" />
      <path
         style="fill:none;fill-opacity:1;stroke:#000000;stroke-width:1.75748;stroke-linecap:round;stroke-linejoin:round;stroke-dasharray:none;stroke-opacity:1"
         d="m 151.52456,200.04227 -15.83329,-0.74642"
         id="path9513"
         sodipodi:nodetypes="cc" />
      <path
         style="fill:none;fill-opacity:1;stroke:#000000;stroke-width:0.551386;stroke-linecap:round;stroke-linejoin:round;stroke-dasharray:none;stroke-opacity:1"
         d="m 107.93136,278.24294 c -0.36241,-0.14623 -0.65768,-0.66123 -0.65615,-1.14444 0.002,-0.48321 3.41423,-10.48564 7.58381,-22.22762 l 7.58104,-21.34906 6.78068,-0.33526 c 3.72937,-0.18439 12.13682,-0.3623 18.68321,-0.39535 l 11.90254,-0.0601 1.18609,10.41096 c 0.65234,5.72603 1.83565,16.04474 2.62957,22.93047 l 1.44349,12.51951 h -4.0667 -4.0667 l -0.65319,-4.61245 c -0.35925,-2.53685 -0.92756,-6.39154 -1.26291,-8.56598 l -0.60973,-3.95353 h -15.001 -15.00101 l -0.61566,7.64349 c -0.33862,4.20392 -0.63513,8.05861 -0.65893,8.56598 -0.0391,0.83387 -0.73962,0.9185 -7.29139,0.88088 -3.98648,-0.0229 -7.54465,-0.16126 -7.90706,-0.3075 z"
         id="path9584" />
      <path
         style="fill:#edac47;fill-opacity:1;stroke:#cfca37;stroke-width:0.551386;stroke-linecap:round;stroke-linejoin:round;stroke-dasharray:none;stroke-opacity:1"
         d="m 108.44057,277.6193 c -0.69154,-0.43879 1.87051,-8.35376 10.86153,-33.55474 l 3.5733,-10.01561 7.35372,-0.33103 c 4.04454,-0.18207 12.27586,-0.35998 18.29181,-0.39536 8.9889,-0.0529 10.9381,0.0656 10.9381,0.66442 0,0.4008 1.06745,9.98363 2.37212,21.29518 1.30466,11.31155 2.37211,21.06512 2.37211,21.67461 0,1.01137 -0.29642,1.10815 -3.39409,1.10815 h -3.39409 l -0.32772,-2.24034 c -0.18025,-1.23218 -0.72851,-4.96827 -1.21836,-8.30241 l -0.89064,-6.06208 -15.57619,-0.13946 -15.57618,-0.13947 -0.60123,7.91322 c -0.33068,4.35227 -0.74827,8.15111 -0.92797,8.44188 -0.39209,0.63441 -12.8694,0.7092 -13.85622,0.083 z"
         id="path11934" />
      <path
         style="fill:#edac47;fill-opacity:1;stroke:#cfca37;stroke-width:0.551386;stroke-linecap:round;stroke-linejoin:round;stroke-dasharray:none;stroke-opacity:1"
         d="m 633.54178,278.1967 c 0.14156,-0.50737 1.28351,-10.82608 2.53768,-22.93047 l 2.28029,-22.00798 h 20.59127 20.59127 l 6.1627,19.20657 c 4.75306,14.8133 6.16269,19.86177 6.16269,22.071 v 2.86443 l -7.24813,0.26003 c -3.98648,0.14301 -7.30707,0.21387 -7.37909,0.15745 -0.072,-0.0564 -0.67625,-3.64135 -1.34273,-7.96653 l -1.21179,-7.86397 -4.19221,-0.14806 c -5.49507,-0.19408 -24.89496,0.64389 -25.34588,1.0948 -0.31723,0.31724 -1.60041,7.24865 -2.53276,13.68132 l -0.36291,2.5039 h -4.48389 c -4.01699,0 -4.45709,-0.096 -4.22651,-0.92249 z"
         id="path16628" />
      <path
         style="fill:#e6e6e6;fill-opacity:1;stroke:#cfca37;stroke-width:0.551386;stroke-linecap:round;stroke-linejoin:round;stroke-dasharray:none;stroke-opacity:1"
         d="m 644.07263,277.16511 c 0.14294,-0.51985 0.67567,-3.70348 1.18386,-7.07474 l 0.92397,-6.12956 12.16908,-0.35221 c 6.693,-0.19371 12.7761,-0.46875 13.51802,-0.6112 l 1.34893,-0.259 1.11952,7.25942 c 0.61574,3.99269 0.99745,7.38185 0.84824,7.53148 -0.14921,0.14962 -7.26884,0.34156 -15.8214,0.42652 -14.73805,0.1464 -15.53653,0.1051 -15.29022,-0.79071 z"
         id="path16699" />
      <path
         style="fill:#e6e6e6;fill-opacity:1;stroke:#cfca37;stroke-width:0.551386;stroke-linecap:round;stroke-linejoin:round;stroke-dasharray:none;stroke-opacity:1"
         d="m 130.81472,277.67086 -6.24097,-0.16735 0.29285,-2.48677 c 0.16106,-1.36772 0.44466,-4.68097 0.6302,-7.36278 l 0.33737,-4.87602 h 13.58679 13.5868 l 0.88395,5.93029 c 0.48618,3.26166 1.01526,6.70123 1.17575,7.64349 l 0.2918,1.7132 -9.15178,-0.11335 c -5.03348,-0.0623 -11.96022,-0.18867 -15.39276,-0.28071 z"
         id="path18081" />
      <path
         style="fill:#ff1c00;fill-opacity:1;stroke:#cfca37;stroke-width:0.551386;stroke-linecap:round;stroke-linejoin:round;stroke-dasharray:none;stroke-opacity:1"
         d="m 629.66548,315.87221 c 0,-1.42804 3.69298,-34.8232 3.87054,-35.00075 0.26475,-0.26476 57.79162,-1.94453 58.02159,-1.69422 0.10386,0.11303 0.0639,8.41102 -0.0889,18.43997 l -0.27772,18.23444 -16.61602,0.34715 c -27.79664,0.58072 -44.90951,0.45628 -44.90951,-0.32659 z"
         id="path18083" />
      <path
         style="fill:#ff1c00;fill-opacity:1;stroke:#cfca37;stroke-width:0.551386;stroke-linecap:round;stroke-linejoin:round;stroke-dasharray:none;stroke-opacity:1"
         d="m 112.81196,317.11991 c -3.87675,-0.28566 -4.26469,-0.41967 -4.867,-1.6812 -1.59718,-3.34525 -2.1502,-15.10125 -1.38224,-29.38351 l 0.34455,-6.40795 29.04335,0.33632 c 15.97384,0.18497 29.1101,0.38989 29.19169,0.45538 0.15027,0.1206 3.57598,29.32478 3.89534,33.20773 l 0.17342,2.10855 -17.6591,0.68167 c -22.78111,0.87937 -33.50833,1.0685 -38.74001,0.68301 z"
         id="path20983" />
      <path
         style="fill:#ff1c00;fill-opacity:1;stroke:#cfca37;stroke-width:0.551386;stroke-linecap:round;stroke-linejoin:round;stroke-dasharray:none;stroke-opacity:1"
         d="m 322.15197,316.48493 c -81.71989,-0.22649 -148.65815,-0.48833 -148.75168,-0.58186 -0.29835,-0.29835 -3.61324,-29.36763 -3.36916,-29.54524 0.12882,-0.0937 27.63217,0.25959 61.11857,0.78517 62.04827,0.97387 119.30226,1.56659 217.83948,2.25516 50.64892,0.35394 55.21763,0.31539 55.21763,-0.46589 0,-0.77234 2.34661,-0.85178 25.17081,-0.85215 13.84394,-2.2e-4 42.0601,-0.1577 62.70258,-0.34996 36.78677,-0.34261 37.52758,-0.32952 37.32099,0.65933 -0.11593,0.55488 -0.85256,7.23569 -1.63696,14.84623 l -1.42619,13.83736 -77.80222,-0.0882 c -42.79122,-0.0485 -144.66396,-0.27348 -226.38385,-0.49997 z m -72.02533,-15.23134 v -12.12953 l -23.85296,0.13715 -23.85296,0.13716 -0.14262,11.32042 c -0.0784,6.22623 -0.0266,11.62279 0.11524,11.99237 0.20367,0.53075 5.24611,0.67195 23.99558,0.67195 h 23.73772 z"
         id="path21054" />
      <path
         style="fill:#ff0049;fill-opacity:1;stroke:#cfca37;stroke-width:0.551386;stroke-linecap:round;stroke-linejoin:round;stroke-dasharray:none;stroke-opacity:1"
         d="m 328.42639,334.99709 -152.84995,-0.26492 -0.97328,-8.09576 c -0.53531,-4.45268 -0.8416,-8.22746 -0.68066,-8.3884 0.37262,-0.37262 451.50109,0.73311 451.87554,1.10755 0.25561,0.25561 -0.46867,8.57624 -1.21229,13.92699 l -0.31135,2.24033 -71.49903,-0.13044 c -39.32446,-0.0717 -140.28151,-0.24965 -224.34898,-0.39535 z"
         id="path21062" />
      <path
         style="fill:#ff0049;fill-opacity:1;stroke:#cfca37;stroke-width:0.551386;stroke-linecap:round;stroke-linejoin:round;stroke-dasharray:none;stroke-opacity:1"
         d="m 626.76552,334.60039 c 0.13008,-0.79729 0.48741,-4.05896 0.79406,-7.24814 0.30665,-3.18918 0.67508,-6.54603 0.81872,-7.45968 l 0.26116,-1.66116 18.3039,0.28106 c 10.06714,0.15459 18.39523,0.36089 18.50687,0.45845 0.11164,0.0976 -0.10503,3.98027 -0.48148,8.62824 l -0.68446,8.45086 h -18.87763 -18.87764 z"
         id="path25549" />
      <path
         style="fill:#ff0049;fill-opacity:1;stroke:#cfca37;stroke-width:0.551386;stroke-linecap:round;stroke-linejoin:round;stroke-dasharray:none;stroke-opacity:1"
         d="m 666.07715,333.60788 c 0.0216,-1.41112 0.31806,-5.53081 0.65892,-9.15488 l 0.61973,-6.58922 12.78308,-0.14115 12.78308,-0.14116 0.016,-20.15363 c 0.009,-11.20792 0.21316,-19.80265 0.46015,-19.36292 0.24426,0.43489 0.57076,8.14427 0.72555,17.13196 0.16657,9.67118 0.53055,17.31703 0.89174,18.73184 0.55847,2.18755 0.4103,3.18677 -1.7447,11.7655 -1.29525,5.15621 -2.43733,9.45063 -2.53795,9.54317 -0.10061,0.0926 -5.69811,0.34104 -12.43888,0.5522 l -12.25594,0.38394 z"
         id="path25551" />
      <path
         style="fill:#ff0049;fill-opacity:1;stroke:#cfca37;stroke-width:0.551386;stroke-linecap:round;stroke-linejoin:round;stroke-dasharray:none;stroke-opacity:1"
         d="m 137.00534,334.91428 c -0.36868,-0.59655 -1.95757,-15.7737 -1.6749,-15.99879 0.0791,-0.063 7.99044,-0.26452 17.58072,-0.44782 l 17.43688,-0.33328 1.40828,8.07672 c 0.77455,4.44219 1.40828,8.3546 1.40828,8.69424 0,0.87797 -35.61672,0.88676 -36.15926,0.009 z"
         id="path25553" />
      <path
         style="fill:#ff0049;fill-opacity:1;stroke:#cfca37;stroke-width:0.551386;stroke-linecap:round;stroke-linejoin:round;stroke-dasharray:none;stroke-opacity:1"
         d="m 108.95994,335.1607 c -2.87532,-0.58138 -5.93274,-7.59661 -8.10159,-18.58908 l -1.15151,-5.83627 1.41034,-1.47207 1.41033,-1.47207 0.28784,-17.63062 c 0.39107,-23.95357 1.08575,-28.83047 4.72762,-33.1895 2.74139,-3.28124 6.63385,-9.33612 8.80217,-13.69215 1.08377,-2.17724 1.9765,-3.73655 1.98384,-3.46514 0.007,0.27141 -2.81939,8.45521 -6.28161,18.18623 l -6.29495,17.69277 -0.55784,8.4252 c -1.01468,15.32518 -0.52794,28.25047 1.20112,31.896 1.0682,2.25217 2.57443,2.54305 15.24123,2.94335 6.5958,0.20844 11.99942,0.40348 12.00803,0.43341 0.28064,0.97523 1.41572,15.40391 1.22672,15.59361 -0.34447,0.34575 -24.26865,0.50855 -25.91174,0.17633 z"
         id="path25555" />
      <path
         style="fill:#ff5200;fill-opacity:1;stroke:#cfca37;stroke-width:0.551386;stroke-linecap:round;stroke-linejoin:round;stroke-dasharray:none;stroke-opacity:1"
         d="m 350.01916,315.98993 c -64.65339,-0.18877 -130.74561,-0.37811 -146.87161,-0.42075 l -29.31999,-0.0775 -0.33041,-2.5039 c -1.2763,-9.67202 -2.94586,-25.63246 -2.70636,-25.87196 0.15954,-0.15954 29.99526,0.12047 66.30161,0.62224 72.33401,0.99969 139.21178,1.68913 214.66425,2.21294 38.26072,0.26562 49.54456,0.19676 51.39589,-0.31364 1.77545,-0.48948 17.79973,-0.77577 63.70692,-1.13816 33.73413,-0.2663 61.46535,-0.35363 61.62491,-0.19407 0.15957,0.15956 -0.34569,6.40112 -1.12278,13.87012 -0.77709,7.469 -1.40685,13.75791 -1.39948,13.97536 0.0146,0.42992 -92.03406,0.37633 -275.94295,-0.16066 z m -99.36538,-14.73097 v -12.6513 h -23.62043 c -18.07791,0 -23.8321,0.15479 -24.52253,0.65964 -0.81188,0.59366 -0.88785,1.81945 -0.75967,12.25594 l 0.14243,11.59631 1.84498,0.32596 c 1.01474,0.17927 11.98578,0.35718 24.3801,0.39535 l 22.53512,0.0694 z"
         id="path25557" />
      <path
         style="fill:#ff0049;fill-opacity:1;stroke:#cfca37;stroke-width:0.551386;stroke-linecap:round;stroke-linejoin:round;stroke-dasharray:none;stroke-opacity:1"
         d="m 465.98936,231.85626 c -52.05482,-0.12812 -302.54702,-1.33505 -302.69449,-1.45845 -0.32828,-0.2747 -3.39082,-28.33425 -3.12188,-28.6032 0.17299,-0.17298 35.72418,-0.0401 79.00265,0.29535 127.34098,0.98693 214.19869,1.65839 309.19057,2.39019 49.0763,0.37807 89.36336,0.82114 89.52681,0.98459 0.2942,0.29419 -2.19134,24.56871 -2.55265,24.93002 -0.15919,0.15919 -26.87112,0.48214 -116.11015,1.40378 -8.11791,0.0838 -32.0763,0.10981 -53.24086,0.0577 z"
         id="path28334" />
      <path
         style="fill:#ff0049;fill-opacity:1;stroke:#cfca37;stroke-width:0.551386;stroke-linecap:round;stroke-linejoin:round;stroke-dasharray:none;stroke-opacity:1"
         d="m 122.93514,228.43378 c 0.79451,-1.84039 3.82992,-8.80203 6.74534,-15.47032 l 5.30077,-12.12416 11.05283,0.19307 c 6.07906,0.10618 11.14361,0.27604 11.25457,0.37745 0.20355,0.18605 3.74306,29.41509 3.5774,29.54197 -0.049,0.0376 -8.9286,0.23926 -19.73233,0.44822 l -19.64315,0.37993 z"
         id="path28336" />
      <path
         style="fill:#ff0049;fill-opacity:1;stroke:#cfca37;stroke-width:0.551386;stroke-linecap:round;stroke-linejoin:round;stroke-dasharray:none;stroke-opacity:1"
         d="m 637.7944,230.62256 c 0.13653,-0.72481 0.77085,-6.5365 1.40959,-12.91486 0.63875,-6.37836 1.30392,-11.7625 1.47815,-11.96475 0.48942,-0.5681 19.33496,-2.07615 23.72694,-1.89867 l 3.90606,0.15785 4.64109,8.96133 c 4.24126,8.18933 8.3169,17.88662 7.75406,18.44946 -0.126,0.12601 -9.88948,0.29624 -21.69661,0.37829 l -21.46751,0.14919 z"
         id="path28338" />
      <path
         style="fill:#ff0049;fill-opacity:1;stroke:#cfca37;stroke-width:0.551386;stroke-linecap:round;stroke-linejoin:round;stroke-dasharray:none;stroke-opacity:1"
         d="m 105.81799,351.86698 c -2.36696,-1.44315 -3.41381,-3.36999 -5.846026,-10.76023 -2.925906,-8.89031 -3.925563,-20.34827 -2.409149,-27.61341 0.382114,-1.83071 1.087636,-0.96194 1.467102,1.80657 0.588802,4.29577 2.880223,12.6222 4.297203,15.6149 0.75053,1.58514 2.0795,3.56694 2.95327,4.40399 l 1.58868,1.52192 13.80261,0.0791 c 62.65619,0.35921 545.15008,0.64287 556.19782,0.32699 l 14.20361,-0.40613 2.19047,-8.69776 c 2.18034,-8.65739 2.1932,-8.68798 2.77949,-6.58922 2.06321,7.38649 4.42052,18.55083 4.67465,22.13977 l 0.29867,4.2171 -4.15189,1.97059 -4.15184,1.97059 -266.20432,0.53521 c -351.360089,0.70642 -319.59462,0.75777 -321.69035,-0.52002 z"
         id="path28340" />
      <path
         style="fill:#ff0049;fill-opacity:1;stroke:#cfca37;stroke-width:0.551386;stroke-linecap:round;stroke-linejoin:round;stroke-dasharray:none;stroke-opacity:1"
         d="m 454.39234,287.17675 c -9.85747,-0.0702 -49.90647,-0.34993 -88.99778,-0.62169 -39.09132,-0.27175 -71.1414,-0.57343 -71.22242,-0.67038 -0.081,-0.0969 -0.3038,-11.87777 -0.49508,-26.17961 l -0.34778,-26.00333 104.34067,0.17361 c 57.38737,0.0955 104.50272,0.33571 104.70079,0.53384 0.19808,0.19813 0.18486,12.23663 -0.0294,26.75222 l -0.38951,26.39198 -14.81843,-0.12453 c -8.15014,-0.0685 -22.88363,-0.18195 -32.7411,-0.25211 z m 44.5431,-27.82656 v -23.9861 l -100.81501,0.13314 -100.815,0.13314 -0.13751,23.19404 c -0.0756,12.75672 -0.0238,23.49055 0.11524,23.85296 0.20098,0.52395 20.87893,0.65892 100.95252,0.65892 h 100.69976 z"
         id="path28342" />
      <path
         style="fill:#ff0049;fill-opacity:1;stroke:#cfca37;stroke-width:0.361464;stroke-linecap:round;stroke-linejoin:round;stroke-dasharray:none;stroke-opacity:1"
         d="m 693.0249,273.94885 -0.0113,-3.71485 -6.17942,-19.17901 c -3.39868,-10.54846 -6.11495,-19.24381 -6.03616,-19.323 0.30492,-0.30647 0.65786,0.54422 3.79563,9.14878 1.90885,5.23453 4.22668,10.83314 5.64801,13.64246 1.32582,2.62054 2.74875,5.87801 3.16208,7.2388 0.70611,2.3247 0.7363,2.87974 0.49977,9.18792 -0.26862,7.16407 -0.85987,9.18209 -0.87863,2.9989 z"
         id="path28344" />
      <path
         style="fill:#ff0049;fill-opacity:1;stroke:#cfca37;stroke-width:0.778524;stroke-linecap:round;stroke-linejoin:round;stroke-dasharray:none;stroke-opacity:1"
         d="m 521.37313,201.96922 c -40.73111,-0.33321 -135.96551,-1.09076 -211.63199,-1.68345 -75.66648,-0.59269 -137.73006,-1.23226 -137.91906,-1.42126 -0.18901,-0.189 -0.10698,-3.77982 0.18227,-7.9796 l 0.52592,-7.63596 123.99598,0.48238 c 68.19778,0.26532 172.27289,0.69842 231.278,0.96246 l 107.28202,0.48007 0.44272,3.42611 c 0.24349,1.88436 0.66314,5.85435 0.93256,8.82219 l 0.48985,5.39608 -20.76085,-0.12159 c -11.41847,-0.0669 -54.0863,-0.39422 -94.81742,-0.72743 z"
         id="path28346" />
      <path
         style="fill:#ff0049;fill-opacity:1;stroke:#cfca37;stroke-width:0.778524;stroke-linecap:round;stroke-linejoin:round;stroke-dasharray:none;stroke-opacity:1"
         d="m 650.63544,198.62504 c -0.2521,-1.992 -0.83978,-7.4735 -1.30596,-12.18111 -0.73964,-7.46907 -1.18083,-9.18431 -3.46379,-13.46613 l -2.6162,-4.90683 -19.44418,-0.48773 c -10.69429,-0.26825 -119.60283,-0.48842 -242.01898,-0.48925 l -222.57481,-0.002 -3.15473,6.51251 c -2.67824,5.52889 -3.31965,7.79813 -4.24668,15.02449 -0.60058,4.68159 -1.09122,8.86821 -1.0903,9.30359 0.001,0.52022 -2.41099,0.71059 -7.03563,0.55529 l -7.0373,-0.23632 10.05916,-20.23157 c 8.9283,-17.95713 11.25981,-21.94688 20.73912,-35.48947 11.27736,-16.11136 57.60003,-73.422151 64.59114,-79.912704 6.8388,-6.349135 14.95019,-12.526685 18.78846,-14.30909 3.54279,-1.645189 5.00771,-1.76972 30.51577,-2.594105 18.25331,-0.589922 56.80656,-0.736884 120.94666,-0.461039 87.14726,0.374792 126.35618,1.128036 140.873,2.706319 6.5191,0.708763 10.59279,2.765238 18.72118,9.450792 10.21128,8.398724 32.54615,34.390913 51.07795,59.441927 4.23959,5.73101 7.92295,10.58748 8.18526,10.79216 0.2623,0.20468 4.73343,7.70289 9.93585,16.66269 5.20241,8.95979 10.22845,17.33302 11.16897,18.60717 0.94052,1.27416 3.99249,6.16833 6.78214,10.87594 2.78966,4.70762 6.9654,11.23874 9.27945,14.5136 2.31403,3.27487 5.11938,7.54521 6.23411,9.48966 l 2.02677,3.53537 h -4.39321 c -2.41628,0 -5.89884,0.20637 -7.73904,0.45859 l -3.34582,0.4586 z m -49.62359,-38.75732 c 5.37766,-0.94776 5.09171,-2.66387 -3.14959,-18.90234 C 583.21736,112.1094 565.05105,86.570572 551.25349,75.441136 540.645,66.884074 538.00554,66.222188 511.51325,65.475648 469.2962,64.285991 314.55438,65.410375 268.22676,67.243414 l -13.11378,0.518871 -4.37697,2.887028 c -9.69011,6.391547 -23.84746,22.736899 -37.11792,42.854477 -14.11929,21.40434 -21.97828,37.50272 -20.69811,42.39807 0.28799,1.1013 1.24682,1.5152 4.2053,1.81532 3.57055,0.36221 78.33168,1.36396 200.69619,2.6892 61.40854,0.66507 198.42131,0.30185 203.19038,-0.53866 z"
         id="path28348" />
      <path
         style="fill:#ff0049;fill-opacity:1;stroke:#cfca37;stroke-width:0.778524;stroke-linecap:round;stroke-linejoin:round;stroke-dasharray:none;stroke-opacity:1"
         d="m 440.24584,384.38364 c -78.39205,-0.26674 -185.7866,-0.53418 -238.65456,-0.5943 l -96.12357,-0.10933 -0.43377,-5.02393 c -0.23857,-2.76317 -0.64721,-8.70816 -0.90809,-13.2111 l -0.47432,-8.18716 1.76291,1.62507 c 2.71816,2.50563 5.41039,3.2128 12.23138,3.2128 h 6.27799 v 8.56907 8.56907 l 25.49183,-0.19584 25.49183,-0.19584 v -8.25199 -8.25199 l 95.95038,-0.49339 c 52.7727,-0.27136 154.42371,-0.49404 225.89114,-0.49484 l 129.94077,-10e-4 -0.23113,8.56076 -0.23113,8.56076 h 25.76802 25.76803 l -0.23113,-8.56076 -0.23113,-8.56076 6.92549,10e-4 c 6.79341,10e-4 7.00634,-0.0528 11.16431,-2.84607 6.82848,-4.58721 6.36438,-4.59808 5.773,0.13517 -0.28836,2.30796 -1.31568,8.09414 -2.28293,12.85819 -1.53892,7.57972 -2.06193,8.97483 -4.18632,11.16663 l -2.42767,2.50474 -54.74518,-0.14999 c -30.10985,-0.0825 -118.88411,-0.36822 -197.27615,-0.63496 z"
         id="path28350" />
      <path
         style="fill:#f4f806;fill-opacity:1;stroke:#572426;stroke-width:0.779;stroke-linecap:round;stroke-linejoin:round;stroke-dasharray:none;stroke-opacity:1"
         d="m 138.06526,197.16172 c 0,-1.67353 19.11751,-37.6772 23.8417,-44.90065 9.52142,-14.5586 29.72225,-40.57787 55.82823,-71.908433 12.84608,-15.416955 16.77192,-19.403496 25.6467,-26.043233 7.88234,-5.897232 9.19086,-6.381319 19.28301,-7.133755 25.77456,-1.921663 240.93784,-1.241583 271.36111,0.857708 12.39651,0.855395 16.01444,1.843966 22.07028,6.030541 16.55394,11.444207 55.91016,59.449762 74.26598,90.587452 5.03737,8.54508 10.03975,16.83285 11.1164,18.41729 1.07665,1.58444 1.95757,3.05424 1.9576,3.26623 3e-5,0.212 -109.10316,0.28598 -242.45153,0.1644 l -242.45158,-0.22105 -1.396,3.1982 c -4.20172,9.62601 -5.05001,12.34026 -6.04551,19.34357 -0.59979,4.2195 -1.09666,7.92301 -1.10416,8.23003 -0.0161,0.65699 -11.92223,0.76854 -11.92223,0.1117 z m 462.46477,-36.70581 c 6.25195,-1.02737 6.26174,-2.89617 0.0818,-15.622 C 584.14251,110.92007 561.14158,79.816674 545.56696,70.398574 539.5865,66.782138 535.41983,65.913538 520.2567,65.122291 492.6222,63.680261 323.10312,64.590228 269.41192,66.46881 l -14.90577,0.521533 -4.81784,3.454818 c -12.91431,9.260699 -32.79506,34.415469 -47.53858,60.149749 -8.56626,14.95211 -11.9204,25.75349 -8.44901,27.20848 1.48118,0.62082 49.52153,1.59452 122.62131,2.48535 65.67054,0.80029 279.58956,0.92611 284.208,0.16717 z"
         id="path28755" />
      <path
         style="fill:#f4f806;fill-opacity:1;stroke:#572426;stroke-width:0.778524;stroke-linecap:round;stroke-linejoin:round;stroke-dasharray:none;stroke-opacity:1"
         d="m 651.62338,200.88914 c 0,-3.34879 -2.58982,-22.1586 -3.35781,-24.38771 -0.57309,-1.66342 -0.9401,-3.1263 -0.81557,-3.25083 0.12454,-0.12453 1.51588,1.87197 3.09187,4.43666 1.57599,2.5647 5.48936,8.64339 8.69637,13.5082 3.20701,4.86481 5.73625,8.92132 5.62054,9.01446 -0.45716,0.36798 -13.2354,1.02375 -13.2354,0.67922 z"
         id="path35036" />
      <path
         style="fill:#f4f806;fill-opacity:1;stroke:#572426;stroke-width:0.778524;stroke-linecap:round;stroke-linejoin:round;stroke-dasharray:none;stroke-opacity:1"
         d="m 470.38946,200.91823 c -183.60575,-1.52778 -297.65902,-2.63393 -297.91443,-2.88934 -0.13184,-0.13184 -0.005,-3.34858 0.28183,-7.14832 l 0.52153,-6.90861 123.24978,0.49234 c 67.78737,0.27079 171.53334,0.71329 230.5466,0.98334 l 107.29683,0.491 0.40774,3.04372 c 0.22425,1.67405 0.62816,5.30449 0.89758,8.06766 l 0.48984,5.02393 -26.69497,-0.11027 c -14.68224,-0.0607 -77.26928,-0.5311 -139.08233,-1.04545 z"
         id="path35038" />
      <path
         style="fill:#f4f806;fill-opacity:1;stroke:#572426;stroke-width:0.778524;stroke-linecap:round;stroke-linejoin:round;stroke-dasharray:none;stroke-opacity:1"
         d="m 638.60727,228.31008 c 0.21925,-1.5351 0.88244,-7.10662 1.47375,-12.38117 0.5913,-5.27454 1.16946,-9.67974 1.28479,-9.78933 0.28485,-0.27067 20.49257,-1.83295 23.69684,-1.83203 2.43323,7e-4 2.71997,0.29255 5.66727,5.76822 3.31457,6.15803 9.17637,19.13477 9.17637,20.31448 0,0.43476 -8.09854,0.7109 -20.84884,0.7109 h -20.84883 z"
         id="path35040" />
      <path
         style="fill:#f4f806;fill-opacity:1;stroke:#572426;stroke-width:0.778524;stroke-linecap:round;stroke-linejoin:round;stroke-dasharray:none;stroke-opacity:1"
         d="m 260.87264,230.31628 c -48.50892,-0.26803 -90.23346,-0.53601 -92.72121,-0.59552 l -4.52318,-0.10818 -1.24602,-11.35038 c -0.68531,-6.24271 -1.24558,-12.45718 -1.24504,-13.80994 l 9.7e-4,-2.45956 42.98258,0.43306 c 23.64042,0.23818 87.8631,0.75983 142.71706,1.15922 125.0952,0.91081 290.23596,2.31369 290.38345,2.46682 0.2319,0.24075 -2.14363,23.20333 -2.4319,23.50756 -1.27114,1.34153 -196.5628,1.73686 -373.91671,0.75692 z"
         id="path35042" />
      <path
         style="fill:#f4f806;fill-opacity:1;stroke:#572426;stroke-width:0.778524;stroke-linecap:round;stroke-linejoin:round;stroke-dasharray:none;stroke-opacity:1"
         d="m 374.80259,286.04859 c -43.97626,-0.34677 -80.04801,-0.72164 -80.15942,-0.83306 -0.11142,-0.11142 -0.3032,-11.6631 -0.42617,-25.67039 l -0.22358,-25.46782 37.58649,0.17932 37.5865,0.17931 -36.28399,0.2004 -36.284,0.2004 v 24.08487 24.08486 l 2.79108,0.46134 c 1.53509,0.25373 47.25293,0.46502 101.59519,0.46953 l 98.80412,0.008 v -24.56148 c 0,-21.33623 0.1466,-24.56147 1.11643,-24.56147 1.29978,0 1.44901,8.5892 0.62393,35.91185 l -0.48885,16.18825 -23.14044,-0.12181 c -12.72724,-0.067 -59.12103,-0.40553 -103.09729,-0.75229 z"
         id="path35044" />
      <path
         style="fill:#f4f806;fill-opacity:1;stroke:#572426;stroke-width:0.778524;stroke-linecap:round;stroke-linejoin:round;stroke-dasharray:none;stroke-opacity:1"
         d="m 124.30687,226.92848 c 1.07112,-2.41264 4.01882,-9.20024 6.55044,-15.08355 l 4.60295,-10.69692 10.39891,0.50389 c 5.7194,0.27714 10.52607,0.63104 10.68148,0.78645 0.29288,0.29288 3.8347,27.44345 3.60873,27.66344 -0.0702,0.0684 -8.60168,0.36931 -18.95883,0.6688 l -18.83117,0.54453 z"
         id="path35046" />
      <path
         style="fill:#f4f806;fill-opacity:1;stroke:#572426;stroke-width:0.778524;stroke-linecap:round;stroke-linejoin:round;stroke-dasharray:none;stroke-opacity:1"
         d="m 107.73069,333.6267 c -1.80977,-2.25899 -3.84216,-7.35942 -5.26425,-13.21109 -2.10946,-8.68001 -2.15575,-9.32184 -0.78609,-10.898 1.00161,-1.15261 1.332,-4.91301 1.98524,-22.59492 0.43101,-11.6667 1.14518,-22.37839 1.58704,-23.80374 0.90456,-2.91789 7.71467,-13.15936 8.0605,-12.12187 0.12298,0.36894 -1.65538,6.00742 -3.9519,12.52997 -3.99754,11.35376 -4.20672,12.31913 -4.90817,22.65135 -0.75856,11.17351 -0.35448,23.62564 0.92342,28.45633 0.40425,1.52813 1.43291,3.15193 2.28592,3.60845 0.85302,0.45652 6.87659,1.01484 13.38573,1.24072 13.56836,0.47085 12.14398,-0.55579 12.90979,9.30494 l 0.44798,5.76822 h -12.96493 c -9.47823,0 -13.16537,-0.2502 -13.71028,-0.93036 z"
         id="path35048" />
      <path
         style="fill:#f4f806;fill-opacity:1;stroke:#572426;stroke-width:0.778524;stroke-linecap:round;stroke-linejoin:round;stroke-dasharray:none;stroke-opacity:1"
         d="m 146.13676,334.73901 -8.67497,-0.22797 -0.47337,-4.62878 c -0.26036,-2.54583 -0.64775,-5.83353 -0.86088,-7.30598 l -0.3875,-2.6772 6.18655,-0.48156 c 3.4026,-0.26486 11.07311,-0.48357 17.04558,-0.48603 l 10.85904,-0.004 0.91458,5.39609 c 0.50302,2.96784 1.09633,6.4846 1.31846,7.81501 l 0.40388,2.41893 h -7.83697 c -4.31034,0 -8.28303,0.0922 -8.82821,0.20496 -0.54517,0.11272 -4.89496,0.10237 -9.66619,-0.023 z"
         id="path35050" />
      <path
         style="fill:#f4f806;fill-opacity:1;stroke:#572426;stroke-width:0.778524;stroke-linecap:round;stroke-linejoin:round;stroke-dasharray:none;stroke-opacity:1"
         d="m 198.24931,333.9994 -22.05967,-0.20852 -0.4253,-3.15227 c -0.23391,-1.73375 -0.64473,-5.07812 -0.91291,-7.43193 l -0.48762,-4.27965 96.65702,2.4e-4 c 53.16135,1.3e-4 154.60418,0.22279 225.42851,0.4948 l 128.7715,0.49457 -0.51509,5.64556 c -0.2833,3.10507 -0.53891,6.39916 -0.56804,7.32022 l -0.053,1.67464 -201.88789,-0.17456 c -111.03833,-0.096 -211.81473,-0.26841 -223.94756,-0.3831 z"
         id="path35052" />
      <path
         style="fill:#f4f806;fill-opacity:1;stroke:#572426;stroke-width:0.778524;stroke-linecap:round;stroke-linejoin:round;stroke-dasharray:none;stroke-opacity:1"
         d="m 666.84179,330.38666 c 0.26101,-2.82325 0.65929,-6.7241 0.88507,-8.66855 l 0.41052,-3.53536 h 12.58304 12.58304 l 0.1188,-8.74538 0.11879,-8.74537 0.51093,8.18716 c 0.4611,7.38884 0.31379,9.00629 -1.51073,16.58779 -1.11191,4.62035 -2.21736,8.59634 -2.45654,8.83553 -0.23919,0.23919 -5.67347,0.61094 -12.07618,0.82613 l -11.64129,0.39124 z"
         id="path35054" />
      <path
         style="fill:#f4f806;fill-opacity:1;stroke:#572426;stroke-width:0.778524;stroke-linecap:round;stroke-linejoin:round;stroke-dasharray:none;stroke-opacity:1"
         d="m 628.27803,327.30026 c 0.48948,-4.40059 0.91848,-8.08481 0.95335,-8.18715 0.13137,-0.38563 21.57154,-0.15878 28.52716,0.30183 l 7.2516,0.48021 -0.40618,5.28417 c -0.2234,2.90629 -0.57117,6.37268 -0.77281,7.7031 l -0.36663,2.41893 H 645.4263 627.38807 Z"
         id="path35056" />
      <path
         style="fill:#f4f806;fill-opacity:1;stroke:#572426;stroke-width:1.379;stroke-linecap:round;stroke-linejoin:round;stroke-dasharray:none;stroke-opacity:1"
         d="m 108.87159,351.88802 c -3.32909,-0.36021 -5.08486,-2.34079 -7.28283,-8.21541 -2.548744,-6.81213 -3.721303,-13.95173 -3.613644,-22.00316 0.05575,-4.16915 0.242112,-6.74296 0.414144,-5.71956 1.462176,8.69826 5.82907,19.45558 8.47215,20.87011 1.42952,0.76506 584.55108,1.36321 585.3148,0.6004 0.2676,-0.26727 0.98662,-2.44431 1.59784,-4.83786 2.30253,-9.01682 2.61079,-10.07765 2.85441,-9.82313 0.43984,0.45951 3.98422,17.24112 4.45671,21.10124 l 0.45552,3.72144 -3.93254,1.66939 c -3.91442,1.66169 -4.16753,1.67112 -54.91622,2.04497 -64.74226,0.47694 -530.11343,0.99265 -533.82034,0.59157 z"
         id="path35058" />
      <path
         style="fill:#f4f806;fill-opacity:1;stroke:#572426;stroke-width:0.778524;stroke-linecap:round;stroke-linejoin:round;stroke-dasharray:none;stroke-opacity:1"
         d="m 336.79021,383.48996 c -126.69612,-0.37275 -230.41833,-0.73946 -230.49379,-0.81492 -0.36831,-0.36831 -1.80473,-22.23537 -1.48182,-22.55828 0.20508,-0.20508 1.28788,0.22666 2.40622,0.95942 1.47195,0.96446 3.95571,1.41638 8.99602,1.63683 l 6.96268,0.30452 v 8.47052 8.47053 h 24.98255 c 15.79777,0 25.51183,-0.28326 26.42219,-0.77048 1.28028,-0.68518 1.43965,-1.61906 1.43965,-8.4362 v -7.66572 l 97.25288,-0.49525 c 53.48908,-0.27238 154.6377,-0.49524 224.77471,-0.49524 h 127.52183 v 8.5593 8.5593 h 26.42219 26.4222 v -8.5593 -8.5593 h 6.19152 c 5.88356,0 6.42961,-0.14446 10.97823,-2.90429 2.6327,-1.59735 4.88706,-2.63603 5.0097,-2.30818 0.12265,0.32786 -0.75647,5.45181 -1.95359,11.38656 -1.78861,8.86703 -2.55804,11.26853 -4.31657,13.47247 l -2.13998,2.68201 -62.52012,-0.12829 c -34.38607,-0.0706 -166.18058,-0.43327 -292.8767,-0.80601 z"
         id="path35060" />
      <path
         style="fill:#f4f806;fill-opacity:1;stroke:#572426;stroke-width:0.591486;stroke-linecap:round;stroke-linejoin:round;stroke-dasharray:none;stroke-opacity:1"
         d="m 690.02031,259.44983 c -1.78832,-5.64159 -3.24448,-10.47097 -3.23592,-10.73197 0.024,-0.73269 4.3304,8.53469 5.65859,12.17737 0.76574,2.10013 1.1202,4.22458 1.00567,6.02762 -0.16894,2.65961 -0.3226,2.32466 -3.42834,-7.47302 z"
         id="path35062" />
      <path
         style="fill:#f4f806;fill-opacity:1;stroke:#572426;stroke-width:0.891;stroke-linecap:round;stroke-linejoin:round;stroke-dasharray:none;stroke-opacity:1"
         d="m 515.43004,418.54753 c -46.4809,-0.64285 -291.83071,-0.72598 -352.95493,-0.11959 l -41.09571,0.4077 -2.57473,-2.3733 c -2.76877,-2.55217 -6.05143,-7.39988 -8.4563,-12.48798 -1.47066,-3.11154 -4.71607,-17.26683 -4.10004,-17.88286 0.35978,-0.35977 471.23978,0.80104 539.05041,1.32887 l 44.76477,0.34845 -0.84137,2.33525 c -1.4358,3.98526 -3.01879,13.20338 -3.01879,17.57916 0,3.83958 -0.14911,4.37477 -1.84593,6.62428 -1.01525,1.34597 -2.97762,3.01977 -4.36088,3.71954 l -2.51495,1.27232 -60.81005,-0.0963 c -33.44554,-0.053 -79.00421,-0.34796 -101.2415,-0.65551 z"
         id="path35064" />
      <path
         style="fill:#f4f806;fill-opacity:1;stroke:#000000;stroke-width:0.891;stroke-linecap:round;stroke-linejoin:round;stroke-dasharray:none;stroke-opacity:1"
         d="m 126.04541,444.75317 c -10.60857,-0.89741 -12.72438,-2.1629 -14.86189,-8.8891 -1.67872,-5.28253 -2.29349,-10.83894 -2.30197,-20.80576 l -0.007,-8.48212 1.66571,3.02167 c 3.93935,7.14612 8.29565,11.3317 11.90193,11.4355 1.07933,0.0311 61.63412,-0.2338 134.5662,-0.58859 97.28477,-0.47326 149.02071,-0.47964 194.2405,-0.024 110.98576,1.11839 225.91161,1.41329 228.41802,0.58612 1.21022,-0.39942 3.30333,-1.74282 4.65131,-2.98533 l 2.45082,-2.25911 v 9.30957 9.30958 l -3.90336,3.76836 c -2.14682,2.07259 -4.24615,3.78937 -4.66516,3.81507 -0.41896,0.0257 -77.404,0.0893 -171.07778,0.14137 l -170.31598,0.0947 -0.91765,-3.67558 c -0.99882,-4.00066 -2.80978,-7.49432 -4.89278,-9.43903 -2.30821,-2.15497 -7.43811,-4.11506 -12.41561,-4.74388 -6.53044,-0.82501 -57.60558,-0.86454 -67.12872,-0.0519 -11.64017,0.99323 -12.66072,1.88272 -13.10213,11.41959 -0.15668,3.38533 -0.53934,6.40093 -0.85035,6.70132 -0.3382,0.32665 -12.04313,0.68984 -29.12194,0.90362 -15.70606,0.1966 -32.7512,1.08827 -37.8868,0.8812 -12.92387,-0.5211 -39.39745,1.99899 -44.44516,0.55679 z"
         id="path35066"
         sodipodi:nodetypes="ssccsssssscccssscssssssssss" />
      <path
         style="fill:#595959;fill-opacity:1;stroke:#000000;stroke-width:0.778524;stroke-linecap:round;stroke-linejoin:round;stroke-dasharray:none;stroke-opacity:1"
         d="m 228.74414,285.12471 c -31.79352,-0.44387 -58.0831,-1.08377 -58.42129,-1.42202 -0.33819,-0.33824 -1.96717,-11.97703 -3.61997,-25.86398 l -3.00508,-25.24898 h 40.27888 c 22.15339,0 50.88378,0.22155 63.84531,0.49235 l 23.56642,0.49235 v 26.30198 26.30199 l -2.41893,-0.12333 c -1.33042,-0.0678 -28.43182,-0.4865 -60.22534,-0.93036 z"
         id="path35137" />
      <path
         style="fill:#595959;fill-opacity:1;stroke:#000000;stroke-width:0.778524;stroke-linecap:round;stroke-linejoin:round;stroke-dasharray:none;stroke-opacity:1"
         d="m 504.99882,260.33794 v -26.08555 l 28.46898,-0.44752 c 15.65794,-0.24614 44.96158,-0.64877 65.11919,-0.89473 l 36.65022,-0.44719 -0.37929,2.11018 c -0.2086,1.1606 -1.69453,12.94888 -3.30206,26.19619 -1.60754,13.2473 -3.05506,24.21828 -3.21672,24.37994 -0.16166,0.16166 -27.97937,0.5145 -61.81713,0.78408 l -61.52319,0.49014 z"
         id="path38589" />
      <path
         style="fill:#7c7c7c;fill-opacity:1;stroke:#000000;stroke-width:0.778524;stroke-linecap:round;stroke-linejoin:round;stroke-dasharray:none;stroke-opacity:1"
         d="m 639.38215,199.65502 c -0.23312,-1.73977 -0.77471,-6.16835 -1.20354,-9.84128 -0.42883,-3.67294 -0.90977,-6.80814 -1.06875,-6.96712 -0.48204,-0.48203 -466.23167,-1.9251 -466.71072,-1.44604 -0.24499,0.24498 -0.63659,4.32685 -0.87023,9.07082 l -0.4248,8.62541 h -8.13569 -8.13569 l 0.40105,-2.04679 c 0.22058,-1.12574 0.79022,-5.30666 1.26587,-9.29093 0.72018,-6.03248 1.36075,-8.19055 3.82976,-12.9024 l 2.96493,-5.65825 239.76844,0.51552 c 221.08508,0.47535 239.84754,0.61079 240.78358,1.73809 2.82725,3.40491 4.42158,8.85862 5.25308,17.96902 0.46702,5.11698 1.03272,10.22465 1.2571,11.35038 l 0.40797,2.04679 h -4.47926 -4.47925 z"
         id="path38591" />
      <path
         style="fill:#cccccc;fill-opacity:1;stroke:#000000;stroke-width:0.778524;stroke-linecap:round;stroke-linejoin:round;stroke-dasharray:none;stroke-opacity:1"
         d="m 458.10873,158.46101 c -139.89867,-1.27497 -261.94193,-2.98191 -262.63328,-3.67325 -0.86958,-0.86958 3.09273,-10.59255 7.87636,-19.3275 15.38319,-28.08986 36.9505,-55.293338 50.45375,-63.638811 2.73145,-1.688124 3.7338,-1.804142 20.04297,-2.319889 69.29045,-2.191178 235.06622,-2.685137 255.80401,-0.762214 5.8077,0.538522 7.99045,1.105435 11.53645,2.996298 11.54536,6.156433 25.91388,22.470741 40.73471,46.250996 6.84037,10.97548 17.49527,30.88345 19.36435,36.181 l 1.07422,3.04468 -5.69914,0.46807 c -6.6263,0.54422 -104.1837,1.09386 -138.5544,0.78062 z"
         id="path40663" />
      <path
         style="fill:#cccccc;fill-opacity:1;stroke:#000000;stroke-width:0.778524;stroke-linecap:round;stroke-linejoin:round;stroke-dasharray:none;stroke-opacity:1"
         d="m 641.9115,157.6028 c -4.50483,-7.39879 -16.81526,-28.89881 -16.65809,-29.09319 0.11209,-0.13863 6.57517,-0.01 14.36239,0.28693 11.9681,0.4556 14.24301,0.72489 14.70432,1.74063 0.30015,0.66091 0.68656,6.9749 0.85869,14.03109 l 0.31295,12.82944 -1.98264,0.7538 c -1.09046,0.41459 -3.96758,0.7538 -6.39361,0.7538 -3.40261,0 -4.59225,-0.29775 -5.20401,-1.3025 z"
         id="path41631" />
      <path
         style="fill:#dddddd;fill-opacity:1;stroke:#000000;stroke-width:0.778524;stroke-linecap:round;stroke-linejoin:round;stroke-dasharray:none;stroke-opacity:1"
         d="m 140.85929,155.38614 c -2.25824,-0.23633 -2.87923,-0.65474 -3.26746,-2.20156 -0.83021,-3.30784 0.20927,-19.7449 1.43404,-22.6762 l 1.13371,-2.71334 11.04751,0.32072 c 14.25225,0.41377 21.97658,1.0153 21.69321,1.68935 -0.12413,0.29527 -4.24484,6.28981 -9.15713,13.32119 l -8.93145,12.78432 -5.58215,-0.11635 c -3.07019,-0.064 -6.83681,-0.24765 -8.37028,-0.40813 z"
         id="path41633" />
      <path
         style="fill:#dddddd;fill-opacity:1;stroke:#000000;stroke-width:0.778524;stroke-linecap:round;stroke-linejoin:round;stroke-dasharray:none;stroke-opacity:1"
         d="m 634.52062,519.09776 c -6.85978,-0.85678 -12.07589,-2.53449 -13.79874,-4.43822 -2.31709,-2.56035 -2.79013,-13.50199 -1.8335,-42.40936 0.48091,-14.5322 1.02928,-26.67339 1.21859,-26.98041 0.18931,-0.30701 13.50389,-0.55821 29.58795,-0.55821 h 29.24374 l 3.01451,-2.1837 c 1.65798,-1.20104 3.29763,-2.62449 3.64367,-3.16322 1.24309,-1.93536 1.53507,6.57957 0.92348,26.93124 -0.83835,27.89697 -2.87804,44.588 -5.76049,47.13878 -4.7077,4.16601 -31.72905,7.47542 -46.23921,5.6631 z"
         id="path42187" />
      <path
         style="fill:#dddddd;fill-opacity:1;stroke:#000000;stroke-width:0.778524;stroke-linecap:round;stroke-linejoin:round;stroke-dasharray:none;stroke-opacity:1"
         d="m 338.26008,464.38671 c -0.39923,-1.05004 -0.72587,-5.90651 -0.72587,-10.79216 v -8.88299 h 82.49275 82.49275 l 0.79542,8.19597 c 0.43749,4.50779 0.63266,8.81841 0.43371,9.57916 -0.32953,1.26014 -1.56464,1.42749 -13.88339,1.88105 -12.22538,0.45013 -118.18051,1.88606 -141.37142,1.91591 l -9.50809,0.0122 z"
         id="path42189" />
      <path
         style="fill:#dddddd;fill-opacity:1;stroke:#000000;stroke-width:0.778524;stroke-linecap:round;stroke-linejoin:round;stroke-dasharray:none;stroke-opacity:1"
         d="m 313.56389,453.45693 c 1.91561,-3.79397 1.61031,-9.94387 -0.69834,-14.0672 l -1.93788,-3.4611 2.232,-0.4464 c 1.2276,-0.24552 5.86138,-0.4464 10.29729,-0.4464 h 8.06529 l 1.16362,3.9075 c 0.63999,2.14913 1.37297,6.83814 1.62886,10.42002 l 0.46524,6.51252 h -11.21872 -11.21871 z"
         id="path42191" />
      <path
         style="fill:#dddddd;fill-opacity:1;stroke:#000000;stroke-width:0.778524;stroke-linecap:round;stroke-linejoin:round;stroke-dasharray:none;stroke-opacity:1"
         d="m 284.57485,449.51224 c 0.31545,-5.06932 -0.0837,-6.76604 -2.39143,-10.16673 l -1.79984,-2.65222 2.71134,-0.4484 c 1.49123,-0.24662 3.4555,-0.45208 4.36504,-0.45659 l 1.65371,-0.008 -1.90554,3.53537 c -1.67166,3.10143 -1.86552,4.19768 -1.57942,8.93144 0.21909,3.62502 0.0575,5.39642 -0.49245,5.3971 -0.52792,6.5e-4 -0.72726,-1.46645 -0.56141,-4.13178 z"
         id="path42193" />
      <path
         style="fill:#dddddd;fill-opacity:1;stroke:#000000;stroke-width:0.778524;stroke-linecap:round;stroke-linejoin:round;stroke-dasharray:none;stroke-opacity:1"
         d="m 107.84603,357.38159 -2.01932,-1.73695 120.81515,-0.49591 c 66.44833,-0.27275 188.66646,-0.53962 271.59584,-0.59304 82.92937,-0.0534 161.66587,-0.30461 174.97001,-0.55821 13.30413,-0.2536 24.27811,-0.42813 24.38662,-0.38785 0.10851,0.0403 -1.64471,1.29627 -3.89606,2.79108 l -4.09335,2.71783 H 399.73514 109.86536 Z"
         id="path42195" />
      <path
         style="fill:#040404;fill-opacity:1;stroke:#000000;stroke-width:0.778524;stroke-linecap:round;stroke-linejoin:round;stroke-dasharray:none;stroke-opacity:1"
         d="m 635.85208,518.39331 c -6.83078,-0.83676 -12.73308,-2.6517 -14.31764,-4.40262 -2.12755,-2.35091 -2.65597,-14.04401 -1.85268,-40.99622 0.39652,-13.30413 0.88593,-24.94292 1.08758,-25.86398 l 0.36663,-1.67464 h 29.12883 29.12884 l 2.30311,-1.72739 c 4.74499,-3.55883 4.43472,-5.01779 3.94398,18.54548 -0.62707,30.10962 -2.45904,46.95968 -5.46687,50.2833 -0.69079,0.76332 -2.90473,1.87747 -4.91985,2.4759 -8.95233,2.65855 -30.28116,4.47747 -39.40193,3.36017 z"
         id="path42197" />
      <path
         style="fill:#040404;fill-opacity:1;stroke:#000000;stroke-width:0.778524;stroke-linecap:round;stroke-linejoin:round;stroke-dasharray:none;stroke-opacity:1"
         d="m 134.34383,519.84912 c -13.04569,-1.61282 -22.68715,-5.04823 -23.41725,-8.34393 -1.35275,-6.10642 -2.04835,-19.62971 -2.34459,-45.58145 -0.31558,-27.64715 -0.2554,-29.5856 0.84347,-27.16648 1.99241,4.38626 4.63819,6.55138 9.21298,7.53925 4.45874,0.96281 26.77059,1.27566 46.20685,0.64791 l 11.52214,-0.37214 0.88739,1.86071 c 0.48807,1.0234 1.27451,4.37269 1.74764,7.44288 1.06849,6.93344 1.84171,52.1427 0.96067,56.16834 -0.7943,3.62925 -3.18585,5.19214 -10.37266,6.77862 -6.20799,1.37041 -27.4583,1.98916 -35.24664,1.02629 z"
         id="path42889" />
      <path
         style="fill:#040404;fill-opacity:1;stroke:#000000;stroke-width:0.778524;stroke-linecap:round;stroke-linejoin:round;stroke-dasharray:none;stroke-opacity:1"
         d="m 266.53244,460.31298 c -1.18537,-0.35471 -3.15246,-1.58191 -4.37132,-2.7271 -5.7289,-5.38264 -5.66776,-14.14908 0.13273,-19.02987 6.33643,-5.33175 14.87697,-3.52116 18.69531,3.96339 3.40994,6.68405 0.74601,13.88601 -6.34721,17.15974 -3.24239,1.49646 -4.81591,1.61945 -8.10951,0.63384 z"
         id="path42891" />
      <path
         style="fill:#040404;fill-opacity:1;stroke:#000000;stroke-width:0.778524;stroke-linecap:round;stroke-linejoin:round;stroke-dasharray:none;stroke-opacity:1"
         d="m 294.04925,457.95382 c -3.37151,-1.96869 -6.38228,-7.01906 -6.38228,-10.70587 0,-6.80601 5.92132,-12.97235 12.42985,-12.94417 8.73119,0.0378 14.77452,10.19548 10.91046,18.33839 -2.94589,6.20799 -11.06679,8.75165 -16.95803,5.31165 z"
         id="path42893" />
      <path
         style="fill:#000000;fill-opacity:1;stroke:#000000;stroke-width:0.779216;stroke-linecap:round;stroke-linejoin:round"
         d="m 640.11421,198.91074 c -0.23984,-1.73978 -0.84648,-6.17759 -1.3481,-9.86181 l -0.91204,-6.69858 -47.63438,-0.45583 c -95.82242,-0.91694 -419.96549,-1.56142 -420.41389,-0.83589 -0.24288,0.39299 -0.66817,4.44488 -0.94508,9.00421 l -0.50348,8.28968 h -7.26015 -7.26015 l 0.38757,-3.16322 c 1.19675,-9.76731 2.58142,-15.4562 4.84602,-19.90968 l 2.46005,-4.83787 214.7167,0.17806 c 118.09419,0.0979 225.87665,0.38843 239.5166,0.64554 23.29859,0.43917 24.88177,0.55533 26.15212,1.91891 1.8837,2.0219 3.57821,8.58262 4.48204,17.35325 0.42185,4.09357 0.92443,8.36392 1.11685,9.48966 0.3423,2.00263 0.27094,2.04679 -3.30738,2.04679 h -3.65722 z"
         id="path28869" />
    </g>
  </g>
</svg>
